<svg width="936" height="664" viewBox="0 0 936 664" fill="none" xmlns="http://www.w3.org/2000/svg">
<g filter="url(#filter0_d_6_631)">
<rect x="28.4429" y="14" width="878.876" height="606.755" rx="17.1608" fill="#272E35"/>
</g>
<path d="M86.4193 566.54V578.467H84.4629V570.298L80.8249 578.467H79.4692L75.8139 570.298V578.467H73.8576V566.54H75.9684L80.1556 575.893L84.3257 566.54H86.4193ZM93.092 578.621C92.1996 578.621 91.3931 578.421 90.6723 578.02C89.9516 577.609 89.3853 577.037 88.9734 576.304C88.5615 575.561 88.3556 574.703 88.3556 573.73C88.3556 572.769 88.5673 571.917 88.9906 571.173C89.4139 570.43 89.9916 569.858 90.7238 569.457C91.456 569.057 92.274 568.857 93.1778 568.857C94.0816 568.857 94.8996 569.057 95.6318 569.457C96.364 569.858 96.9417 570.43 97.365 571.173C97.7883 571.917 98 572.769 98 573.73C98 574.691 97.7826 575.544 97.3478 576.287C96.9131 577.031 96.3182 577.609 95.5631 578.02C94.8195 578.421 93.9958 578.621 93.092 578.621ZM93.092 576.922C93.5954 576.922 94.0644 576.802 94.4992 576.562C94.9453 576.322 95.3057 575.961 95.5803 575.481C95.8549 575 95.9921 574.417 95.9921 573.73C95.9921 573.044 95.8606 572.466 95.5975 571.997C95.3343 571.517 94.9854 571.156 94.5506 570.916C94.1159 570.676 93.6468 570.556 93.1435 570.556C92.6401 570.556 92.171 570.676 91.7363 570.916C91.313 571.156 90.9755 571.517 90.7238 571.997C90.4721 572.466 90.3463 573.044 90.3463 573.73C90.3463 574.749 90.6037 575.538 91.1185 576.098C91.6448 576.648 92.3026 576.922 93.092 576.922ZM103.589 576.716L106.266 569.011H108.343L104.739 578.467H102.405L98.8184 569.011H100.912L103.589 576.716ZM110.817 567.758C110.462 567.758 110.165 567.638 109.924 567.398C109.684 567.158 109.564 566.86 109.564 566.506C109.564 566.151 109.684 565.854 109.924 565.613C110.165 565.373 110.462 565.253 110.817 565.253C111.16 565.253 111.452 565.373 111.692 565.613C111.932 565.854 112.052 566.151 112.052 566.506C112.052 566.86 111.932 567.158 111.692 567.398C111.452 567.638 111.16 567.758 110.817 567.758ZM111.778 569.011V578.467H109.821V569.011H111.778ZM123.012 573.507C123.012 573.862 122.99 574.182 122.944 574.468H115.719C115.776 575.223 116.057 575.83 116.56 576.287C117.063 576.745 117.681 576.974 118.413 576.974C119.466 576.974 120.21 576.533 120.644 575.652H122.755C122.469 576.522 121.948 577.237 121.193 577.797C120.45 578.347 119.523 578.621 118.413 578.621C117.51 578.621 116.697 578.421 115.977 578.02C115.267 577.609 114.707 577.037 114.295 576.304C113.894 575.561 113.694 574.703 113.694 573.73C113.694 572.758 113.889 571.906 114.278 571.173C114.678 570.43 115.233 569.858 115.942 569.457C116.663 569.057 117.487 568.857 118.413 568.857C119.306 568.857 120.101 569.051 120.799 569.44C121.497 569.829 122.04 570.378 122.429 571.088C122.818 571.785 123.012 572.592 123.012 573.507ZM120.97 572.889C120.959 572.169 120.701 571.591 120.198 571.156C119.695 570.721 119.071 570.504 118.328 570.504C117.653 570.504 117.075 570.721 116.594 571.156C116.114 571.579 115.828 572.157 115.736 572.889H120.97ZM128.37 578.621C127.626 578.621 126.957 578.49 126.362 578.226C125.779 577.952 125.315 577.586 124.972 577.128C124.629 576.659 124.446 576.139 124.423 575.567H126.448C126.482 575.967 126.671 576.304 127.014 576.579C127.369 576.842 127.809 576.974 128.335 576.974C128.885 576.974 129.308 576.871 129.605 576.665C129.914 576.447 130.069 576.173 130.069 575.841C130.069 575.486 129.897 575.223 129.554 575.052C129.222 574.88 128.69 574.691 127.958 574.485C127.249 574.291 126.671 574.102 126.225 573.919C125.779 573.736 125.39 573.456 125.058 573.078C124.737 572.701 124.577 572.203 124.577 571.585C124.577 571.082 124.726 570.624 125.023 570.212C125.321 569.789 125.744 569.457 126.293 569.217C126.854 568.977 127.495 568.857 128.215 568.857C129.291 568.857 130.155 569.131 130.807 569.68C131.47 570.218 131.825 570.956 131.871 571.894H129.914C129.88 571.471 129.708 571.133 129.399 570.882C129.091 570.63 128.673 570.504 128.147 570.504C127.632 570.504 127.237 570.601 126.963 570.796C126.688 570.99 126.551 571.248 126.551 571.568C126.551 571.82 126.642 572.031 126.825 572.203C127.008 572.375 127.231 572.512 127.495 572.615C127.758 572.706 128.147 572.827 128.662 572.975C129.348 573.158 129.909 573.347 130.343 573.542C130.789 573.725 131.173 573.999 131.493 574.365C131.813 574.731 131.979 575.218 131.991 575.824C131.991 576.362 131.842 576.842 131.545 577.265C131.247 577.689 130.824 578.02 130.275 578.261C129.737 578.501 129.102 578.621 128.37 578.621ZM146.268 566.54V568.136H143.093V578.467H141.136V568.136H137.945V566.54H146.268ZM149.244 567.758C148.889 567.758 148.592 567.638 148.352 567.398C148.112 567.158 147.991 566.86 147.991 566.506C147.991 566.151 148.112 565.854 148.352 565.613C148.592 565.373 148.889 565.253 149.244 565.253C149.587 565.253 149.879 565.373 150.119 565.613C150.36 565.854 150.48 566.151 150.48 566.506C150.48 566.86 150.36 567.158 150.119 567.398C149.879 567.638 149.587 567.758 149.244 567.758ZM150.205 569.011V578.467H148.249V569.011H150.205ZM152.121 573.73C152.121 572.758 152.316 571.906 152.705 571.173C153.105 570.43 153.655 569.858 154.352 569.457C155.05 569.057 155.851 568.857 156.755 568.857C157.899 568.857 158.843 569.131 159.586 569.68C160.341 570.218 160.851 570.99 161.114 571.997H159.003C158.831 571.528 158.557 571.162 158.179 570.899C157.802 570.636 157.327 570.504 156.755 570.504C155.954 570.504 155.313 570.79 154.833 571.362C154.364 571.923 154.129 572.712 154.129 573.73C154.129 574.749 154.364 575.544 154.833 576.116C155.313 576.688 155.954 576.974 156.755 576.974C157.888 576.974 158.637 576.476 159.003 575.481H161.114C160.839 576.442 160.324 577.208 159.569 577.78C158.814 578.341 157.876 578.621 156.755 578.621C155.851 578.621 155.05 578.421 154.352 578.02C153.655 577.609 153.105 577.037 152.705 576.304C152.316 575.561 152.121 574.703 152.121 573.73ZM166.804 573.747L171.163 578.467H168.52L165.02 574.4V578.467H163.063V565.768H165.02V573.147L168.452 569.011H171.163L166.804 573.747ZM181.232 573.507C181.232 573.862 181.209 574.182 181.163 574.468H173.938C173.996 575.223 174.276 575.83 174.779 576.287C175.283 576.745 175.9 576.974 176.633 576.974C177.685 576.974 178.429 576.533 178.863 575.652H180.974C180.688 576.522 180.168 577.237 179.413 577.797C178.669 578.347 177.742 578.621 176.633 578.621C175.729 578.621 174.916 578.421 174.196 578.02C173.486 577.609 172.926 577.037 172.514 576.304C172.114 575.561 171.913 574.703 171.913 573.73C171.913 572.758 172.108 571.906 172.497 571.173C172.897 570.43 173.452 569.858 174.161 569.457C174.882 569.057 175.706 568.857 176.633 568.857C177.525 568.857 178.32 569.051 179.018 569.44C179.716 569.829 180.259 570.378 180.648 571.088C181.037 571.785 181.232 572.592 181.232 573.507ZM179.189 572.889C179.178 572.169 178.921 571.591 178.417 571.156C177.914 570.721 177.29 570.504 176.547 570.504C175.872 570.504 175.294 570.721 174.814 571.156C174.333 571.579 174.047 572.157 173.955 572.889H179.189ZM185.439 570.607V575.841C185.439 576.196 185.519 576.453 185.679 576.613C185.851 576.762 186.137 576.836 186.538 576.836H187.739V578.467H186.194C185.313 578.467 184.638 578.261 184.169 577.849C183.7 577.437 183.466 576.768 183.466 575.841V570.607H182.35V569.011H183.466V566.66H185.439V569.011H187.739V570.607H185.439Z" fill="white" fill-opacity="0.75"/>
<rect x="72.5705" y="520.242" width="26.9669" height="25.7411" rx="9.80615" fill="#87FFE9"/>
<path d="M242.092 566.54V578.467H240.136V570.298L236.497 578.467H235.142L231.486 570.298V578.467H229.53V566.54H231.641L235.828 575.893L239.998 566.54H242.092ZM253.226 569.011V578.467H251.27V577.351C250.961 577.74 250.555 578.049 250.052 578.278C249.56 578.495 249.033 578.604 248.473 578.604C247.729 578.604 247.06 578.45 246.465 578.141C245.882 577.832 245.418 577.374 245.075 576.768C244.743 576.161 244.577 575.429 244.577 574.571V569.011H246.516V574.279C246.516 575.126 246.728 575.778 247.151 576.236C247.575 576.682 248.152 576.905 248.885 576.905C249.617 576.905 250.195 576.682 250.618 576.236C251.053 575.778 251.27 575.126 251.27 574.279V569.011H253.226ZM259.24 578.621C258.496 578.621 257.827 578.49 257.232 578.226C256.648 577.952 256.185 577.586 255.842 577.128C255.499 576.659 255.316 576.139 255.293 575.567H257.318C257.352 575.967 257.541 576.304 257.884 576.579C258.239 576.842 258.679 576.974 259.205 576.974C259.755 576.974 260.178 576.871 260.475 576.665C260.784 576.447 260.939 576.173 260.939 575.841C260.939 575.486 260.767 575.223 260.424 575.052C260.092 574.88 259.56 574.691 258.828 574.485C258.119 574.291 257.541 574.102 257.095 573.919C256.648 573.736 256.259 573.456 255.928 573.078C255.607 572.701 255.447 572.203 255.447 571.585C255.447 571.082 255.596 570.624 255.893 570.212C256.191 569.789 256.614 569.457 257.163 569.217C257.724 568.977 258.365 568.857 259.085 568.857C260.161 568.857 261.024 569.131 261.677 569.68C262.34 570.218 262.695 570.956 262.741 571.894H260.784C260.75 571.471 260.578 571.133 260.269 570.882C259.96 570.63 259.543 570.504 259.017 570.504C258.502 570.504 258.107 570.601 257.833 570.796C257.558 570.99 257.421 571.248 257.421 571.568C257.421 571.82 257.512 572.031 257.695 572.203C257.878 572.375 258.101 572.512 258.365 572.615C258.628 572.706 259.017 572.827 259.531 572.975C260.218 573.158 260.778 573.347 261.213 573.542C261.659 573.725 262.043 573.999 262.363 574.365C262.683 574.731 262.849 575.218 262.861 575.824C262.861 576.362 262.712 576.842 262.414 577.265C262.117 577.689 261.694 578.02 261.145 578.261C260.607 578.501 259.972 578.621 259.24 578.621ZM265.97 567.758C265.615 567.758 265.318 567.638 265.077 567.398C264.837 567.158 264.717 566.86 264.717 566.506C264.717 566.151 264.837 565.854 265.077 565.613C265.318 565.373 265.615 565.253 265.97 565.253C266.313 565.253 266.605 565.373 266.845 565.613C267.085 565.854 267.205 566.151 267.205 566.506C267.205 566.86 267.085 567.158 266.845 567.398C266.605 567.638 266.313 567.758 265.97 567.758ZM266.931 569.011V578.467H264.974V569.011H266.931ZM268.847 573.73C268.847 572.758 269.042 571.906 269.431 571.173C269.831 570.43 270.38 569.858 271.078 569.457C271.776 569.057 272.577 568.857 273.481 568.857C274.625 568.857 275.568 569.131 276.312 569.68C277.067 570.218 277.576 570.99 277.839 571.997H275.729C275.557 571.528 275.282 571.162 274.905 570.899C274.527 570.636 274.053 570.504 273.481 570.504C272.68 570.504 272.039 570.79 271.559 571.362C271.09 571.923 270.855 572.712 270.855 573.73C270.855 574.749 271.09 575.544 271.559 576.116C272.039 576.688 272.68 576.974 273.481 576.974C274.613 576.974 275.363 576.476 275.729 575.481H277.839C277.565 576.442 277.05 577.208 276.295 577.78C275.54 578.341 274.602 578.621 273.481 578.621C272.577 578.621 271.776 578.421 271.078 578.02C270.38 577.609 269.831 577.037 269.431 576.304C269.042 575.561 268.847 574.703 268.847 573.73ZM291.952 566.54V568.136H288.777V578.467H286.821V568.136H283.629V566.54H291.952ZM294.929 567.758C294.574 567.758 294.276 567.638 294.036 567.398C293.796 567.158 293.676 566.86 293.676 566.506C293.676 566.151 293.796 565.854 294.036 565.613C294.276 565.373 294.574 565.253 294.929 565.253C295.272 565.253 295.564 565.373 295.804 565.613C296.044 565.854 296.164 566.151 296.164 566.506C296.164 566.86 296.044 567.158 295.804 567.398C295.564 567.638 295.272 567.758 294.929 567.758ZM295.89 569.011V578.467H293.933V569.011H295.89ZM297.806 573.73C297.806 572.758 298 571.906 298.389 571.173C298.79 570.43 299.339 569.858 300.037 569.457C300.735 569.057 301.536 568.857 302.439 568.857C303.583 568.857 304.527 569.131 305.271 569.68C306.026 570.218 306.535 570.99 306.798 571.997H304.687C304.516 571.528 304.241 571.162 303.864 570.899C303.486 570.636 303.011 570.504 302.439 570.504C301.639 570.504 300.998 570.79 300.517 571.362C300.048 571.923 299.814 572.712 299.814 573.73C299.814 574.749 300.048 575.544 300.517 576.116C300.998 576.688 301.639 576.974 302.439 576.974C303.572 576.974 304.321 576.476 304.687 575.481H306.798C306.524 576.442 306.009 577.208 305.254 577.78C304.499 578.341 303.561 578.621 302.439 578.621C301.536 578.621 300.735 578.421 300.037 578.02C299.339 577.609 298.79 577.037 298.389 576.304C298 575.561 297.806 574.703 297.806 573.73ZM312.489 573.747L316.848 578.467H314.205L310.704 574.4V578.467H308.748V565.768H310.704V573.147L314.136 569.011H316.848L312.489 573.747ZM326.916 573.507C326.916 573.862 326.893 574.182 326.847 574.468H319.623C319.68 575.223 319.96 575.83 320.464 576.287C320.967 576.745 321.585 576.974 322.317 576.974C323.37 576.974 324.113 576.533 324.548 575.652H326.659C326.373 576.522 325.852 577.237 325.097 577.797C324.353 578.347 323.427 578.621 322.317 578.621C321.413 578.621 320.601 578.421 319.88 578.02C319.171 577.609 318.61 577.037 318.198 576.304C317.798 575.561 317.598 574.703 317.598 573.73C317.598 572.758 317.792 571.906 318.181 571.173C318.582 570.43 319.137 569.858 319.846 569.457C320.567 569.057 321.39 568.857 322.317 568.857C323.209 568.857 324.004 569.051 324.702 569.44C325.4 569.829 325.944 570.378 326.333 571.088C326.722 571.785 326.916 572.592 326.916 573.507ZM324.874 572.889C324.863 572.169 324.605 571.591 324.102 571.156C323.598 570.721 322.975 570.504 322.231 570.504C321.556 570.504 320.978 570.721 320.498 571.156C320.017 571.579 319.731 572.157 319.64 572.889H324.874ZM331.124 570.607V575.841C331.124 576.196 331.204 576.453 331.364 576.613C331.536 576.762 331.822 576.836 332.222 576.836H333.423V578.467H331.879C330.998 578.467 330.323 578.261 329.854 577.849C329.385 577.437 329.15 576.768 329.15 575.841V570.607H328.035V569.011H329.15V566.66H331.124V569.011H333.423V570.607H331.124Z" fill="white" fill-opacity="0.75"/>
<rect x="228.243" y="520.242" width="26.9669" height="25.7411" rx="9.80615" fill="#13B497"/>
<path d="M376.286 566.54V568.136H371.224V571.654H375.171V573.25H371.224V578.467H369.268V566.54H376.286ZM382.201 578.621C381.309 578.621 380.502 578.421 379.781 578.02C379.06 577.609 378.494 577.037 378.082 576.304C377.67 575.561 377.465 574.703 377.465 573.73C377.465 572.769 377.676 571.917 378.099 571.173C378.523 570.43 379.101 569.858 379.833 569.457C380.565 569.057 381.383 568.857 382.287 568.857C383.191 568.857 384.009 569.057 384.741 569.457C385.473 569.858 386.051 570.43 386.474 571.173C386.897 571.917 387.109 572.769 387.109 573.73C387.109 574.691 386.892 575.544 386.457 576.287C386.022 577.031 385.427 577.609 384.672 578.02C383.928 578.421 383.105 578.621 382.201 578.621ZM382.201 576.922C382.704 576.922 383.173 576.802 383.608 576.562C384.054 576.322 384.415 575.961 384.689 575.481C384.964 575 385.101 574.417 385.101 573.73C385.101 573.044 384.97 572.466 384.706 571.997C384.443 571.517 384.094 571.156 383.66 570.916C383.225 570.676 382.756 570.556 382.252 570.556C381.749 570.556 381.28 570.676 380.845 570.916C380.422 571.156 380.084 571.517 379.833 571.997C379.581 572.466 379.455 573.044 379.455 573.73C379.455 574.749 379.713 575.538 380.227 576.098C380.754 576.648 381.412 576.922 382.201 576.922ZM393.144 578.621C392.252 578.621 391.445 578.421 390.725 578.02C390.004 577.609 389.438 577.037 389.026 576.304C388.614 575.561 388.408 574.703 388.408 573.73C388.408 572.769 388.62 571.917 389.043 571.173C389.466 570.43 390.044 569.858 390.776 569.457C391.508 569.057 392.326 568.857 393.23 568.857C394.134 568.857 394.952 569.057 395.684 569.457C396.416 569.858 396.994 570.43 397.417 571.173C397.841 571.917 398.052 572.769 398.052 573.73C398.052 574.691 397.835 575.544 397.4 576.287C396.965 577.031 396.37 577.609 395.615 578.02C394.872 578.421 394.048 578.621 393.144 578.621ZM393.144 576.922C393.648 576.922 394.117 576.802 394.551 576.562C394.998 576.322 395.358 575.961 395.633 575.481C395.907 575 396.044 574.417 396.044 573.73C396.044 573.044 395.913 572.466 395.65 571.997C395.387 571.517 395.038 571.156 394.603 570.916C394.168 570.676 393.699 570.556 393.196 570.556C392.692 570.556 392.223 570.676 391.789 570.916C391.365 571.156 391.028 571.517 390.776 571.997C390.524 572.466 390.399 573.044 390.399 573.73C390.399 574.749 390.656 575.538 391.171 576.098C391.697 576.648 392.355 576.922 393.144 576.922ZM402.269 570.607V575.841C402.269 576.196 402.349 576.453 402.509 576.613C402.68 576.762 402.966 576.836 403.367 576.836H404.568V578.467H403.024C402.143 578.467 401.468 578.261 400.999 577.849C400.53 577.437 400.295 576.768 400.295 575.841V570.607H399.18V569.011H400.295V566.66H402.269V569.011H404.568V570.607H402.269ZM408.327 570.418C408.659 569.961 409.111 569.589 409.683 569.303C410.267 569.005 410.913 568.857 411.622 568.857C412.458 568.857 413.213 569.057 413.888 569.457C414.563 569.858 415.095 570.43 415.484 571.173C415.873 571.906 416.067 572.746 416.067 573.696C416.067 574.646 415.873 575.498 415.484 576.253C415.095 576.997 414.557 577.58 413.87 578.003C413.195 578.415 412.446 578.621 411.622 578.621C410.89 578.621 410.238 578.478 409.666 578.192C409.105 577.906 408.659 577.54 408.327 577.094V578.467H406.371V565.768H408.327V570.418ZM414.076 573.696C414.076 573.044 413.939 572.483 413.664 572.014C413.401 571.534 413.047 571.173 412.601 570.933C412.166 570.681 411.697 570.556 411.193 570.556C410.701 570.556 410.232 570.681 409.786 570.933C409.351 571.185 408.997 571.551 408.722 572.031C408.459 572.512 408.327 573.078 408.327 573.73C408.327 574.382 408.459 574.954 408.722 575.446C408.997 575.927 409.351 576.293 409.786 576.545C410.232 576.796 410.701 576.922 411.193 576.922C411.697 576.922 412.166 576.796 412.601 576.545C413.047 576.282 413.401 575.904 413.664 575.412C413.939 574.92 414.076 574.348 414.076 573.696ZM417.349 573.696C417.349 572.746 417.544 571.906 417.933 571.173C418.333 570.441 418.871 569.875 419.546 569.474C420.233 569.063 420.988 568.857 421.811 568.857C422.555 568.857 423.201 569.005 423.75 569.303C424.311 569.589 424.757 569.949 425.089 570.384V569.011H427.062V578.467H425.089V577.059C424.757 577.506 424.305 577.877 423.733 578.175C423.161 578.472 422.509 578.621 421.777 578.621C420.965 578.621 420.221 578.415 419.546 578.003C418.871 577.58 418.333 576.997 417.933 576.253C417.544 575.498 417.349 574.646 417.349 573.696ZM425.089 573.73C425.089 573.078 424.952 572.512 424.677 572.031C424.414 571.551 424.065 571.185 423.63 570.933C423.196 570.681 422.727 570.556 422.223 570.556C421.72 570.556 421.251 570.681 420.816 570.933C420.381 571.173 420.027 571.534 419.752 572.014C419.489 572.483 419.357 573.044 419.357 573.696C419.357 574.348 419.489 574.92 419.752 575.412C420.027 575.904 420.381 576.282 420.816 576.545C421.262 576.796 421.731 576.922 422.223 576.922C422.727 576.922 423.196 576.796 423.63 576.545C424.065 576.293 424.414 575.927 424.677 575.446C424.952 574.954 425.089 574.382 425.089 573.73ZM431.588 565.768V578.467H429.632V565.768H431.588ZM436.113 565.768V578.467H434.157V565.768H436.113ZM450.845 566.54V568.136H447.67V578.467H445.714V568.136H442.522V566.54H450.845ZM453.821 567.758C453.467 567.758 453.169 567.638 452.929 567.398C452.689 567.158 452.568 566.86 452.568 566.506C452.568 566.151 452.689 565.854 452.929 565.613C453.169 565.373 453.467 565.253 453.821 565.253C454.164 565.253 454.456 565.373 454.696 565.613C454.937 565.854 455.057 566.151 455.057 566.506C455.057 566.86 454.937 567.158 454.696 567.398C454.456 567.638 454.164 567.758 453.821 567.758ZM454.782 569.011V578.467H452.826V569.011H454.782ZM456.699 573.73C456.699 572.758 456.893 571.906 457.282 571.173C457.682 570.43 458.232 569.858 458.929 569.457C459.627 569.057 460.428 568.857 461.332 568.857C462.476 568.857 463.42 569.131 464.163 569.68C464.919 570.218 465.428 570.99 465.691 571.997H463.58C463.408 571.528 463.134 571.162 462.756 570.899C462.379 570.636 461.904 570.504 461.332 570.504C460.531 570.504 459.89 570.79 459.41 571.362C458.941 571.923 458.706 572.712 458.706 573.73C458.706 574.749 458.941 575.544 459.41 576.116C459.89 576.688 460.531 576.974 461.332 576.974C462.465 576.974 463.214 576.476 463.58 575.481H465.691C465.416 576.442 464.901 577.208 464.146 577.78C463.391 578.341 462.453 578.621 461.332 578.621C460.428 578.621 459.627 578.421 458.929 578.02C458.232 577.609 457.682 577.037 457.282 576.304C456.893 575.561 456.699 574.703 456.699 573.73ZM471.381 573.747L475.74 578.467H473.098L469.597 574.4V578.467H467.64V565.768H469.597V573.147L473.029 569.011H475.74L471.381 573.747ZM485.809 573.507C485.809 573.862 485.786 574.182 485.74 574.468H478.515C478.573 575.223 478.853 575.83 479.356 576.287C479.86 576.745 480.477 576.974 481.21 576.974C482.262 576.974 483.006 576.533 483.441 575.652H485.551C485.265 576.522 484.745 577.237 483.99 577.797C483.246 578.347 482.319 578.621 481.21 578.621C480.306 578.621 479.494 578.421 478.773 578.02C478.063 577.609 477.503 577.037 477.091 576.304C476.691 575.561 476.49 574.703 476.49 573.73C476.49 572.758 476.685 571.906 477.074 571.173C477.474 570.43 478.029 569.858 478.738 569.457C479.459 569.057 480.283 568.857 481.21 568.857C482.102 568.857 482.897 569.051 483.595 569.44C484.293 569.829 484.836 570.378 485.225 571.088C485.614 571.785 485.809 572.592 485.809 573.507ZM483.767 572.889C483.755 572.169 483.498 571.591 482.994 571.156C482.491 570.721 481.867 570.504 481.124 570.504C480.449 570.504 479.871 570.721 479.391 571.156C478.91 571.579 478.624 572.157 478.533 572.889H483.767ZM490.016 570.607V575.841C490.016 576.196 490.096 576.453 490.257 576.613C490.428 576.762 490.714 576.836 491.115 576.836H492.316V578.467H490.771C489.89 578.467 489.215 578.261 488.746 577.849C488.277 577.437 488.043 576.768 488.043 575.841V570.607H486.927V569.011H488.043V566.66H490.016V569.011H492.316V570.607H490.016Z" fill="white" fill-opacity="0.75"/>
<rect x="367.981" y="520.242" width="26.9669" height="25.7411" rx="9.80615" fill="#0B6050"/>
<path d="M409.855 364.452C410.905 388.119 404.415 411.507 391.319 431.248C378.223 450.989 359.198 466.062 336.985 474.295L315.604 416.61C325.6 412.905 334.161 406.122 340.054 397.239C345.947 388.356 348.868 377.831 348.395 367.181L409.855 364.452Z" fill="#0B6050" stroke="#272E35" stroke-width="9.80615"/>
<path d="M339.516 473.321C315.385 482.938 288.658 483.855 263.924 475.916C239.19 467.976 217.99 451.676 203.964 429.811C189.937 407.946 183.957 381.881 187.052 356.089C190.146 330.297 202.121 306.386 220.922 288.46L263.375 332.984C254.915 341.051 249.526 351.811 248.134 363.417C246.741 375.024 249.432 386.753 255.744 396.592C262.056 406.431 271.596 413.767 282.726 417.339C293.857 420.912 305.884 420.499 316.743 416.172L339.516 473.321Z" fill="#87FFE9" stroke="#272E35" stroke-width="9.80615"/>
<path d="M219.614 289.729C235.017 274.555 254.487 264.171 275.669 259.833C296.85 255.495 318.835 257.389 338.963 265.286C359.09 273.183 376.498 286.743 389.079 304.327C401.66 321.911 408.875 342.764 409.851 364.364L348.394 367.141C347.955 357.421 344.708 348.037 339.046 340.125C333.385 332.212 325.551 326.11 316.494 322.556C307.437 319.003 297.543 318.15 288.012 320.103C278.48 322.055 269.718 326.727 262.787 333.555L219.614 289.729Z" fill="#13B497" stroke="#272E35" stroke-width="9.80615"/>
<path d="M306.692 280.604L347.755 233.412L392.496 233.412" stroke="#13B497" stroke-width="2.45154"/>
<path d="M408.485 228.752C408.573 227.384 409.095 226.317 410.051 225.553C411.022 224.788 412.258 224.405 413.758 224.405C414.788 224.405 415.677 224.589 416.428 224.957C417.178 225.325 417.744 225.825 418.127 226.457C418.509 227.09 418.7 227.803 418.7 228.597C418.7 229.509 418.457 230.289 417.972 230.936C417.487 231.583 416.906 232.017 416.229 232.238V232.326C417.097 232.591 417.774 233.076 418.259 233.782C418.744 234.474 418.987 235.364 418.987 236.452C418.987 237.32 418.788 238.092 418.391 238.769C417.994 239.445 417.406 239.982 416.626 240.379C415.847 240.762 414.913 240.953 413.824 240.953C412.235 240.953 410.926 240.549 409.897 239.74C408.882 238.916 408.338 237.739 408.264 236.209H410.691C410.75 236.989 411.051 237.629 411.596 238.129C412.14 238.614 412.875 238.857 413.802 238.857C414.699 238.857 415.391 238.614 415.876 238.129C416.361 237.629 416.604 236.989 416.604 236.209C416.604 235.18 416.273 234.452 415.611 234.025C414.964 233.584 413.964 233.363 412.611 233.363H412.037V231.289H412.633C413.824 231.274 414.729 231.076 415.346 230.693C415.979 230.311 416.295 229.708 416.295 228.884C416.295 228.178 416.067 227.619 415.611 227.207C415.155 226.781 414.508 226.568 413.67 226.568C412.846 226.568 412.206 226.781 411.75 227.207C411.294 227.619 411.022 228.134 410.934 228.752H408.485ZM431.999 226.943H424.608V231.333C424.917 230.921 425.373 230.576 425.976 230.296C426.594 230.017 427.248 229.877 427.939 229.877C429.175 229.877 430.175 230.142 430.94 230.671C431.72 231.201 432.271 231.87 432.595 232.679C432.933 233.488 433.102 234.341 433.102 235.239C433.102 236.327 432.889 237.298 432.463 238.151C432.051 238.989 431.426 239.651 430.587 240.137C429.763 240.622 428.748 240.865 427.542 240.865C425.939 240.865 424.652 240.468 423.681 239.673C422.71 238.879 422.129 237.827 421.938 236.518H424.387C424.549 237.21 424.909 237.761 425.468 238.173C426.027 238.57 426.726 238.769 427.564 238.769C428.609 238.769 429.388 238.453 429.903 237.82C430.433 237.188 430.697 236.349 430.697 235.305C430.697 234.246 430.433 233.437 429.903 232.878C429.374 232.304 428.594 232.017 427.564 232.017C426.844 232.017 426.233 232.201 425.733 232.569C425.248 232.922 424.895 233.407 424.674 234.025H422.291V224.736H431.999V226.943ZM435.324 228.664C435.324 227.59 435.632 226.751 436.25 226.148C436.883 225.531 437.692 225.222 438.677 225.222C439.663 225.222 440.464 225.531 441.082 226.148C441.715 226.751 442.031 227.59 442.031 228.664C442.031 229.737 441.715 230.583 441.082 231.201C440.464 231.819 439.663 232.128 438.677 232.128C437.692 232.128 436.883 231.819 436.25 231.201C435.632 230.583 435.324 229.737 435.324 228.664ZM448.782 225.508L439.979 240.865H437.508L446.311 225.508H448.782ZM438.677 226.744C437.751 226.744 437.287 227.384 437.287 228.664C437.287 229.958 437.751 230.605 438.677 230.605C439.119 230.605 439.457 230.451 439.692 230.142C439.942 229.818 440.067 229.325 440.067 228.664C440.067 227.384 439.604 226.744 438.677 226.744ZM444.304 237.688C444.304 236.614 444.612 235.775 445.23 235.172C445.863 234.555 446.672 234.246 447.657 234.246C448.628 234.246 449.422 234.555 450.04 235.172C450.673 235.775 450.989 236.614 450.989 237.688C450.989 238.761 450.673 239.607 450.04 240.225C449.422 240.843 448.628 241.152 447.657 241.152C446.672 241.152 445.863 240.843 445.23 240.225C444.612 239.607 444.304 238.761 444.304 237.688ZM447.635 235.768C446.708 235.768 446.245 236.408 446.245 237.688C446.245 238.967 446.708 239.607 447.635 239.607C448.562 239.607 449.025 238.967 449.025 237.688C449.025 236.408 448.562 235.768 447.635 235.768Z" fill="white"/>
<path d="M227.631 400.117L187.794 439.955H133.246" stroke="#87FFE9" stroke-width="2.45154"/>
<path d="M87.9421 431.645H80.5507V436.036C80.8596 435.624 81.3156 435.279 81.9187 434.999C82.5365 434.72 83.191 434.58 83.8824 434.58C85.1179 434.58 86.1182 434.845 86.883 435.374C87.6626 435.904 88.2142 436.573 88.5378 437.382C88.8761 438.191 89.0453 439.044 89.0453 439.941C89.0453 441.03 88.832 442.001 88.4054 442.854C87.9936 443.692 87.3684 444.354 86.53 444.84C85.7063 445.325 84.6914 445.568 83.4852 445.568C81.8819 445.568 80.5948 445.17 79.624 444.376C78.6532 443.582 78.0722 442.53 77.881 441.221H80.3301C80.4919 441.912 80.8523 442.464 81.4112 442.876C81.9702 443.273 82.6688 443.472 83.5073 443.472C84.5516 443.472 85.3312 443.155 85.846 442.523C86.3756 441.89 86.6403 441.052 86.6403 440.008C86.6403 438.948 86.3756 438.139 85.846 437.581C85.3165 437.007 84.5369 436.72 83.5073 436.72C82.7865 436.72 82.1761 436.904 81.676 437.272C81.1906 437.625 80.8375 438.11 80.6169 438.728H78.234V429.439H87.9421V431.645ZM102.034 431.645H94.6423V436.036C94.9512 435.624 95.4071 435.279 96.0102 434.999C96.628 434.72 97.2826 434.58 97.9739 434.58C99.2095 434.58 100.21 434.845 100.975 435.374C101.754 435.904 102.306 436.573 102.629 437.382C102.968 438.191 103.137 439.044 103.137 439.941C103.137 441.03 102.924 442.001 102.497 442.854C102.085 443.692 101.46 444.354 100.622 444.84C99.7978 445.325 98.7829 445.568 97.5767 445.568C95.9734 445.568 94.6864 445.17 93.7156 444.376C92.7448 443.582 92.1638 442.53 91.9725 441.221H94.4216C94.5834 441.912 94.9438 442.464 95.5027 442.876C96.0617 443.273 96.7604 443.472 97.5988 443.472C98.6432 443.472 99.4228 443.155 99.9376 442.523C100.467 441.89 100.732 441.052 100.732 440.008C100.732 438.948 100.467 438.139 99.9376 437.581C99.408 437.007 98.6285 436.72 97.5988 436.72C96.8781 436.72 96.2676 436.904 95.7675 437.272C95.2821 437.625 94.9291 438.11 94.7085 438.728H92.3256V429.439H102.034V431.645ZM105.358 433.366C105.358 432.293 105.667 431.454 106.285 430.851C106.917 430.233 107.726 429.924 108.712 429.924C109.697 429.924 110.499 430.233 111.117 430.851C111.749 431.454 112.065 432.293 112.065 433.366C112.065 434.44 111.749 435.286 111.117 435.904C110.499 436.521 109.697 436.83 108.712 436.83C107.726 436.83 106.917 436.521 106.285 435.904C105.667 435.286 105.358 434.44 105.358 433.366ZM118.817 430.211L110.014 445.568H107.542L116.346 430.211H118.817ZM108.712 431.447C107.785 431.447 107.322 432.087 107.322 433.366C107.322 434.661 107.785 435.308 108.712 435.308C109.153 435.308 109.491 435.153 109.727 434.845C109.977 434.521 110.102 434.028 110.102 433.366C110.102 432.087 109.638 431.447 108.712 431.447ZM114.338 442.39C114.338 441.317 114.647 440.478 115.265 439.875C115.897 439.257 116.706 438.948 117.692 438.948C118.663 438.948 119.457 439.257 120.075 439.875C120.707 440.478 121.023 441.317 121.023 442.39C121.023 443.464 120.707 444.31 120.075 444.928C119.457 445.546 118.663 445.854 117.692 445.854C116.706 445.854 115.897 445.546 115.265 444.928C114.647 444.31 114.338 443.464 114.338 442.39ZM117.67 440.471C116.743 440.471 116.28 441.111 116.28 442.39C116.28 443.67 116.743 444.31 117.67 444.31C118.596 444.31 119.06 443.67 119.06 442.39C119.06 441.111 118.596 440.471 117.67 440.471Z" fill="white"/>
<path d="M374.109 421.569H429.269" stroke="#0B6050" stroke-width="2.45154"/>
<path d="M452.94 411.553V409.259H457.529V425.343H454.992V411.553H452.94ZM460.984 417.092C460.984 414.547 461.411 412.561 462.264 411.134C463.132 409.693 464.618 408.972 466.721 408.972C468.824 408.972 470.303 409.693 471.156 411.134C472.024 412.561 472.458 414.547 472.458 417.092C472.458 419.666 472.024 421.681 471.156 423.137C470.303 424.579 468.824 425.299 466.721 425.299C464.618 425.299 463.132 424.579 462.264 423.137C461.411 421.681 460.984 419.666 460.984 417.092ZM469.986 417.092C469.986 415.9 469.906 414.892 469.744 414.069C469.597 413.245 469.288 412.576 468.817 412.061C468.346 411.531 467.648 411.267 466.721 411.267C465.794 411.267 465.096 411.531 464.625 412.061C464.154 412.576 463.838 413.245 463.676 414.069C463.529 414.892 463.456 415.9 463.456 417.092C463.456 418.327 463.529 419.364 463.676 420.203C463.823 421.041 464.132 421.718 464.603 422.232C465.088 422.747 465.794 423.005 466.721 423.005C467.648 423.005 468.346 422.747 468.817 422.232C469.302 421.718 469.619 421.041 469.766 420.203C469.913 419.364 469.986 418.327 469.986 417.092ZM474.722 413.142C474.722 412.068 475.031 411.23 475.649 410.627C476.281 410.009 477.09 409.7 478.076 409.7C479.061 409.7 479.863 410.009 480.481 410.627C481.113 411.23 481.429 412.068 481.429 413.142C481.429 414.216 481.113 415.062 480.481 415.679C479.863 416.297 479.061 416.606 478.076 416.606C477.09 416.606 476.281 416.297 475.649 415.679C475.031 415.062 474.722 414.216 474.722 413.142ZM488.181 409.987L479.377 425.343H476.906L485.71 409.987H488.181ZM478.076 411.223C477.149 411.223 476.686 411.862 476.686 413.142C476.686 414.436 477.149 415.084 478.076 415.084C478.517 415.084 478.855 414.929 479.091 414.62C479.341 414.297 479.466 413.804 479.466 413.142C479.466 411.862 479.002 411.223 478.076 411.223ZM483.702 422.166C483.702 421.092 484.011 420.254 484.629 419.651C485.261 419.033 486.07 418.724 487.056 418.724C488.026 418.724 488.821 419.033 489.438 419.651C490.071 420.254 490.387 421.092 490.387 422.166C490.387 423.24 490.071 424.086 489.438 424.704C488.821 425.321 488.026 425.63 487.056 425.63C486.07 425.63 485.261 425.321 484.629 424.704C484.011 424.086 483.702 423.24 483.702 422.166ZM487.034 420.247C486.107 420.247 485.644 420.886 485.644 422.166C485.644 423.446 486.107 424.086 487.034 424.086C487.96 424.086 488.424 423.446 488.424 422.166C488.424 420.886 487.96 420.247 487.034 420.247Z" fill="white"/>
<g filter="url(#filter1_d_6_631)">
<rect x="65.2159" y="114.513" width="807.781" height="61.2884" rx="17.1608" fill="#20262D"/>
</g>
<path d="M106.078 139.973V141.569H102.903V151.9H100.947V141.569H97.7552V139.973H106.078ZM116.623 142.444V151.9H114.666V150.784C114.357 151.173 113.951 151.482 113.448 151.711C112.956 151.928 112.43 152.037 111.869 152.037C111.125 152.037 110.456 151.882 109.861 151.573C109.278 151.265 108.814 150.807 108.471 150.201C108.139 149.594 107.974 148.862 107.974 148.004V142.444H109.913V147.712C109.913 148.559 110.124 149.211 110.548 149.669C110.971 150.115 111.549 150.338 112.281 150.338C113.013 150.338 113.591 150.115 114.014 149.669C114.449 149.211 114.666 148.559 114.666 147.712V142.444H116.623ZM127.87 146.94C127.87 147.295 127.847 147.615 127.801 147.901H120.577C120.634 148.656 120.914 149.262 121.418 149.72C121.921 150.178 122.539 150.407 123.271 150.407C124.323 150.407 125.067 149.966 125.502 149.085H127.613C127.327 149.955 126.806 150.67 126.051 151.23C125.307 151.779 124.381 152.054 123.271 152.054C122.367 152.054 121.555 151.854 120.834 151.453C120.125 151.041 119.564 150.469 119.152 149.737C118.752 148.994 118.552 148.136 118.552 147.163C118.552 146.191 118.746 145.338 119.135 144.606C119.536 143.863 120.09 143.291 120.8 142.89C121.521 142.49 122.344 142.29 123.271 142.29C124.163 142.29 124.958 142.484 125.656 142.873C126.354 143.262 126.898 143.811 127.287 144.52C127.676 145.218 127.87 146.025 127.87 146.94ZM125.828 146.322C125.816 145.602 125.559 145.024 125.056 144.589C124.552 144.154 123.929 143.937 123.185 143.937C122.51 143.937 121.932 144.154 121.452 144.589C120.971 145.012 120.685 145.59 120.594 146.322H125.828ZM133.227 152.054C132.484 152.054 131.814 151.922 131.22 151.659C130.636 151.385 130.173 151.019 129.83 150.561C129.486 150.092 129.303 149.571 129.28 148.999H131.305C131.34 149.4 131.528 149.737 131.872 150.012C132.226 150.275 132.667 150.407 133.193 150.407C133.742 150.407 134.166 150.304 134.463 150.098C134.772 149.88 134.926 149.606 134.926 149.274C134.926 148.919 134.755 148.656 134.411 148.485C134.08 148.313 133.548 148.124 132.816 147.918C132.106 147.724 131.528 147.535 131.082 147.352C130.636 147.169 130.247 146.889 129.915 146.511C129.595 146.134 129.435 145.636 129.435 145.018C129.435 144.515 129.584 144.057 129.881 143.645C130.178 143.222 130.602 142.89 131.151 142.65C131.712 142.41 132.352 142.29 133.073 142.29C134.148 142.29 135.012 142.564 135.664 143.113C136.328 143.651 136.682 144.389 136.728 145.327H134.772C134.738 144.904 134.566 144.566 134.257 144.314C133.948 144.063 133.531 143.937 133.004 143.937C132.489 143.937 132.095 144.034 131.82 144.229C131.546 144.423 131.408 144.681 131.408 145.001C131.408 145.253 131.5 145.464 131.683 145.636C131.866 145.807 132.089 145.945 132.352 146.048C132.615 146.139 133.004 146.259 133.519 146.408C134.206 146.591 134.766 146.78 135.201 146.974C135.647 147.157 136.03 147.432 136.351 147.798C136.671 148.164 136.837 148.65 136.848 149.257C136.848 149.794 136.7 150.275 136.402 150.698C136.105 151.122 135.681 151.453 135.132 151.694C134.595 151.934 133.96 152.054 133.227 152.054ZM138.31 147.129C138.31 146.179 138.505 145.338 138.894 144.606C139.294 143.874 139.832 143.308 140.507 142.907C141.193 142.495 141.954 142.29 142.789 142.29C143.407 142.29 144.013 142.427 144.608 142.701C145.214 142.965 145.695 143.319 146.05 143.765V139.201H148.023V151.9H146.05V150.475C145.729 150.933 145.283 151.31 144.711 151.608C144.15 151.905 143.504 152.054 142.772 152.054C141.948 152.054 141.193 151.848 140.507 151.436C139.832 151.013 139.294 150.429 138.894 149.686C138.505 148.931 138.31 148.078 138.31 147.129ZM146.05 147.163C146.05 146.511 145.912 145.945 145.638 145.464C145.375 144.984 145.026 144.618 144.591 144.366C144.156 144.114 143.687 143.988 143.184 143.988C142.68 143.988 142.211 144.114 141.777 144.366C141.342 144.606 140.987 144.967 140.713 145.447C140.449 145.916 140.318 146.477 140.318 147.129C140.318 147.781 140.449 148.353 140.713 148.845C140.987 149.337 141.342 149.714 141.777 149.978C142.223 150.229 142.692 150.355 143.184 150.355C143.687 150.355 144.156 150.229 144.591 149.978C145.026 149.726 145.375 149.36 145.638 148.879C145.912 148.387 146.05 147.815 146.05 147.163ZM149.94 147.129C149.94 146.179 150.135 145.338 150.524 144.606C150.924 143.874 151.462 143.308 152.137 142.907C152.823 142.495 153.579 142.29 154.402 142.29C155.146 142.29 155.792 142.438 156.341 142.736C156.902 143.022 157.348 143.382 157.68 143.817V142.444H159.653V151.9H157.68V150.492C157.348 150.939 156.896 151.31 156.324 151.608C155.752 151.905 155.1 152.054 154.368 152.054C153.556 152.054 152.812 151.848 152.137 151.436C151.462 151.013 150.924 150.429 150.524 149.686C150.135 148.931 149.94 148.078 149.94 147.129ZM157.68 147.163C157.68 146.511 157.543 145.945 157.268 145.464C157.005 144.984 156.656 144.618 156.221 144.366C155.787 144.114 155.318 143.988 154.814 143.988C154.311 143.988 153.842 144.114 153.407 144.366C152.972 144.606 152.618 144.967 152.343 145.447C152.08 145.916 151.948 146.477 151.948 147.129C151.948 147.781 152.08 148.353 152.343 148.845C152.618 149.337 152.972 149.714 153.407 149.978C153.853 150.229 154.322 150.355 154.814 150.355C155.318 150.355 155.787 150.229 156.221 149.978C156.656 149.726 157.005 149.36 157.268 148.879C157.543 148.387 157.68 147.815 157.68 147.163ZM170.735 142.444L164.934 156.344H162.909L164.831 151.745L161.108 142.444H163.287L165.947 149.651L168.71 142.444H170.735Z" fill="white"/>
<path d="M755.666 149.24C756.764 148.29 757.628 147.512 758.257 146.906C758.898 146.288 759.43 145.647 759.853 144.984C760.276 144.32 760.488 143.657 760.488 142.993C760.488 142.307 760.322 141.769 759.99 141.38C759.67 140.991 759.161 140.797 758.463 140.797C757.788 140.797 757.262 141.014 756.884 141.449C756.518 141.872 756.324 142.444 756.301 143.165H754.413C754.447 141.86 754.836 140.865 755.58 140.179C756.335 139.481 757.29 139.132 758.446 139.132C759.693 139.132 760.665 139.475 761.363 140.162C762.072 140.848 762.427 141.763 762.427 142.907C762.427 143.731 762.215 144.526 761.792 145.293C761.38 146.048 760.883 146.728 760.299 147.335C759.727 147.93 758.995 148.622 758.103 149.411L757.33 150.098H762.77V151.728H754.43V150.304L755.666 149.24ZM764.232 141.174V139.389H767.801V151.9H765.827V141.174H764.232ZM778.554 141.071H772.805V144.486C773.045 144.166 773.4 143.897 773.869 143.68C774.35 143.462 774.859 143.353 775.396 143.353C776.357 143.353 777.135 143.559 777.73 143.971C778.337 144.383 778.766 144.904 779.017 145.533C779.281 146.162 779.412 146.826 779.412 147.524C779.412 148.37 779.246 149.125 778.914 149.789C778.594 150.441 778.108 150.956 777.456 151.333C776.815 151.711 776.026 151.9 775.088 151.9C773.841 151.9 772.84 151.591 772.084 150.973C771.329 150.355 770.877 149.537 770.729 148.519H772.634C772.759 149.057 773.04 149.486 773.474 149.806C773.909 150.115 774.453 150.269 775.105 150.269C775.917 150.269 776.523 150.023 776.924 149.531C777.336 149.039 777.542 148.387 777.542 147.575C777.542 146.751 777.336 146.122 776.924 145.687C776.512 145.241 775.906 145.018 775.105 145.018C774.544 145.018 774.069 145.161 773.68 145.447C773.303 145.722 773.028 146.099 772.857 146.58H771.003V139.355H778.554V141.071ZM783.851 149.549L781.775 154.285H780.505L781.723 149.549H783.851ZM793.369 141.071H787.62V144.486C787.86 144.166 788.215 143.897 788.684 143.68C789.164 143.462 789.673 143.353 790.211 143.353C791.172 143.353 791.95 143.559 792.545 143.971C793.151 144.383 793.58 144.904 793.832 145.533C794.095 146.162 794.227 146.826 794.227 147.524C794.227 148.37 794.061 149.125 793.729 149.789C793.409 150.441 792.922 150.956 792.27 151.333C791.63 151.711 790.84 151.9 789.902 151.9C788.655 151.9 787.654 151.591 786.899 150.973C786.144 150.355 785.692 149.537 785.543 148.519H787.448C787.574 149.057 787.854 149.486 788.289 149.806C788.724 150.115 789.267 150.269 789.919 150.269C790.732 150.269 791.338 150.023 791.738 149.531C792.15 149.039 792.356 148.387 792.356 147.575C792.356 146.751 792.15 146.122 791.738 145.687C791.326 145.241 790.72 145.018 789.919 145.018C789.359 145.018 788.884 145.161 788.495 145.447C788.117 145.722 787.843 146.099 787.671 146.58H785.818V139.355H793.369V141.071ZM797.344 149.24C798.443 148.29 799.306 147.512 799.936 146.906C800.576 146.288 801.108 145.647 801.531 144.984C801.955 144.32 802.166 143.657 802.166 142.993C802.166 142.307 802.001 141.769 801.669 141.38C801.348 140.991 800.839 140.797 800.141 140.797C799.466 140.797 798.94 141.014 798.563 141.449C798.197 141.872 798.002 142.444 797.979 143.165H796.092C796.126 141.86 796.515 140.865 797.258 140.179C798.014 139.481 798.969 139.132 800.124 139.132C801.371 139.132 802.344 139.475 803.042 140.162C803.751 140.848 804.106 141.763 804.106 142.907C804.106 143.731 803.894 144.526 803.471 145.293C803.059 146.048 802.561 146.728 801.978 147.335C801.406 147.93 800.673 148.622 799.781 149.411L799.009 150.098H804.449V151.728H796.109V150.304L797.344 149.24ZM806.133 142.478C806.202 141.414 806.608 140.585 807.352 139.99C808.107 139.395 809.068 139.098 810.235 139.098C811.035 139.098 811.728 139.241 812.311 139.527C812.894 139.813 813.335 140.202 813.632 140.694C813.93 141.186 814.079 141.74 814.079 142.358C814.079 143.067 813.89 143.674 813.512 144.177C813.135 144.681 812.683 145.018 812.157 145.19V145.258C812.832 145.464 813.358 145.842 813.735 146.391C814.113 146.929 814.302 147.621 814.302 148.467C814.302 149.142 814.147 149.743 813.838 150.269C813.529 150.796 813.072 151.213 812.465 151.522C811.859 151.819 811.133 151.968 810.286 151.968C809.05 151.968 808.032 151.654 807.231 151.024C806.442 150.384 806.019 149.468 805.962 148.279H807.849C807.895 148.885 808.129 149.383 808.553 149.772C808.976 150.149 809.548 150.338 810.269 150.338C810.967 150.338 811.504 150.149 811.882 149.772C812.26 149.383 812.448 148.885 812.448 148.279C812.448 147.478 812.191 146.911 811.676 146.58C811.173 146.236 810.395 146.065 809.342 146.065H808.896V144.452H809.359C810.286 144.44 810.99 144.286 811.47 143.988C811.962 143.691 812.208 143.222 812.208 142.581C812.208 142.032 812.031 141.597 811.676 141.277C811.321 140.945 810.818 140.779 810.166 140.779C809.525 140.779 809.028 140.945 808.673 141.277C808.318 141.597 808.107 141.998 808.038 142.478H806.133ZM823.028 143.834C823.36 143.399 823.812 143.033 824.384 142.736C824.956 142.438 825.602 142.29 826.323 142.29C827.147 142.29 827.896 142.495 828.571 142.907C829.258 143.308 829.795 143.874 830.184 144.606C830.573 145.338 830.768 146.179 830.768 147.129C830.768 148.078 830.573 148.931 830.184 149.686C829.795 150.429 829.258 151.013 828.571 151.436C827.896 151.848 827.147 152.054 826.323 152.054C825.602 152.054 824.962 151.911 824.401 151.625C823.84 151.328 823.383 150.961 823.028 150.527V156.396H821.072V142.444H823.028V143.834ZM828.777 147.129C828.777 146.477 828.64 145.916 828.365 145.447C828.102 144.967 827.747 144.606 827.301 144.366C826.866 144.114 826.397 143.988 825.894 143.988C825.402 143.988 824.933 144.114 824.487 144.366C824.052 144.618 823.697 144.984 823.423 145.464C823.16 145.945 823.028 146.511 823.028 147.163C823.028 147.815 823.16 148.387 823.423 148.879C823.697 149.36 824.052 149.726 824.487 149.978C824.933 150.229 825.402 150.355 825.894 150.355C826.397 150.355 826.866 150.229 827.301 149.978C827.747 149.714 828.102 149.337 828.365 148.845C828.64 148.353 828.777 147.781 828.777 147.129ZM832.05 147.163C832.05 146.191 832.245 145.338 832.634 144.606C833.034 143.863 833.583 143.291 834.281 142.89C834.979 142.49 835.78 142.29 836.684 142.29C837.828 142.29 838.771 142.564 839.515 143.113C840.27 143.651 840.779 144.423 841.042 145.43H838.932C838.76 144.961 838.485 144.595 838.108 144.332C837.73 144.069 837.256 143.937 836.684 143.937C835.883 143.937 835.242 144.223 834.762 144.795C834.292 145.356 834.058 146.145 834.058 147.163C834.058 148.181 834.292 148.976 834.762 149.549C835.242 150.121 835.883 150.407 836.684 150.407C837.816 150.407 838.566 149.909 838.932 148.914H841.042C840.768 149.875 840.253 150.641 839.498 151.213C838.743 151.774 837.805 152.054 836.684 152.054C835.78 152.054 834.979 151.854 834.281 151.453C833.583 151.041 833.034 150.469 832.634 149.737C832.245 148.994 832.05 148.136 832.05 147.163ZM846.424 152.054C845.681 152.054 845.011 151.922 844.416 151.659C843.833 151.385 843.37 151.019 843.026 150.561C842.683 150.092 842.5 149.571 842.477 148.999H844.502C844.536 149.4 844.725 149.737 845.068 150.012C845.423 150.275 845.864 150.407 846.39 150.407C846.939 150.407 847.362 150.304 847.66 150.098C847.969 149.88 848.123 149.606 848.123 149.274C848.123 148.919 847.951 148.656 847.608 148.485C847.276 148.313 846.744 148.124 846.012 147.918C845.303 147.724 844.725 147.535 844.279 147.352C843.833 147.169 843.444 146.889 843.112 146.511C842.792 146.134 842.632 145.636 842.632 145.018C842.632 144.515 842.78 144.057 843.078 143.645C843.375 143.222 843.799 142.89 844.348 142.65C844.908 142.41 845.549 142.29 846.27 142.29C847.345 142.29 848.209 142.564 848.861 143.113C849.525 143.651 849.879 144.389 849.925 145.327H847.969C847.934 144.904 847.763 144.566 847.454 144.314C847.145 144.063 846.727 143.937 846.201 143.937C845.686 143.937 845.292 144.034 845.017 144.229C844.742 144.423 844.605 144.681 844.605 145.001C844.605 145.253 844.697 145.464 844.88 145.636C845.063 145.807 845.286 145.945 845.549 146.048C845.812 146.139 846.201 146.259 846.716 146.408C847.402 146.591 847.963 146.78 848.398 146.974C848.844 147.157 849.227 147.432 849.547 147.798C849.868 148.164 850.034 148.65 850.045 149.257C850.045 149.794 849.896 150.275 849.599 150.698C849.301 151.122 848.878 151.453 848.329 151.694C847.791 151.934 847.156 152.054 846.424 152.054Z" fill="white"/>
<rect x="531.008" y="522.694" width="341.989" height="1.22577" rx="0.612884" fill="#323940"/>
<rect x="531.008" y="460.18" width="341.989" height="1.22577" rx="0.612884" fill="#323940"/>
<rect x="531.008" y="397.665" width="341.989" height="1.22577" rx="0.612884" fill="#323940"/>
<rect x="531.008" y="335.151" width="341.989" height="1.22577" rx="0.612884" fill="#323940"/>
<rect x="531.008" y="272.637" width="341.989" height="1.22577" rx="0.612884" fill="#323940"/>
<rect x="531.008" y="210.123" width="341.989" height="1.22577" rx="0.612884" fill="#323940"/>
<path d="M539.588 217.478C539.588 214.093 542.332 211.349 545.717 211.349H548.169C551.553 211.349 554.297 214.093 554.297 217.478V523.92H539.588V217.478Z" fill="#3B444D"/>
<path d="M539.588 271.476C539.588 268.092 542.332 265.348 545.717 265.348H548.169C551.553 265.348 554.297 268.092 554.297 271.476V523.919H539.588V271.476Z" fill="#13B497"/>
<path d="M591.07 217.478C591.07 214.093 593.814 211.349 597.199 211.349H599.651C603.036 211.349 605.78 214.093 605.78 217.478V523.92H591.07V217.478Z" fill="#3B444D"/>
<path d="M591.07 323.399C591.07 320.014 593.814 317.27 597.199 317.27H599.651C603.036 317.27 605.78 320.014 605.78 323.399V523.92H591.07V323.399Z" fill="#13B497"/>
<path d="M642.553 217.478C642.553 214.093 645.297 211.349 648.682 211.349H651.133C654.518 211.349 657.262 214.093 657.262 217.478V523.92H642.553V217.478Z" fill="#3B444D"/>
<path d="M642.553 251.746C642.553 248.361 645.297 245.617 648.682 245.617H651.133C654.518 245.617 657.262 248.361 657.262 251.746V523.92H642.553V251.746Z" fill="#13B497"/>
<path d="M694.035 217.478C694.035 214.093 696.779 211.349 700.164 211.349H702.615C706 211.349 708.744 214.093 708.744 217.478V523.92H694.035V217.478Z" fill="#3B444D"/>
<path d="M694.035 376.359C694.035 372.974 696.779 370.23 700.164 370.23H702.615C706 370.23 708.744 372.974 708.744 376.359V523.92H694.035V376.359Z" fill="#13B497"/>
<path d="M745.517 217.478C745.517 214.093 748.261 211.349 751.646 211.349H754.098C757.483 211.349 760.226 214.093 760.226 217.478V523.92H745.517V217.478Z" fill="#3B444D"/>
<path d="M745.517 430.358C745.517 426.973 748.261 424.229 751.646 424.229H754.098C757.483 424.229 760.226 426.973 760.226 430.358V523.92H745.517V430.358Z" fill="#13B497"/>
<path d="M797 217.478C797 214.093 799.744 211.349 803.128 211.349H805.58C808.965 211.349 811.709 214.093 811.709 217.478V523.92H797V217.478Z" fill="#3B444D"/>
<path d="M797 318.206C797 314.821 799.744 312.077 803.128 312.077H805.58C808.965 312.077 811.709 314.821 811.709 318.206V523.919H797V318.206Z" fill="#13B497"/>
<path d="M848.482 217.478C848.482 214.093 851.226 211.349 854.611 211.349H857.062C860.447 211.349 863.191 214.093 863.191 217.478V523.92H848.482V217.478Z" fill="#3B444D"/>
<path d="M848.482 406.474C848.482 403.089 851.226 400.345 854.611 400.345H857.062C860.447 400.345 863.191 403.089 863.191 406.474V523.92H848.482V406.474Z" fill="#13B497"/>
<path d="M547.154 566.329C546.364 566.329 545.655 566.192 545.026 565.917C544.408 565.631 543.922 565.243 543.567 564.751C543.212 564.247 543.029 563.669 543.018 563.017H544.683C544.74 563.578 544.969 564.053 545.369 564.442C545.781 564.819 546.376 565.008 547.154 565.008C547.897 565.008 548.481 564.825 548.904 564.459C549.339 564.081 549.556 563.601 549.556 563.017C549.556 562.56 549.43 562.188 549.179 561.902C548.927 561.616 548.612 561.398 548.235 561.25C547.857 561.101 547.348 560.941 546.708 560.769C545.918 560.563 545.283 560.357 544.803 560.151C544.334 559.946 543.927 559.625 543.584 559.19C543.252 558.744 543.087 558.149 543.087 557.406C543.087 556.754 543.252 556.176 543.584 555.673C543.916 555.169 544.379 554.78 544.974 554.506C545.581 554.231 546.273 554.094 547.051 554.094C548.172 554.094 549.087 554.374 549.796 554.935C550.517 555.495 550.923 556.239 551.015 557.166H549.299C549.242 556.708 549.001 556.307 548.578 555.964C548.155 555.61 547.594 555.432 546.896 555.432C546.244 555.432 545.712 555.604 545.3 555.947C544.888 556.279 544.683 556.748 544.683 557.354C544.683 557.789 544.803 558.144 545.043 558.418C545.295 558.693 545.598 558.904 545.952 559.053C546.319 559.19 546.828 559.351 547.48 559.534C548.269 559.751 548.904 559.968 549.385 560.186C549.865 560.392 550.277 560.718 550.62 561.164C550.963 561.599 551.135 562.194 551.135 562.949C551.135 563.532 550.981 564.081 550.672 564.596C550.363 565.111 549.905 565.529 549.299 565.849C548.692 566.169 547.977 566.329 547.154 566.329Z" fill="white" fill-opacity="0.25"/>
<path d="M605.75 554.334V566.209H604.189V557.354L600.242 566.209H599.143L595.179 557.337V566.209H593.618V554.334H595.299L599.693 564.15L604.086 554.334H605.75Z" fill="white" fill-opacity="0.25"/>
<path d="M656.139 554.248V555.518H652.879V566.209H651.317V555.518H648.039V554.248H656.139Z" fill="white" fill-opacity="0.25"/>
<path d="M712.841 554.248L709.374 566.209H707.624L704.844 556.582L701.961 566.209L700.228 566.226L696.881 554.248H698.546L701.154 564.39L704.037 554.248H705.788L708.533 564.356L711.159 554.248H712.841Z" fill="white" fill-opacity="0.25"/>
<path d="M761.555 554.248V555.518H758.295V566.209H756.733V555.518H753.455V554.248H761.555Z" fill="white" fill-opacity="0.25"/>
<path d="M809.985 554.248V555.518H804.786V559.551H809.007V560.821H804.786V566.209H803.224V554.248H809.985Z" fill="white" fill-opacity="0.25"/>
<path d="M856.047 566.329C855.258 566.329 854.549 566.192 853.919 565.917C853.302 565.631 852.815 565.243 852.461 564.751C852.106 564.247 851.923 563.669 851.912 563.017H853.576C853.633 563.578 853.862 564.053 854.263 564.442C854.674 564.819 855.269 565.008 856.047 565.008C856.791 565.008 857.374 564.825 857.798 564.459C858.232 564.081 858.45 563.601 858.45 563.017C858.45 562.56 858.324 562.188 858.072 561.902C857.821 561.616 857.506 561.398 857.128 561.25C856.751 561.101 856.242 560.941 855.601 560.769C854.812 560.563 854.177 560.357 853.696 560.151C853.227 559.946 852.821 559.625 852.478 559.19C852.146 558.744 851.98 558.149 851.98 557.406C851.98 556.754 852.146 556.176 852.478 555.673C852.81 555.169 853.273 554.78 853.868 554.506C854.474 554.231 855.166 554.094 855.944 554.094C857.065 554.094 857.981 554.374 858.69 554.935C859.411 555.495 859.817 556.239 859.908 557.166H858.192C858.135 556.708 857.895 556.307 857.472 555.964C857.048 555.61 856.488 555.432 855.79 555.432C855.138 555.432 854.606 555.604 854.194 555.947C853.782 556.279 853.576 556.748 853.576 557.354C853.576 557.789 853.696 558.144 853.936 558.418C854.188 558.693 854.491 558.904 854.846 559.053C855.212 559.19 855.721 559.351 856.373 559.534C857.163 559.751 857.798 559.968 858.278 560.186C858.759 560.392 859.171 560.718 859.514 561.164C859.857 561.599 860.029 562.194 860.029 562.949C860.029 563.532 859.874 564.081 859.565 564.596C859.256 565.111 858.799 565.529 858.192 565.849C857.586 566.169 856.871 566.329 856.047 566.329Z" fill="white" fill-opacity="0.25"/>
<path d="M76.1743 69.0211C77.0895 69.1845 77.8659 69.6667 78.5033 70.4675C79.1407 71.2683 79.4594 72.1754 79.4594 73.1887C79.4594 74.0549 79.2305 74.8394 78.7729 75.5422C78.3316 76.2286 77.6861 76.7761 76.8362 77.1847C75.9863 77.5769 74.9976 77.7731 73.8699 77.7731H67.0546V60.7349H73.5512C74.7115 60.7349 75.7085 60.931 76.542 61.3233C77.3755 61.7155 78.0048 62.2467 78.4297 62.9168C78.8546 63.5705 79.0671 64.306 79.0671 65.1231C79.0671 66.1038 78.8056 66.9209 78.2826 67.5747C77.7596 68.2284 77.0568 68.7106 76.1743 69.0211ZM69.8493 67.8934H73.306C74.2212 67.8934 74.9322 67.6891 75.4388 67.2805C75.9618 66.8556 76.2233 66.2508 76.2233 65.4664C76.2233 64.6982 75.9618 64.1017 75.4388 63.6767C74.9322 63.2355 74.2212 63.0148 73.306 63.0148H69.8493V67.8934ZM73.6247 75.4931C74.5726 75.4931 75.3163 75.2643 75.8556 74.8067C76.3949 74.3491 76.6646 73.7117 76.6646 72.8945C76.6646 72.061 76.3786 71.3991 75.8066 70.9088C75.2345 70.4185 74.4746 70.1733 73.5266 70.1733H69.8493V75.4931H73.6247ZM94.8766 70.6881C94.8766 71.1948 94.844 71.6524 94.7786 72.061H84.4576C84.5393 73.1397 84.9398 74.0059 85.6589 74.6596C86.378 75.3134 87.2605 75.6402 88.3065 75.6402C89.8101 75.6402 90.8725 75.011 91.4935 73.7526H94.5089C94.1003 74.9947 93.3567 76.0161 92.278 76.817C91.2157 77.6015 89.8919 77.9937 88.3065 77.9937C87.0154 77.9937 85.855 77.7077 84.8253 77.1357C83.812 76.5473 83.0112 75.7301 82.4228 74.6841C81.8508 73.6218 81.5648 72.396 81.5648 71.0068C81.5648 69.6176 81.8426 68.4 82.3983 67.354C82.9703 66.2917 83.763 65.4745 84.7763 64.9025C85.806 64.3305 86.9827 64.0445 88.3065 64.0445C89.5813 64.0445 90.7172 64.3223 91.7142 64.878C92.7111 65.4337 93.4874 66.2182 94.0431 67.2315C94.5988 68.2284 94.8766 69.3806 94.8766 70.6881ZM91.9593 69.8056C91.943 68.7759 91.5752 67.9506 90.8561 67.3295C90.137 66.7085 89.2463 66.3979 88.1839 66.3979C87.2197 66.3979 86.3943 66.7085 85.7079 67.3295C85.0215 67.9342 84.6129 68.7596 84.4821 69.8056H91.9593ZM102.53 77.9937C101.468 77.9937 100.512 77.8058 99.6617 77.4299C98.8282 77.0376 98.1663 76.5146 97.676 75.8609C97.1857 75.1908 96.9242 74.4472 96.8915 73.63H99.7843C99.8333 74.202 100.103 74.6841 100.593 75.0764C101.1 75.4523 101.729 75.6402 102.481 75.6402C103.265 75.6402 103.87 75.4931 104.295 75.199C104.736 74.8884 104.957 74.4962 104.957 74.0222C104.957 73.5156 104.712 73.1397 104.222 72.8945C103.748 72.6494 102.988 72.3797 101.942 72.0855C100.928 71.8077 100.103 71.538 99.4656 71.2765C98.8282 71.015 98.2725 70.6146 97.7986 70.0752C97.3409 69.5359 97.1121 68.825 97.1121 67.9424C97.1121 67.2233 97.3246 66.5695 97.7495 65.9812C98.1745 65.3765 98.7792 64.9025 99.5637 64.5593C100.365 64.2161 101.28 64.0445 102.309 64.0445C103.846 64.0445 105.08 64.4367 106.011 65.2212C106.959 65.9894 107.466 67.0435 107.531 68.3837H104.736C104.687 67.779 104.442 67.2968 104.001 66.9373C103.56 66.5777 102.963 66.3979 102.211 66.3979C101.476 66.3979 100.912 66.5369 100.52 66.8147C100.128 67.0925 99.9314 67.4603 99.9314 67.9179C99.9314 68.2775 100.062 68.5798 100.324 68.825C100.585 69.0701 100.904 69.2662 101.28 69.4133C101.656 69.5441 102.211 69.7157 102.947 69.9282C103.927 70.1897 104.728 70.4593 105.349 70.7372C105.987 70.9987 106.534 71.3909 106.992 71.9139C107.449 72.4369 107.686 73.1315 107.703 73.9977C107.703 74.7659 107.49 75.4523 107.065 76.057C106.64 76.6617 106.036 77.1357 105.251 77.4789C104.483 77.8221 103.576 77.9937 102.53 77.9937ZM113.983 66.545V74.0222C113.983 74.5289 114.098 74.8966 114.326 75.1254C114.571 75.3379 114.98 75.4441 115.552 75.4441H117.268V77.7731H115.062C113.803 77.7731 112.839 77.4789 112.169 76.8905C111.499 76.3021 111.164 75.3461 111.164 74.0222V66.545H109.57V64.2651H111.164V60.9065H113.983V64.2651H117.268V66.545H113.983ZM131.826 77.9447C130.682 77.9447 129.653 77.7486 128.737 77.3563C127.822 76.9477 127.103 76.3757 126.58 75.6402C126.057 74.9048 125.795 74.0467 125.795 73.0661H128.786C128.852 73.8016 129.138 74.4063 129.644 74.8803C130.167 75.3542 130.895 75.5912 131.826 75.5912C132.791 75.5912 133.542 75.3624 134.082 74.9048C134.621 74.4308 134.891 73.8261 134.891 73.0906C134.891 72.5186 134.719 72.0528 134.376 71.6933C134.049 71.3337 133.632 71.0559 133.126 70.8597C132.635 70.6636 131.949 70.4511 131.066 70.2223C129.955 69.9282 129.048 69.634 128.345 69.3398C127.659 69.0293 127.07 68.5553 126.58 67.9179C126.09 67.2805 125.845 66.4306 125.845 65.3683C125.845 64.3877 126.09 63.5296 126.58 62.7942C127.07 62.0587 127.757 61.4949 128.639 61.1026C129.522 60.7104 130.543 60.5143 131.704 60.5143C133.354 60.5143 134.703 60.931 135.749 61.7645C136.811 62.5817 137.399 63.7094 137.514 65.1477H134.425C134.376 64.5266 134.082 63.9954 133.542 63.5542C133.003 63.1129 132.292 62.8922 131.41 62.8922C130.609 62.8922 129.955 63.0965 129.448 63.5051C128.942 63.9137 128.688 64.5021 128.688 65.2702C128.688 65.7932 128.844 66.2263 129.154 66.5695C129.481 66.8964 129.89 67.1579 130.38 67.354C130.87 67.5502 131.54 67.7626 132.39 67.9914C133.518 68.302 134.433 68.6125 135.136 68.923C135.855 69.2336 136.46 69.7157 136.95 70.3694C137.457 71.0068 137.71 71.8649 137.71 72.9435C137.71 73.8098 137.473 74.6269 136.999 75.3951C136.541 76.1632 135.863 76.7843 134.964 77.2582C134.082 77.7159 133.036 77.9447 131.826 77.9447ZM153.388 70.6881C153.388 71.1948 153.355 71.6524 153.29 72.061H142.969C143.051 73.1397 143.451 74.0059 144.17 74.6596C144.889 75.3134 145.772 75.6402 146.818 75.6402C148.321 75.6402 149.384 75.011 150.005 73.7526H153.02C152.612 74.9947 151.868 76.0161 150.789 76.817C149.727 77.6015 148.403 77.9937 146.818 77.9937C145.527 77.9937 144.366 77.7077 143.337 77.1357C142.323 76.5473 141.522 75.7301 140.934 74.6841C140.362 73.6218 140.076 72.396 140.076 71.0068C140.076 69.6176 140.354 68.4 140.91 67.354C141.482 66.2917 142.274 65.4745 143.288 64.9025C144.317 64.3305 145.494 64.0445 146.818 64.0445C148.093 64.0445 149.228 64.3223 150.225 64.878C151.222 65.4337 151.999 66.2182 152.554 67.2315C153.11 68.2284 153.388 69.3806 153.388 70.6881ZM150.471 69.8056C150.454 68.7759 150.087 67.9506 149.367 67.3295C148.648 66.7085 147.758 66.3979 146.695 66.3979C145.731 66.3979 144.906 66.7085 144.219 67.3295C143.533 67.9342 143.124 68.7596 142.993 69.8056H150.471ZM158.933 59.6317V77.7731H156.138V59.6317H158.933ZM165.397 59.6317V77.7731H162.602V59.6317H165.397ZM170.488 62.4755C169.982 62.4755 169.557 62.3039 169.213 61.9607C168.87 61.6174 168.699 61.1925 168.699 60.6859C168.699 60.1792 168.87 59.7543 169.213 59.4111C169.557 59.0678 169.982 58.8962 170.488 58.8962C170.978 58.8962 171.395 59.0678 171.738 59.4111C172.082 59.7543 172.253 60.1792 172.253 60.6859C172.253 61.1925 172.082 61.6174 171.738 61.9607C171.395 62.3039 170.978 62.4755 170.488 62.4755ZM171.861 64.2651V77.7731H169.066V64.2651H171.861ZM182.346 64.0445C183.408 64.0445 184.356 64.2651 185.189 64.7064C186.039 65.1477 186.701 65.8014 187.175 66.6676C187.649 67.5338 187.886 68.5798 187.886 69.8056V77.7731H185.116V70.2223C185.116 69.0129 184.813 68.0895 184.209 67.4521C183.604 66.7984 182.779 66.4715 181.733 66.4715C180.687 66.4715 179.853 66.7984 179.232 67.4521C178.627 68.0895 178.325 69.0129 178.325 70.2223V77.7731H175.53V64.2651H178.325V65.8096C178.783 65.2539 179.363 64.8208 180.066 64.5103C180.785 64.1997 181.545 64.0445 182.346 64.0445ZM196.893 64.0445C197.939 64.0445 198.863 64.2569 199.664 64.6819C200.481 65.0905 201.118 65.6053 201.576 66.2263V64.2651H204.395V77.9937C204.395 79.2358 204.134 80.339 203.611 81.3033C203.088 82.2839 202.328 83.052 201.331 83.6077C200.35 84.1634 199.173 84.4413 197.8 84.4413C195.97 84.4413 194.45 84.0081 193.241 83.1419C192.031 82.2921 191.345 81.1317 191.181 79.6608H193.951C194.164 80.3635 194.613 80.9274 195.3 81.3523C196.003 81.7936 196.836 82.0142 197.8 82.0142C198.928 82.0142 199.835 81.671 200.522 80.9846C201.224 80.2982 201.576 79.3012 201.576 77.9937V75.7383C201.102 76.3757 200.456 76.915 199.639 77.3563C198.838 77.7812 197.923 77.9937 196.893 77.9937C195.717 77.9937 194.638 77.6995 193.657 77.1112C192.693 76.5064 191.925 75.6729 191.353 74.6106C190.797 73.5319 190.519 72.3143 190.519 70.9578C190.519 69.6013 190.797 68.4 191.353 67.354C191.925 66.3081 192.693 65.499 193.657 64.927C194.638 64.3387 195.717 64.0445 196.893 64.0445ZM201.576 71.0068C201.576 70.0752 201.38 69.2662 200.987 68.5798C200.611 67.8934 200.113 67.3704 199.492 67.0108C198.871 66.6513 198.201 66.4715 197.482 66.4715C196.763 66.4715 196.092 66.6513 195.471 67.0108C194.85 67.354 194.344 67.8689 193.951 68.5553C193.576 69.2254 193.388 70.0262 193.388 70.9578C193.388 71.8894 193.576 72.7066 193.951 73.4093C194.344 74.1121 194.85 74.6514 195.471 75.0274C196.109 75.3869 196.779 75.5667 197.482 75.5667C198.201 75.5667 198.871 75.3869 199.492 75.0274C200.113 74.6678 200.611 74.1448 200.987 73.4584C201.38 72.7556 201.576 71.9384 201.576 71.0068Z" fill="white"/>
<path d="M771.591 66.3268V67.4153H768.796V76.5792H767.457V67.4153H764.648V66.3268H771.591ZM777.239 68.3714C777.847 68.3714 778.396 68.5038 778.887 68.7686C779.377 69.0235 779.759 69.4109 780.034 69.9306C780.318 70.4503 780.461 71.0828 780.461 71.8281V76.5792H779.137V72.0193C779.137 71.2152 778.936 70.6023 778.534 70.1807C778.132 69.7492 777.582 69.5334 776.886 69.5334C776.18 69.5334 775.616 69.7541 775.195 70.1954C774.783 70.6366 774.577 71.2789 774.577 72.1223V76.5792H773.238V65.6943H774.577V69.6658C774.842 69.254 775.204 68.9353 775.665 68.7097C776.136 68.4842 776.661 68.3714 777.239 68.3714ZM783.338 67.2094C783.083 67.2094 782.868 67.1211 782.691 66.9446C782.515 66.7681 782.426 66.5524 782.426 66.2974C782.426 66.0425 782.515 65.8267 782.691 65.6502C782.868 65.4737 783.083 65.3854 783.338 65.3854C783.584 65.3854 783.789 65.4737 783.956 65.6502C784.133 65.8267 784.221 66.0425 784.221 66.2974C784.221 66.5524 784.133 66.7681 783.956 66.9446C783.789 67.1211 783.584 67.2094 783.338 67.2094ZM783.986 68.5185V76.5792H782.647V68.5185H783.986ZM789.12 76.7115C788.503 76.7115 787.949 76.6086 787.458 76.4027C786.968 76.1869 786.581 75.8927 786.296 75.5201C786.012 75.1377 785.855 74.7013 785.826 74.211H787.208C787.247 74.613 787.434 74.9415 787.767 75.1965C788.11 75.4515 788.557 75.5789 789.106 75.5789C789.616 75.5789 790.018 75.4662 790.312 75.2406C790.606 75.0151 790.753 74.7307 790.753 74.3875C790.753 74.0345 790.596 73.7746 790.282 73.6079C789.969 73.4314 789.483 73.2598 788.826 73.0931C788.228 72.9362 787.738 72.7793 787.355 72.6224C786.983 72.4557 786.659 72.2154 786.385 71.9016C786.12 71.578 785.987 71.1564 785.987 70.6366C785.987 70.2248 786.11 69.8472 786.355 69.504C786.6 69.1608 786.948 68.8911 787.399 68.695C787.851 68.4891 788.365 68.3861 788.944 68.3861C789.836 68.3861 790.557 68.6117 791.106 69.0628C791.655 69.5138 791.95 70.1316 791.989 70.9161H790.65C790.621 70.4944 790.449 70.1561 790.135 69.9012C789.831 69.6462 789.42 69.5187 788.9 69.5187C788.419 69.5187 788.037 69.6217 787.752 69.8276C787.468 70.0336 787.326 70.3032 787.326 70.6366C787.326 70.9014 787.409 71.122 787.576 71.2986C787.752 71.4653 787.968 71.6025 788.223 71.7104C788.488 71.8085 788.851 71.9212 789.312 72.0487C789.89 72.2056 790.361 72.3625 790.724 72.5194C791.087 72.6665 791.395 72.8921 791.65 73.196C791.915 73.5 792.052 73.8972 792.062 74.3875C792.062 74.8288 791.94 75.2259 791.695 75.5789C791.449 75.932 791.101 76.2114 790.65 76.4174C790.209 76.6135 789.699 76.7115 789.12 76.7115ZM810.759 66.3268L807.787 76.5792H806.287L803.904 68.3273L801.433 76.5792L799.947 76.5939L797.079 66.3268H798.506L800.742 75.02L803.213 66.3268H804.713L807.067 74.9906L809.317 66.3268H810.759ZM819.578 72.2399C819.578 72.4949 819.563 72.7646 819.534 73.0489H813.091C813.14 73.8432 813.41 74.4659 813.9 74.917C814.4 75.3583 815.004 75.5789 815.71 75.5789C816.288 75.5789 816.769 75.4466 817.151 75.1818C817.543 74.9072 817.818 74.5444 817.975 74.0933H819.416C819.201 74.868 818.769 75.5005 818.122 75.9908C817.475 76.4713 816.671 76.7115 815.71 76.7115C814.945 76.7115 814.258 76.5399 813.65 76.1967C813.052 75.8535 812.581 75.3681 812.238 74.7405C811.895 74.1031 811.723 73.3676 811.723 72.5341C811.723 71.7006 811.89 70.97 812.223 70.3425C812.557 69.7149 813.023 69.2344 813.621 68.901C814.229 68.5577 814.925 68.3861 815.71 68.3861C816.474 68.3861 817.151 68.5528 817.739 68.8862C818.328 69.2196 818.779 69.6805 819.093 70.2689C819.416 70.8475 819.578 71.5045 819.578 72.2399ZM818.195 71.9605C818.195 71.4505 818.083 71.0142 817.857 70.6513C817.632 70.2787 817.323 69.9992 816.93 69.8129C816.548 69.6168 816.121 69.5187 815.651 69.5187C814.974 69.5187 814.396 69.7345 813.915 70.1659C813.444 70.5974 813.175 71.1956 813.106 71.9605H818.195ZM828.7 72.2399C828.7 72.4949 828.685 72.7646 828.655 73.0489H822.213C822.262 73.8432 822.531 74.4659 823.022 74.917C823.522 75.3583 824.125 75.5789 824.831 75.5789C825.41 75.5789 825.89 75.4466 826.272 75.1818C826.665 74.9072 826.939 74.5444 827.096 74.0933H828.538C828.322 74.868 827.891 75.5005 827.243 75.9908C826.596 76.4713 825.792 76.7115 824.831 76.7115C824.066 76.7115 823.38 76.5399 822.772 76.1967C822.174 75.8535 821.703 75.3681 821.36 74.7405C821.016 74.1031 820.845 73.3676 820.845 72.5341C820.845 71.7006 821.011 70.97 821.345 70.3425C821.678 69.7149 822.144 69.2344 822.742 68.901C823.35 68.5577 824.046 68.3861 824.831 68.3861C825.596 68.3861 826.272 68.5528 826.861 68.8862C827.449 69.2196 827.9 69.6805 828.214 70.2689C828.538 70.8475 828.7 71.5045 828.7 72.2399ZM827.317 71.9605C827.317 71.4505 827.204 71.0142 826.979 70.6513C826.753 70.2787 826.444 69.9992 826.052 69.8129C825.669 69.6168 825.243 69.5187 824.772 69.5187C824.096 69.5187 823.517 69.7345 823.036 70.1659C822.566 70.5974 822.296 71.1956 822.227 71.9605H827.317ZM834.967 76.5792L831.805 73.0195V76.5792H830.466V65.6943H831.805V72.0929L834.909 68.5185H836.777L832.982 72.5341L836.791 76.5792H834.967Z" fill="#B7B7B7"/>
<path d="M848.482 67.9338L855.836 75.2884L863.191 67.9338" fill="#B7B7B7"/>
<defs>
<filter id="filter0_d_6_631" x="0.250202" y="0.51655" width="935.261" height="663.141" filterUnits="userSpaceOnUse" color-interpolation-filters="sRGB">
<feFlood flood-opacity="0" result="BackgroundImageFix"/>
<feColorMatrix in="SourceAlpha" type="matrix" values="0 0 0 0 0 0 0 0 0 0 0 0 0 0 0 0 0 0 127 0" result="hardAlpha"/>
<feOffset dy="14.7092"/>
<feGaussianBlur stdDeviation="14.0963"/>
<feColorMatrix type="matrix" values="0 0 0 0 0.243137 0 0 0 0 0.286275 0 0 0 0 0.329412 0 0 0 0.04 0"/>
<feBlend mode="normal" in2="BackgroundImageFix" result="effect1_dropShadow_6_631"/>
<feBlend mode="normal" in="SourceGraphic" in2="effect1_dropShadow_6_631" result="shape"/>
</filter>
<filter id="filter1_d_6_631" x="37.0233" y="101.03" width="864.167" height="117.674" filterUnits="userSpaceOnUse" color-interpolation-filters="sRGB">
<feFlood flood-opacity="0" result="BackgroundImageFix"/>
<feColorMatrix in="SourceAlpha" type="matrix" values="0 0 0 0 0 0 0 0 0 0 0 0 0 0 0 0 0 0 127 0" result="hardAlpha"/>
<feOffset dy="14.7092"/>
<feGaussianBlur stdDeviation="14.0963"/>
<feColorMatrix type="matrix" values="0 0 0 0 0.243137 0 0 0 0 0.286275 0 0 0 0 0.329412 0 0 0 0.04 0"/>
<feBlend mode="normal" in2="BackgroundImageFix" result="effect1_dropShadow_6_631"/>
<feBlend mode="normal" in="SourceGraphic" in2="effect1_dropShadow_6_631" result="shape"/>
</filter>
</defs>
</svg>
