<svg width="481" height="239" viewBox="0 0 481 239" fill="none" xmlns="http://www.w3.org/2000/svg">
<g filter="url(#filter0_d_106_82)">
<rect x="29.0088" y="14.3154" width="422.991" height="181.685" rx="17.1608" fill="#2F363D"/>
</g>
<g filter="url(#filter1_d_106_82)">
<rect x="29.0088" y="14.3154" width="422.991" height="181.685" rx="17.1608" fill="#2F363D"/>
</g>
<path d="M73.0963 102.449C73.0963 74.017 96.0367 50.9686 124.335 50.9686C152.634 50.9686 175.574 74.0171 175.574 102.449C175.574 130.88 152.634 153.929 124.335 153.929C96.0367 153.929 73.0963 130.88 73.0963 102.449ZM159.71 102.449C159.71 82.8196 143.872 66.907 124.335 66.907C104.798 66.907 88.96 82.8196 88.96 102.449C88.96 122.078 104.798 137.991 124.335 137.991C143.872 137.991 159.71 122.078 159.71 102.449Z" fill="#3C65F5"/>
<path fill-rule="evenodd" clip-rule="evenodd" d="M67.1539 102.449C67.1539 70.7207 92.7541 44.9999 124.333 44.9999C155.913 44.9999 181.513 70.7207 181.513 102.449C181.513 134.177 155.913 159.898 124.333 159.898C92.7541 159.898 67.1539 134.177 67.1539 102.449ZM153.768 102.449C153.768 86.1161 140.59 72.8758 124.333 72.8758C108.077 72.8758 94.8991 86.1161 94.8991 102.449C94.8991 118.782 108.077 132.022 124.333 132.022C140.59 132.022 153.768 118.782 153.768 102.449ZM124.333 50.9686C96.0351 50.9686 73.0947 74.0171 73.0947 102.449C73.0947 130.881 96.035 153.929 124.333 153.929C152.632 153.929 175.572 130.881 175.572 102.449C175.572 74.0171 152.632 50.9686 124.333 50.9686ZM124.333 66.9071C143.871 66.9071 159.709 82.8197 159.709 102.449C159.709 122.078 143.871 137.991 124.333 137.991C104.796 137.991 88.9584 122.078 88.9584 102.449C88.9584 82.8197 104.796 66.9071 124.333 66.9071Z" fill="#2F363D"/>
<path d="M124.333 153.929C115.352 153.929 106.528 151.557 98.7458 147.05C90.964 142.544 84.498 136.061 79.996 128.252C75.494 120.444 73.114 111.583 73.0948 102.559C73.0756 93.5349 75.4177 84.6641 79.8864 76.8361C84.3551 69.0081 90.7934 62.4978 98.5558 57.9578C106.318 53.4178 115.132 51.0077 124.114 50.9691C133.096 50.9304 141.93 53.2646 149.731 57.7376C157.532 62.2105 164.025 68.6652 168.561 76.4545L154.868 84.5024C151.737 79.1247 147.253 74.6684 141.868 71.5803C136.482 68.4922 130.383 66.8807 124.182 66.9074C117.981 66.9341 111.896 68.598 106.537 71.7324C101.178 74.8667 96.7326 79.3614 93.6474 84.7659C90.5622 90.1703 88.9452 96.2946 88.9585 102.525C88.9718 108.755 90.6148 114.872 93.723 120.264C96.8312 125.655 101.295 130.13 106.668 133.241C112.04 136.353 118.132 137.991 124.333 137.991L124.333 153.929Z" fill="#FF4F4F"/>
<path fill-rule="evenodd" clip-rule="evenodd" d="M130.274 159.898L124.333 159.898C114.31 159.898 104.463 157.251 95.779 152.221C87.095 147.192 79.8794 139.958 74.8553 131.244C69.8313 122.53 67.1755 112.642 67.154 102.572C67.1325 92.5014 69.7462 82.6022 74.733 73.8666C79.7199 65.1309 86.9046 57.8658 95.5671 52.7995C104.23 47.7331 114.065 45.0436 124.088 45.0004C134.112 44.9573 143.97 47.5621 152.675 52.5537C161.381 57.5453 168.627 64.7483 173.688 73.4407L176.688 78.5926L152.74 92.6682L149.74 87.5163C147.135 83.0417 143.404 79.3338 138.923 76.7643C134.442 74.1947 129.367 72.8539 124.207 72.8761C119.048 72.8983 113.985 74.2828 109.525 76.8908C105.066 79.4988 101.368 83.2386 98.8006 87.7355C96.2335 92.2324 94.8881 97.3282 94.8991 102.512C94.9102 107.696 96.2773 112.786 98.8636 117.272C101.45 121.758 105.164 125.482 109.634 128.07C114.105 130.659 119.174 132.022 124.333 132.022L130.274 132.022L130.274 159.898ZM154.862 84.492C151.731 79.119 147.25 74.6665 141.868 71.5803C136.482 68.4922 130.383 66.8807 124.182 66.9074C117.981 66.9341 111.896 68.598 106.537 71.7324C101.177 74.8668 96.7325 79.3615 93.6473 84.7659C90.5621 90.1704 88.9451 96.2947 88.9584 102.525C88.9717 108.755 90.6148 114.872 93.723 120.264C96.8312 125.655 101.295 130.13 106.668 133.242C112.04 136.353 118.132 137.991 124.333 137.991L124.333 153.929C122.342 153.929 120.359 153.812 118.393 153.582C111.49 152.772 104.802 150.558 98.7457 147.05C90.964 142.544 84.498 136.061 79.9959 128.253C75.4939 120.444 73.114 111.583 73.0947 102.559C73.0755 93.5349 75.4176 84.6642 79.8863 76.8361C84.355 69.0081 90.7933 62.4978 98.5558 57.9578C106.318 53.4179 115.132 51.0078 124.114 50.9691C133.096 50.9305 141.93 53.2646 149.731 57.7376C155.802 61.219 161.082 65.9007 165.263 71.4779C166.451 73.0629 167.55 74.7203 168.554 76.443C168.556 76.4468 168.558 76.4507 168.56 76.4545L154.868 84.5024C154.866 84.499 154.864 84.4955 154.862 84.492Z" fill="#2F363D"/>
<path d="M124.333 153.929C113.101 153.929 102.18 150.221 93.2503 143.375C84.3208 136.529 77.8777 126.924 74.9124 116.039C71.9471 105.154 72.624 93.592 76.8388 83.1313C81.0537 72.6707 88.573 63.8914 98.2397 58.1442L106.318 71.8611C99.6445 75.8289 94.4532 81.8901 91.5433 89.1121C88.6334 96.3341 88.1661 104.317 90.2133 111.832C92.2606 119.347 96.7089 125.977 102.874 130.704C109.039 135.43 116.579 137.991 124.333 137.991L124.333 153.929Z" fill="#1BD344"/>
<path fill-rule="evenodd" clip-rule="evenodd" d="M130.276 159.898L124.335 159.898C111.8 159.898 99.6128 155.759 89.6479 148.12C79.683 140.48 72.4929 129.762 69.1838 117.615C65.8747 105.468 66.6301 92.5651 71.3336 80.8916C76.0371 69.2182 84.4282 59.421 95.2157 53.0075L100.328 49.9679L114.458 73.9583L109.345 76.9979C103.792 80.2993 99.4726 85.3426 97.0514 91.3518C94.6301 97.361 94.2413 104.003 95.9447 110.256C97.6481 116.509 101.349 122.026 106.479 125.959C111.609 129.892 117.882 132.022 124.335 132.022L130.276 132.022L130.276 159.898ZM106.32 71.8611C99.6459 75.8289 94.4546 81.8901 91.5447 89.1121C88.6348 96.3341 88.1675 104.317 90.2147 111.832C92.262 119.347 96.7103 125.977 102.875 130.704C109.04 135.43 116.58 137.991 124.335 137.991L124.335 153.929C122.342 153.929 120.358 153.812 118.394 153.582C109.289 152.514 100.597 149.006 93.2517 143.375C84.3222 136.529 77.8791 126.924 74.9138 116.039C71.9485 105.154 72.6254 93.592 76.8402 83.1314C80.3071 74.5269 86.0098 67.0601 93.3044 61.4826C94.878 60.2794 96.5258 59.1641 98.2411 58.1443L106.32 71.8611Z" fill="#2F363D"/>
<path d="M122.85 159.898C114.695 159.898 106.645 158.049 99.2995 154.489C91.9541 150.93 85.5028 145.751 80.426 139.339C75.3492 132.927 71.7778 125.446 69.9778 117.455C68.1777 109.463 68.1955 101.167 70.0297 93.1833L97.1848 99.481C96.2936 103.36 96.285 107.391 97.1596 111.274C98.0342 115.157 99.7696 118.792 102.236 121.908C104.703 125.024 107.838 127.54 111.407 129.269C114.976 130.999 118.887 131.897 122.85 131.897L122.85 159.898Z" fill="#FFF742"/>
<path fill-rule="evenodd" clip-rule="evenodd" d="M128.789 165.866L122.848 165.866C113.799 165.866 104.867 163.815 96.7169 159.866C88.5666 155.916 81.4083 150.17 75.7751 143.055C70.142 135.94 66.1791 127.64 64.1819 118.772C62.1846 109.905 62.2043 100.699 64.2395 91.8409L65.5756 86.0251L104.308 95.0077L102.972 100.823C102.281 103.828 102.275 106.95 102.952 109.957C103.629 112.964 104.973 115.779 106.884 118.192C108.794 120.605 111.222 122.554 113.986 123.893C116.75 125.233 119.779 125.929 122.848 125.929L128.789 125.929L128.789 165.866ZM97.1801 99.4941C96.2919 103.369 96.2842 107.396 97.1579 111.274C98.0325 115.157 99.7679 118.792 102.235 121.908C104.701 125.024 107.836 127.54 111.405 129.269C114.974 130.999 118.886 131.897 122.848 131.897L122.848 159.898C120.859 159.898 118.876 159.788 116.908 159.57C110.808 158.894 104.851 157.181 99.2978 154.49C91.9524 150.93 85.5011 145.751 80.4243 139.339C75.3475 132.927 71.7761 125.446 69.9761 117.455C68.6151 111.413 68.2933 105.197 69.01 99.0729C69.2402 97.1056 69.5776 95.1478 70.0222 93.2085C70.0241 93.2001 70.0261 93.1917 70.028 93.1833L97.1831 99.481C97.1821 99.4854 97.1811 99.4898 97.1801 99.4941Z" fill="#2F363D"/>
<path d="M322.495 50.7892V51.8777H319.7V61.0415H318.362V51.8777H315.552V50.7892H322.495ZM328.144 52.8338C328.752 52.8338 329.301 52.9661 329.791 53.2309C330.281 53.4859 330.664 53.8732 330.938 54.3929C331.223 54.9127 331.365 55.5452 331.365 56.2904V61.0415H330.041V56.4816C330.041 55.6775 329.84 55.0647 329.438 54.643C329.036 54.2115 328.487 53.9958 327.791 53.9958C327.085 53.9958 326.521 54.2164 326.099 54.6577C325.687 55.099 325.481 55.7413 325.481 56.5846V61.0415H324.143V50.1567H325.481V54.1282C325.746 53.7163 326.109 53.3976 326.57 53.1721C327.04 52.9465 327.565 52.8338 328.144 52.8338ZM334.243 51.6717C333.988 51.6717 333.772 51.5835 333.596 51.407C333.419 51.2305 333.331 51.0147 333.331 50.7598C333.331 50.5048 333.419 50.2891 333.596 50.1126C333.772 49.936 333.988 49.8478 334.243 49.8478C334.488 49.8478 334.694 49.936 334.861 50.1126C335.037 50.2891 335.125 50.5048 335.125 50.7598C335.125 51.0147 335.037 51.2305 334.861 51.407C334.694 51.5835 334.488 51.6717 334.243 51.6717ZM334.89 52.9809V61.0415H333.551V52.9809H334.89ZM340.025 61.1739C339.407 61.1739 338.853 61.0709 338.363 60.865C337.872 60.6493 337.485 60.3551 337.201 59.9824C336.916 59.6 336.759 59.1636 336.73 58.6733H338.113C338.152 59.0754 338.338 59.4039 338.672 59.6588C339.015 59.9138 339.461 60.0413 340.01 60.0413C340.52 60.0413 340.922 59.9285 341.216 59.703C341.51 59.4774 341.658 59.193 341.658 58.8498C341.658 58.4968 341.501 58.2369 341.187 58.0702C340.873 57.8937 340.388 57.7221 339.731 57.5554C339.133 57.3985 338.642 57.2416 338.26 57.0847C337.887 56.918 337.564 56.6778 337.289 56.364C337.024 56.0404 336.892 55.6187 336.892 55.099C336.892 54.6871 337.014 54.3096 337.26 53.9664C337.505 53.6232 337.853 53.3535 338.304 53.1574C338.755 52.9514 339.27 52.8485 339.848 52.8485C340.741 52.8485 341.461 53.074 342.011 53.5251C342.56 53.9762 342.854 54.594 342.893 55.3785H341.555C341.525 54.9568 341.354 54.6185 341.04 54.3635C340.736 54.1086 340.324 53.9811 339.804 53.9811C339.324 53.9811 338.941 54.084 338.657 54.29C338.373 54.4959 338.23 54.7656 338.23 55.099C338.23 55.3637 338.314 55.5844 338.48 55.7609C338.657 55.9276 338.873 56.0649 339.128 56.1728C339.392 56.2708 339.755 56.3836 340.216 56.5111C340.795 56.668 341.265 56.8249 341.628 56.9818C341.991 57.1289 342.3 57.3544 342.555 57.6584C342.82 57.9624 342.957 58.3595 342.967 58.8498C342.967 59.2911 342.844 59.6883 342.599 60.0413C342.354 60.3943 342.006 60.6738 341.555 60.8797C341.113 61.0758 340.603 61.1739 340.025 61.1739ZM361.663 50.7892L358.692 61.0415H357.191L354.809 52.7896L352.337 61.0415L350.852 61.0562L347.983 50.7892H349.41L351.646 59.4823L354.117 50.7892H355.618L357.971 59.4529L360.222 50.7892H361.663ZM370.482 56.7023C370.482 56.9572 370.468 57.2269 370.438 57.5113H363.996C364.045 58.3056 364.314 58.9283 364.805 59.3794C365.305 59.8206 365.908 60.0413 366.614 60.0413C367.193 60.0413 367.673 59.9089 368.055 59.6441C368.448 59.3696 368.722 59.0067 368.879 58.5556H370.321C370.105 59.3303 369.673 59.9628 369.026 60.4531C368.379 60.9336 367.575 61.1739 366.614 61.1739C365.849 61.1739 365.163 61.0023 364.555 60.6591C363.956 60.3158 363.486 59.8304 363.143 59.2029C362.799 58.5655 362.628 57.83 362.628 56.9965C362.628 56.1629 362.794 55.4324 363.128 54.8048C363.461 54.1772 363.927 53.6967 364.525 53.3633C365.133 53.0201 365.829 52.8485 366.614 52.8485C367.379 52.8485 368.055 53.0152 368.644 53.3486C369.232 53.682 369.683 54.1429 369.997 54.7312C370.321 55.3098 370.482 55.9668 370.482 56.7023ZM369.1 56.4228C369.1 55.9129 368.987 55.4765 368.762 55.1137C368.536 54.7411 368.227 54.4616 367.835 54.2753C367.452 54.0791 367.026 53.9811 366.555 53.9811C365.878 53.9811 365.3 54.1968 364.819 54.6283C364.349 55.0598 364.079 55.6579 364.01 56.4228H369.1ZM379.604 56.7023C379.604 56.9572 379.589 57.2269 379.56 57.5113H373.117C373.166 58.3056 373.436 58.9283 373.926 59.3794C374.426 59.8206 375.029 60.0413 375.735 60.0413C376.314 60.0413 376.794 59.9089 377.177 59.6441C377.569 59.3696 377.844 59.0067 378.001 58.5556H379.442C379.226 59.3303 378.795 59.9628 378.148 60.4531C377.501 60.9336 376.696 61.1739 375.735 61.1739C374.971 61.1739 374.284 61.0023 373.676 60.6591C373.078 60.3158 372.607 59.8304 372.264 59.2029C371.921 58.5655 371.749 57.83 371.749 56.9965C371.749 56.1629 371.916 55.4324 372.249 54.8048C372.583 54.1772 373.049 53.6967 373.647 53.3633C374.255 53.0201 374.951 52.8485 375.735 52.8485C376.5 52.8485 377.177 53.0152 377.765 53.3486C378.354 53.682 378.805 54.1429 379.119 54.7312C379.442 55.3098 379.604 55.9668 379.604 56.7023ZM378.221 56.4228C378.221 55.9129 378.108 55.4765 377.883 55.1137C377.657 54.7411 377.349 54.4616 376.956 54.2753C376.574 54.0791 376.147 53.9811 375.677 53.9811C375 53.9811 374.421 54.1968 373.941 54.6283C373.47 55.0598 373.201 55.6579 373.132 56.4228H378.221ZM385.872 61.0415L382.709 57.4819V61.0415H381.371V50.1567H382.709V56.5552L385.813 52.9809H387.681L383.886 56.9965L387.696 61.0415H385.872Z" fill="#B7B7B7"/>
<path d="M399.594 53.057L407.081 61.0725L414.567 53.057" fill="#B7B7B7"/>
<path d="M236.738 98.8204V100.76H233.546V110.799H231.144V100.76H227.952V98.8204H236.738ZM239.71 100.159C239.286 100.159 238.932 100.027 238.646 99.7642C238.371 99.4896 238.234 99.1522 238.234 98.7517C238.234 98.3513 238.371 98.0195 238.646 97.7564C238.932 97.4818 239.286 97.3446 239.71 97.3446C240.133 97.3446 240.482 97.4818 240.757 97.7564C241.043 98.0195 241.186 98.3513 241.186 98.7517C241.186 99.1522 241.043 99.4896 240.757 99.7642C240.482 100.027 240.133 100.159 239.71 100.159ZM240.894 101.292V110.799H238.491V101.292H240.894ZM242.65 106.045C242.65 105.061 242.85 104.203 243.25 103.471C243.651 102.727 244.206 102.155 244.915 101.755C245.624 101.343 246.436 101.137 247.352 101.137C248.53 101.137 249.503 101.435 250.269 102.029C251.047 102.613 251.568 103.437 251.831 104.501H249.239C249.102 104.089 248.868 103.768 248.536 103.54C248.215 103.299 247.815 103.179 247.335 103.179C246.648 103.179 246.105 103.431 245.704 103.934C245.304 104.426 245.104 105.13 245.104 106.045C245.104 106.949 245.304 107.652 245.704 108.156C246.105 108.648 246.648 108.894 247.335 108.894C248.307 108.894 248.942 108.459 249.239 107.59H251.831C251.568 108.619 251.047 109.437 250.269 110.044C249.491 110.65 248.519 110.953 247.352 110.953C246.436 110.953 245.624 110.753 244.915 110.352C244.206 109.941 243.651 109.369 243.25 108.636C242.85 107.893 242.65 107.029 242.65 106.045ZM259.219 110.799L255.993 106.749V110.799H253.591V98.0996H255.993V105.324L259.185 101.292H262.308L258.121 106.062L262.343 110.799H259.219ZM272.45 105.839C272.45 106.182 272.427 106.491 272.381 106.766H265.431C265.489 107.452 265.729 107.99 266.152 108.379C266.575 108.768 267.096 108.962 267.714 108.962C268.606 108.962 269.241 108.579 269.619 107.813H272.21C271.935 108.728 271.409 109.483 270.631 110.078C269.853 110.661 268.898 110.953 267.765 110.953C266.85 110.953 266.026 110.753 265.294 110.352C264.573 109.941 264.007 109.363 263.595 108.619C263.195 107.876 262.995 107.017 262.995 106.045C262.995 105.061 263.195 104.197 263.595 103.454C263.996 102.71 264.556 102.138 265.277 101.738C265.998 101.337 266.827 101.137 267.765 101.137C268.669 101.137 269.476 101.332 270.185 101.721C270.906 102.11 271.461 102.664 271.85 103.385C272.25 104.094 272.45 104.912 272.45 105.839ZM269.962 105.153C269.95 104.535 269.727 104.043 269.293 103.677C268.858 103.299 268.326 103.111 267.697 103.111C267.102 103.111 266.598 103.294 266.186 103.66C265.786 104.014 265.54 104.512 265.449 105.153H269.962ZM277.001 103.265V107.864C277.001 108.184 277.075 108.419 277.224 108.568C277.384 108.705 277.647 108.774 278.013 108.774H279.129V110.799H277.619C275.594 110.799 274.581 109.815 274.581 107.847V103.265H273.449V101.292H274.581V98.9405H277.001V101.292H279.129V103.265H277.001ZM292.291 108.516H287.52L286.731 110.799H284.208L288.515 98.8032H291.313L295.62 110.799H293.08L292.291 108.516ZM291.639 106.594L289.905 101.583L288.172 106.594H291.639Z" fill="white"/>
<rect x="204.943" y="99.8141" width="11.2299" height="12.0232" fill="#FF4F4F"/>
<path d="M357.771 98.8204V100.76H354.579V110.799H352.177V100.76H348.985V98.8204H357.771ZM360.743 100.159C360.319 100.159 359.965 100.027 359.679 99.7642C359.404 99.4896 359.267 99.1522 359.267 98.7517C359.267 98.3513 359.404 98.0195 359.679 97.7564C359.965 97.4818 360.319 97.3446 360.743 97.3446C361.166 97.3446 361.515 97.4818 361.789 97.7564C362.075 98.0195 362.218 98.3513 362.218 98.7517C362.218 99.1522 362.075 99.4896 361.789 99.7642C361.515 100.027 361.166 100.159 360.743 100.159ZM361.927 101.292V110.799H359.524V101.292H361.927ZM363.683 106.045C363.683 105.061 363.883 104.203 364.283 103.471C364.684 102.727 365.239 102.155 365.948 101.755C366.657 101.343 367.469 101.137 368.385 101.137C369.563 101.137 370.536 101.435 371.302 102.029C372.08 102.613 372.601 103.437 372.864 104.501H370.272C370.135 104.089 369.901 103.768 369.569 103.54C369.248 103.299 368.848 103.179 368.368 103.179C367.681 103.179 367.138 103.431 366.737 103.934C366.337 104.426 366.137 105.13 366.137 106.045C366.137 106.949 366.337 107.652 366.737 108.156C367.138 108.648 367.681 108.894 368.368 108.894C369.34 108.894 369.975 108.459 370.272 107.59H372.864C372.601 108.619 372.08 109.437 371.302 110.044C370.524 110.65 369.552 110.953 368.385 110.953C367.469 110.953 366.657 110.753 365.948 110.352C365.239 109.941 364.684 109.369 364.283 108.636C363.883 107.893 363.683 107.029 363.683 106.045ZM380.252 110.799L377.026 106.749V110.799H374.624V98.0996H377.026V105.324L380.218 101.292H383.341L379.154 106.062L383.376 110.799H380.252ZM393.483 105.839C393.483 106.182 393.46 106.491 393.414 106.766H386.464C386.522 107.452 386.762 107.99 387.185 108.379C387.608 108.768 388.129 108.962 388.747 108.962C389.639 108.962 390.274 108.579 390.652 107.813H393.243C392.968 108.728 392.442 109.483 391.664 110.078C390.886 110.661 389.931 110.953 388.798 110.953C387.883 110.953 387.059 110.753 386.327 110.352C385.606 109.941 385.04 109.363 384.628 108.619C384.228 107.876 384.028 107.017 384.028 106.045C384.028 105.061 384.228 104.197 384.628 103.454C385.029 102.71 385.589 102.138 386.31 101.738C387.031 101.337 387.86 101.137 388.798 101.137C389.702 101.137 390.509 101.332 391.218 101.721C391.939 102.11 392.493 102.664 392.882 103.385C393.283 104.094 393.483 104.912 393.483 105.839ZM390.995 105.153C390.983 104.535 390.76 104.043 390.326 103.677C389.891 103.299 389.359 103.111 388.73 103.111C388.135 103.111 387.631 103.294 387.219 103.66C386.819 104.014 386.573 104.512 386.482 105.153H390.995ZM398.034 103.265V107.864C398.034 108.184 398.108 108.419 398.257 108.568C398.417 108.705 398.68 108.774 399.046 108.774H400.162V110.799H398.652C396.627 110.799 395.614 109.815 395.614 107.847V103.265H394.482V101.292H395.614V98.9405H398.034V101.292H400.162V103.265H398.034ZM405.395 104.792C405.395 103.614 405.659 102.561 406.185 101.635C406.723 100.697 407.449 99.9701 408.364 99.4553C409.291 98.9291 410.326 98.6659 411.47 98.6659C412.809 98.6659 413.982 99.0091 414.988 99.6956C415.995 100.382 416.699 101.332 417.099 102.544H414.336C414.062 101.972 413.673 101.543 413.169 101.257C412.677 100.971 412.105 100.828 411.453 100.828C410.755 100.828 410.132 100.994 409.583 101.326C409.045 101.646 408.622 102.104 408.313 102.699C408.015 103.294 407.867 103.991 407.867 104.792C407.867 105.582 408.015 106.28 408.313 106.886C408.622 107.481 409.045 107.944 409.583 108.276C410.132 108.596 410.755 108.756 411.453 108.756C412.105 108.756 412.677 108.613 413.169 108.327C413.673 108.03 414.062 107.595 414.336 107.023H417.099C416.699 108.247 415.995 109.203 414.988 109.889C413.993 110.564 412.82 110.902 411.47 110.902C410.326 110.902 409.291 110.644 408.364 110.129C407.449 109.603 406.723 108.877 406.185 107.95C405.659 107.023 405.395 105.971 405.395 104.792Z" fill="white"/>
<rect x="325.976" y="99.8141" width="11.2299" height="12.0232" fill="#1BD344"/>
<path d="M236.738 138.898V140.837H233.546V150.876H231.144V140.837H227.952V138.898H236.738ZM239.71 140.236C239.286 140.236 238.932 140.105 238.646 139.842C238.371 139.567 238.234 139.23 238.234 138.829C238.234 138.429 238.371 138.097 238.646 137.834C238.932 137.559 239.286 137.422 239.71 137.422C240.133 137.422 240.482 137.559 240.757 137.834C241.043 138.097 241.186 138.429 241.186 138.829C241.186 139.23 241.043 139.567 240.757 139.842C240.482 140.105 240.133 140.236 239.71 140.236ZM240.894 141.369V150.876H238.491V141.369H240.894ZM242.65 146.123C242.65 145.139 242.85 144.281 243.25 143.548C243.651 142.805 244.206 142.233 244.915 141.832C245.624 141.421 246.436 141.215 247.352 141.215C248.53 141.215 249.503 141.512 250.269 142.107C251.047 142.69 251.568 143.514 251.831 144.578H249.239C249.102 144.166 248.868 143.846 248.536 143.617C248.215 143.377 247.815 143.257 247.335 143.257C246.648 143.257 246.105 143.508 245.704 144.012C245.304 144.504 245.104 145.207 245.104 146.123C245.104 147.026 245.304 147.73 245.704 148.233C246.105 148.725 246.648 148.971 247.335 148.971C248.307 148.971 248.942 148.537 249.239 147.667H251.831C251.568 148.697 251.047 149.515 250.269 150.121C249.491 150.727 248.519 151.031 247.352 151.031C246.436 151.031 245.624 150.83 244.915 150.43C244.206 150.018 243.651 149.446 243.25 148.714C242.85 147.97 242.65 147.106 242.65 146.123ZM259.219 150.876L255.993 146.826V150.876H253.591V138.177H255.993V145.402L259.185 141.369H262.308L258.121 146.14L262.343 150.876H259.219ZM272.45 145.917C272.45 146.26 272.427 146.569 272.381 146.843H265.431C265.489 147.53 265.729 148.067 266.152 148.456C266.575 148.845 267.096 149.04 267.714 149.04C268.606 149.04 269.241 148.657 269.619 147.89H272.21C271.935 148.805 271.409 149.56 270.631 150.155C269.853 150.739 268.898 151.031 267.765 151.031C266.85 151.031 266.026 150.83 265.294 150.43C264.573 150.018 264.007 149.44 263.595 148.697C263.195 147.953 262.995 147.095 262.995 146.123C262.995 145.139 263.195 144.275 263.595 143.531C263.996 142.788 264.556 142.216 265.277 141.815C265.998 141.415 266.827 141.215 267.765 141.215C268.669 141.215 269.476 141.409 270.185 141.798C270.906 142.187 271.461 142.742 271.85 143.463C272.25 144.172 272.45 144.99 272.45 145.917ZM269.962 145.23C269.95 144.612 269.727 144.12 269.293 143.754C268.858 143.377 268.326 143.188 267.697 143.188C267.102 143.188 266.598 143.371 266.186 143.737C265.786 144.092 265.54 144.59 265.449 145.23H269.962ZM277.001 143.343V147.942C277.001 148.262 277.075 148.496 277.224 148.645C277.384 148.782 277.647 148.851 278.013 148.851H279.129V150.876H277.619C275.594 150.876 274.581 149.892 274.581 147.924V143.343H273.449V141.369H274.581V139.018H277.001V141.369H279.129V143.343H277.001ZM291.742 144.733C292.417 144.858 292.972 145.196 293.406 145.745C293.841 146.294 294.058 146.923 294.058 147.633C294.058 148.273 293.898 148.84 293.578 149.332C293.269 149.812 292.817 150.19 292.222 150.464C291.627 150.739 290.924 150.876 290.111 150.876H284.946V138.898H289.888C290.701 138.898 291.398 139.029 291.982 139.293C292.577 139.556 293.023 139.922 293.32 140.391C293.629 140.86 293.784 141.392 293.784 141.987C293.784 142.685 293.595 143.268 293.217 143.737C292.851 144.206 292.359 144.538 291.742 144.733ZM287.348 143.84H289.545C290.117 143.84 290.558 143.714 290.866 143.463C291.175 143.2 291.33 142.828 291.33 142.347C291.33 141.867 291.175 141.495 290.866 141.232C290.558 140.969 290.117 140.837 289.545 140.837H287.348V143.84ZM289.768 148.92C290.352 148.92 290.804 148.782 291.124 148.508C291.456 148.233 291.622 147.844 291.622 147.341C291.622 146.826 291.45 146.426 291.107 146.14C290.763 145.842 290.3 145.694 289.717 145.694H287.348V148.92H289.768Z" fill="white"/>
<rect x="204.943" y="139.892" width="11.2299" height="12.0232" fill="#3C65F5"/>
<path d="M357.771 138.898V140.837H354.579V150.876H352.177V140.837H348.985V138.898H357.771ZM360.743 140.236C360.319 140.236 359.965 140.105 359.679 139.842C359.404 139.567 359.267 139.23 359.267 138.829C359.267 138.429 359.404 138.097 359.679 137.834C359.965 137.559 360.319 137.422 360.743 137.422C361.166 137.422 361.515 137.559 361.789 137.834C362.075 138.097 362.218 138.429 362.218 138.829C362.218 139.23 362.075 139.567 361.789 139.842C361.515 140.105 361.166 140.236 360.743 140.236ZM361.927 141.369V150.876H359.524V141.369H361.927ZM363.683 146.123C363.683 145.139 363.883 144.281 364.283 143.548C364.684 142.805 365.239 142.233 365.948 141.832C366.657 141.421 367.469 141.215 368.385 141.215C369.563 141.215 370.536 141.512 371.302 142.107C372.08 142.69 372.601 143.514 372.864 144.578H370.272C370.135 144.166 369.901 143.846 369.569 143.617C369.248 143.377 368.848 143.257 368.368 143.257C367.681 143.257 367.138 143.508 366.737 144.012C366.337 144.504 366.137 145.207 366.137 146.123C366.137 147.026 366.337 147.73 366.737 148.233C367.138 148.725 367.681 148.971 368.368 148.971C369.34 148.971 369.975 148.537 370.272 147.667H372.864C372.601 148.697 372.08 149.515 371.302 150.121C370.524 150.727 369.552 151.031 368.385 151.031C367.469 151.031 366.657 150.83 365.948 150.43C365.239 150.018 364.684 149.446 364.283 148.714C363.883 147.97 363.683 147.106 363.683 146.123ZM380.252 150.876L377.026 146.826V150.876H374.624V138.177H377.026V145.402L380.218 141.369H383.341L379.154 146.14L383.376 150.876H380.252ZM393.483 145.917C393.483 146.26 393.46 146.569 393.414 146.843H386.464C386.522 147.53 386.762 148.067 387.185 148.456C387.608 148.845 388.129 149.04 388.747 149.04C389.639 149.04 390.274 148.657 390.652 147.89H393.243C392.968 148.805 392.442 149.56 391.664 150.155C390.886 150.739 389.931 151.031 388.798 151.031C387.883 151.031 387.059 150.83 386.327 150.43C385.606 150.018 385.04 149.44 384.628 148.697C384.228 147.953 384.028 147.095 384.028 146.123C384.028 145.139 384.228 144.275 384.628 143.531C385.029 142.788 385.589 142.216 386.31 141.815C387.031 141.415 387.86 141.215 388.798 141.215C389.702 141.215 390.509 141.409 391.218 141.798C391.939 142.187 392.493 142.742 392.882 143.463C393.283 144.172 393.483 144.99 393.483 145.917ZM390.995 145.23C390.983 144.612 390.76 144.12 390.326 143.754C389.891 143.377 389.359 143.188 388.73 143.188C388.135 143.188 387.631 143.371 387.219 143.737C386.819 144.092 386.573 144.59 386.482 145.23H390.995ZM398.034 143.343V147.942C398.034 148.262 398.108 148.496 398.257 148.645C398.417 148.782 398.68 148.851 399.046 148.851H400.162V150.876H398.652C396.627 150.876 395.614 149.892 395.614 147.924V143.343H394.482V141.369H395.614V139.018H398.034V141.369H400.162V143.343H398.034ZM410.166 138.898C411.425 138.898 412.529 139.144 413.478 139.636C414.439 140.128 415.177 140.831 415.692 141.747C416.218 142.65 416.481 143.703 416.481 144.904C416.481 146.105 416.218 147.158 415.692 148.062C415.177 148.954 414.439 149.646 413.478 150.138C412.529 150.63 411.425 150.876 410.166 150.876H405.979V138.898H410.166ZM410.08 148.834C411.339 148.834 412.311 148.491 412.998 147.804C413.684 147.118 414.027 146.151 414.027 144.904C414.027 143.657 413.684 142.685 412.998 141.987C412.311 141.278 411.339 140.923 410.08 140.923H408.381V148.834H410.08Z" fill="white"/>
<rect x="325.976" y="139.892" width="11.2299" height="12.0232" fill="#FFF742"/>
<defs>
<filter id="filter0_d_106_82" x="0.81612" y="0.83198" width="479.377" height="238.07" filterUnits="userSpaceOnUse" color-interpolation-filters="sRGB">
<feFlood flood-opacity="0" result="BackgroundImageFix"/>
<feColorMatrix in="SourceAlpha" type="matrix" values="0 0 0 0 0 0 0 0 0 0 0 0 0 0 0 0 0 0 127 0" result="hardAlpha"/>
<feOffset dy="14.7092"/>
<feGaussianBlur stdDeviation="14.0963"/>
<feColorMatrix type="matrix" values="0 0 0 0 0.243137 0 0 0 0 0.286275 0 0 0 0 0.329412 0 0 0 0.04 0"/>
<feBlend mode="normal" in2="BackgroundImageFix" result="effect1_dropShadow_106_82"/>
<feBlend mode="normal" in="SourceGraphic" in2="effect1_dropShadow_106_82" result="shape"/>
</filter>
<filter id="filter1_d_106_82" x="0.81612" y="0.83198" width="479.377" height="238.07" filterUnits="userSpaceOnUse" color-interpolation-filters="sRGB">
<feFlood flood-opacity="0" result="BackgroundImageFix"/>
<feColorMatrix in="SourceAlpha" type="matrix" values="0 0 0 0 0 0 0 0 0 0 0 0 0 0 0 0 0 0 127 0" result="hardAlpha"/>
<feOffset dy="14.7092"/>
<feGaussianBlur stdDeviation="14.0963"/>
<feColorMatrix type="matrix" values="0 0 0 0 0.243137 0 0 0 0 0.286275 0 0 0 0 0.329412 0 0 0 0.04 0"/>
<feBlend mode="normal" in2="BackgroundImageFix" result="effect1_dropShadow_106_82"/>
<feBlend mode="normal" in="SourceGraphic" in2="effect1_dropShadow_106_82" result="shape"/>
</filter>
</defs>
</svg>
