<svg width="480" height="239" viewBox="0 0 480 239" fill="none" xmlns="http://www.w3.org/2000/svg">
<g filter="url(#filter0_d_6_820)">
<rect x="28.4429" y="13.7552" width="422.991" height="181.685" rx="17.1608" fill="#2F363D"/>
</g>
<mask id="mask0_6_820" style="mask-type:alpha" maskUnits="userSpaceOnUse" x="28" y="13" width="424" height="183">
<rect x="28.4429" y="13.7552" width="422.991" height="181.685" rx="17.1608" fill="#2F363D"/>
</mask>
<g mask="url(#mask0_6_820)">
<rect width="363.099" height="12.3077" rx="6.15387" transform="matrix(1 0 0 -1 58.3892 163.662)" fill="white" fill-opacity="0.12"/>
<g filter="url(#filter1_d_6_820)">
<rect width="298.1" height="12.3077" rx="6.15387" transform="matrix(1 0 0 -1 58.3892 163.662)" fill="#13B497"/>
</g>
</g>
<path d="M355.468 50.229C356.586 50.229 357.552 50.4398 358.365 50.8615C359.189 51.2734 359.817 51.8666 360.248 52.6413C360.689 53.416 360.91 54.328 360.91 55.3772C360.91 56.4265 360.689 57.3385 360.248 58.1131C359.817 58.878 359.189 59.4664 358.365 59.8782C357.552 60.2803 356.586 60.4813 355.468 60.4813H352.276V50.229H355.468ZM355.468 59.3781C356.792 59.3781 357.802 59.03 358.498 58.3338C359.194 57.6277 359.542 56.6422 359.542 55.3772C359.542 54.1024 359.189 53.1071 358.483 52.3913C357.787 51.6754 356.782 51.3175 355.468 51.3175H353.614V59.3781H355.468ZM362.176 56.4216C362.176 55.5979 362.342 54.8771 362.676 54.2593C363.009 53.6317 363.465 53.1463 364.044 52.8031C364.632 52.4599 365.284 52.2883 366 52.2883C366.706 52.2883 367.319 52.4403 367.839 52.7443C368.358 53.0483 368.746 53.4307 369.001 53.8916V52.4207H370.354V60.4813H369.001V58.981C368.736 59.4517 368.339 59.8439 367.809 60.1577C367.289 60.4617 366.682 60.6137 365.985 60.6137C365.269 60.6137 364.622 60.4372 364.044 60.0842C363.465 59.7312 363.009 59.2359 362.676 58.5985C362.342 57.9611 362.176 57.2355 362.176 56.4216ZM369.001 56.4363C369.001 55.8283 368.878 55.2988 368.633 54.8477C368.388 54.3966 368.054 54.0534 367.633 53.818C367.221 53.5729 366.765 53.4503 366.265 53.4503C365.765 53.4503 365.309 53.568 364.897 53.8033C364.485 54.0387 364.156 54.3819 363.911 54.833C363.666 55.2841 363.544 55.8136 363.544 56.4216C363.544 57.0394 363.666 57.5787 363.911 58.0396C364.156 58.4907 364.485 58.8388 364.897 59.0839C365.309 59.3193 365.765 59.437 366.265 59.437C366.765 59.437 367.221 59.3193 367.633 59.0839C368.054 58.8388 368.388 58.4907 368.633 58.0396C368.878 57.5787 369.001 57.0443 369.001 56.4363ZM373.307 51.1116C373.052 51.1116 372.837 51.0233 372.66 50.8468C372.484 50.6703 372.395 50.4545 372.395 50.1996C372.395 49.9446 372.484 49.7289 372.66 49.5524C372.837 49.3759 373.052 49.2876 373.307 49.2876C373.552 49.2876 373.758 49.3759 373.925 49.5524C374.102 49.7289 374.19 49.9446 374.19 50.1996C374.19 50.4545 374.102 50.6703 373.925 50.8468C373.758 51.0233 373.552 51.1116 373.307 51.1116ZM373.954 52.4207V60.4813H372.616V52.4207H373.954ZM377.574 49.5965V60.4813H376.236V49.5965H377.574ZM386.798 52.4207L381.944 64.2763H380.562L382.15 60.3931L378.9 52.4207H380.385L382.915 58.9516L385.416 52.4207H386.798Z" fill="#B7B7B7"/>
<path d="M399.028 52.4968L406.515 60.5123L414.001 52.4968" fill="#B7B7B7"/>
<path d="M65.582 78.2539V79.107H62.7284V88.5356H61.6987V79.107H58.8304V78.2539H65.582ZM67.7226 78.9894C67.5167 78.9894 67.3402 78.9158 67.1931 78.7687C67.046 78.6216 66.9724 78.4402 66.9724 78.2245C66.9724 78.0087 67.046 77.8322 67.1931 77.6949C67.3402 77.5479 67.5167 77.4743 67.7226 77.4743C67.9285 77.4743 68.1051 77.5479 68.2521 77.6949C68.3992 77.8322 68.4728 78.0087 68.4728 78.2245C68.4728 78.4402 68.3992 78.6216 68.2521 78.7687C68.1051 78.9158 67.9285 78.9894 67.7226 78.9894ZM68.2374 80.5044V88.5356H67.2078V80.5044H68.2374ZM70.0984 84.52C70.0984 83.6865 70.2651 82.9609 70.5985 82.3431C70.9319 81.7155 71.3928 81.235 71.9812 80.9016C72.5695 80.5583 73.2413 80.3867 73.9963 80.3867C74.9867 80.3867 75.8007 80.6319 76.4381 81.1222C77.0853 81.6125 77.502 82.2793 77.6883 83.1227H76.5851C76.4479 82.5441 76.1488 82.093 75.6879 81.7694C75.2368 81.436 74.6729 81.2693 73.9963 81.2693C73.457 81.2693 72.9716 81.3919 72.5401 81.637C72.1086 81.8822 71.7654 82.2499 71.5105 82.7402C71.2653 83.2207 71.1427 83.814 71.1427 84.52C71.1427 85.2261 71.2653 85.8242 71.5105 86.3146C71.7654 86.8049 72.1086 87.1726 72.5401 87.4177C72.9716 87.6629 73.457 87.7855 73.9963 87.7855C74.6729 87.7855 75.2368 87.6237 75.6879 87.3001C76.1488 86.9667 76.4479 86.5058 76.5851 85.9174H77.6883C77.502 86.7411 77.0853 87.403 76.4381 87.9031C75.7908 88.4033 74.9769 88.6533 73.9963 88.6533C73.2413 88.6533 72.5695 88.4866 71.9812 88.1532C71.3928 87.81 70.9319 87.3295 70.5985 86.7117C70.2651 86.0841 70.0984 85.3536 70.0984 84.52ZM83.9292 88.5356L80.6196 84.9319V88.5356H79.59V77.6508H80.6196V84.0935L83.8556 80.5044H85.2971L81.4875 84.5053L85.3266 88.5356H83.9292ZM93.9236 84.1082C93.9236 84.4612 93.9138 84.7309 93.8942 84.9172H87.2309C87.2604 85.5252 87.4075 86.0449 87.6722 86.4764C87.937 86.9078 88.2851 87.2363 88.7166 87.4619C89.148 87.6776 89.6187 87.7855 90.1287 87.7855C90.7955 87.7855 91.3544 87.6237 91.8055 87.3001C92.2664 86.9765 92.5704 86.5401 92.7175 85.9909H93.806C93.6098 86.7754 93.1882 87.4177 92.541 87.9179C91.9036 88.4082 91.0995 88.6533 90.1287 88.6533C89.3736 88.6533 88.697 88.4866 88.0988 88.1532C87.5006 87.81 87.0299 87.3295 86.6867 86.7117C86.3533 86.0841 86.1866 85.3536 86.1866 84.52C86.1866 83.6865 86.3533 82.9559 86.6867 82.3284C87.0201 81.7008 87.4859 81.2203 88.0841 80.8869C88.6823 80.5534 89.3638 80.3867 90.1287 80.3867C90.8935 80.3867 91.5604 80.5534 92.1291 80.8869C92.7077 81.2203 93.149 81.6713 93.4529 82.2401C93.7667 82.799 93.9236 83.4217 93.9236 84.1082ZM92.8793 84.0788C92.8891 83.4806 92.7665 82.9707 92.5116 82.549C92.2664 82.1273 91.9281 81.8086 91.4966 81.5929C91.0651 81.3772 90.5945 81.2693 90.0845 81.2693C89.3197 81.2693 88.6675 81.5144 88.1282 82.0048C87.5889 82.4951 87.2898 83.1864 87.2309 84.0788H92.8793ZM97.146 81.3723V86.3587C97.146 86.849 97.2391 87.1873 97.4255 87.3736C97.6118 87.5599 97.9403 87.6531 98.411 87.6531H99.3524V88.5356H98.2492C97.5235 88.5356 96.9842 88.3689 96.6312 88.0355C96.2781 87.6923 96.1016 87.1334 96.1016 86.3587V81.3723H94.9837V80.5044H96.1016V78.4892H97.146V80.5044H99.3524V81.3723H97.146ZM108.205 88.6386C107.529 88.6386 106.93 88.5209 106.411 88.2856C105.901 88.0502 105.499 87.7217 105.205 87.3001C104.91 86.8784 104.753 86.4077 104.734 85.888H105.822C105.871 86.3881 106.092 86.8294 106.484 87.2118C106.877 87.5844 107.45 87.7708 108.205 87.7708C108.901 87.7708 109.451 87.5943 109.853 87.2412C110.265 86.8784 110.47 86.4224 110.47 85.8733C110.47 85.432 110.358 85.079 110.132 84.8142C109.907 84.5396 109.627 84.3386 109.294 84.2111C108.96 84.0738 108.499 83.9268 107.911 83.7699C107.225 83.5835 106.68 83.4021 106.278 83.2256C105.876 83.0491 105.533 82.7745 105.249 82.4019C104.964 82.0293 104.822 81.5242 104.822 80.8869C104.822 80.3573 104.959 79.8866 105.234 79.4748C105.509 79.0531 105.896 78.7246 106.396 78.4892C106.896 78.2539 107.47 78.1362 108.117 78.1362C109.068 78.1362 109.833 78.3716 110.412 78.8423C111 79.3032 111.338 79.9013 111.427 80.6368H110.309C110.24 80.2151 110.01 79.8425 109.617 79.5189C109.225 79.1855 108.696 79.0188 108.029 79.0188C107.411 79.0188 106.896 79.1855 106.484 79.5189C106.072 79.8425 105.866 80.2887 105.866 80.8574C105.866 81.2889 105.979 81.637 106.205 81.9018C106.43 82.1666 106.71 82.3676 107.043 82.5049C107.386 82.6422 107.847 82.7892 108.426 82.9461C109.093 83.1325 109.632 83.3188 110.044 83.5051C110.456 83.6816 110.804 83.9562 111.088 84.3288C111.373 84.7014 111.515 85.2016 111.515 85.8291C111.515 86.3096 111.387 86.7656 111.132 87.1971C110.877 87.6286 110.5 87.9767 110 88.2415C109.5 88.5062 108.901 88.6386 108.205 88.6386ZM117.02 88.6533C116.265 88.6533 115.583 88.4866 114.975 88.1532C114.377 87.81 113.902 87.3295 113.549 86.7117C113.205 86.0841 113.034 85.3536 113.034 84.52C113.034 83.6865 113.21 82.9609 113.563 82.3431C113.916 81.7155 114.397 81.235 115.005 80.9016C115.613 80.5583 116.294 80.3867 117.049 80.3867C117.804 80.3867 118.486 80.5583 119.094 80.9016C119.712 81.235 120.192 81.7155 120.535 82.3431C120.889 82.9609 121.065 83.6865 121.065 84.52C121.065 85.3437 120.889 86.0694 120.535 86.697C120.182 87.3246 119.697 87.81 119.079 88.1532C118.461 88.4866 117.775 88.6533 117.02 88.6533ZM117.02 87.7561C117.55 87.7561 118.04 87.6384 118.491 87.403C118.942 87.1579 119.305 86.7951 119.579 86.3146C119.864 85.8242 120.006 85.2261 120.006 84.52C120.006 83.814 119.869 83.2207 119.594 82.7402C119.32 82.2499 118.957 81.8871 118.506 81.6517C118.055 81.4066 117.564 81.284 117.035 81.284C116.505 81.284 116.015 81.4066 115.564 81.6517C115.113 81.8871 114.75 82.2499 114.475 82.7402C114.211 83.2207 114.078 83.814 114.078 84.52C114.078 85.2261 114.211 85.8242 114.475 86.3146C114.75 86.7951 115.108 87.1579 115.549 87.403C116 87.6384 116.49 87.7561 117.02 87.7561ZM123.972 77.6508V88.5356H122.942V77.6508H123.972ZM125.833 84.5053C125.833 83.6816 125.999 82.9609 126.333 82.3431C126.666 81.7155 127.122 81.235 127.701 80.9016C128.289 80.5583 128.951 80.3867 129.686 80.3867C130.392 80.3867 131.03 80.5583 131.599 80.9016C132.167 81.2448 132.584 81.691 132.849 82.2401V77.6508H133.878V88.5356H132.849V86.7411C132.604 87.3001 132.202 87.761 131.643 88.1238C131.084 88.4768 130.427 88.6533 129.672 88.6533C128.936 88.6533 128.274 88.4817 127.686 88.1385C127.107 87.7953 126.651 87.3099 126.318 86.6823C125.994 86.0547 125.833 85.329 125.833 84.5053ZM132.849 84.52C132.849 83.8728 132.716 83.3041 132.452 82.8138C132.187 82.3235 131.824 81.9459 131.363 81.6811C130.912 81.4164 130.412 81.284 129.863 81.284C129.294 81.284 128.784 81.4115 128.333 81.6664C127.882 81.9214 127.524 82.294 127.259 82.7843C127.004 83.2648 126.877 83.8385 126.877 84.5053C126.877 85.1623 127.004 85.7409 127.259 86.241C127.524 86.7313 127.882 87.1089 128.333 87.3736C128.784 87.6286 129.294 87.7561 129.863 87.7561C130.412 87.7561 130.912 87.6237 131.363 87.3589C131.824 87.0941 132.187 86.7166 132.452 86.2263C132.716 85.736 132.849 85.1672 132.849 84.52Z" fill="white" fill-opacity="0.6"/>
<path d="M59.3109 58.6887V56.5313L65.7241 47.3528H68.921V56.296H70.6468V58.6887H68.921V61.4736H66.1752V58.6887H59.3109ZM66.3517 50.2946L62.3312 56.296H66.3517V50.2946ZM82.005 49.5494H75.6506V52.9031C75.9251 52.5631 76.3174 52.2885 76.8273 52.0793C77.3372 51.8571 77.8798 51.7459 78.4551 51.7459C79.5011 51.7459 80.3575 51.9747 81.0243 52.4324C81.6912 52.89 82.1749 53.4784 82.4757 54.1975C82.7764 54.9035 82.9267 55.6619 82.9267 56.4725C82.9267 57.9761 82.4953 59.1855 81.6323 60.1008C80.7825 61.016 79.5665 61.4736 77.9844 61.4736C76.4939 61.4736 75.3041 61.101 74.415 60.3557C73.5259 59.6105 73.0225 58.6364 72.9049 57.4335H75.5721C75.6898 57.9565 75.9513 58.3749 76.3566 58.6887C76.775 59.0025 77.3045 59.1594 77.9452 59.1594C78.7166 59.1594 79.2985 58.9175 79.6907 58.4337C80.083 57.95 80.2791 57.3093 80.2791 56.5117C80.2791 55.7011 80.0764 55.0866 79.6711 54.6682C79.2788 54.2367 78.697 54.021 77.9256 54.021C77.3765 54.021 76.9188 54.1582 76.5527 54.4328C76.1866 54.7074 75.9251 55.0735 75.7682 55.5311H73.1402V47.137H82.005V49.5494ZM92.43 50.7457C92.2992 50.1966 92.0704 49.7847 91.7435 49.5101C91.4297 49.2356 90.9721 49.0983 90.3707 49.0983C89.4685 49.0983 88.8017 49.4644 88.3702 50.1966C87.9518 50.9157 87.7361 52.0924 87.723 53.7268C88.0368 53.2038 88.4944 52.7985 89.0959 52.5108C89.6973 52.2101 90.3511 52.0597 91.0571 52.0597C91.907 52.0597 92.6588 52.2428 93.3125 52.6089C93.9663 52.975 94.4762 53.511 94.8423 54.2171C95.2084 54.9101 95.3914 55.7468 95.3914 56.7275C95.3914 57.6558 95.2018 58.486 94.8227 59.2182C94.4566 59.9373 93.914 60.4996 93.1948 60.9049C92.4757 61.3102 91.6193 61.5129 90.6256 61.5129C89.2658 61.5129 88.1937 61.2121 87.4092 60.6107C86.6378 60.0092 86.0952 59.1725 85.7814 58.1003C85.4807 57.0151 85.3303 55.6815 85.3303 54.0994C85.3303 51.7067 85.7422 49.9024 86.5659 48.6864C87.3896 47.4574 88.6906 46.8429 90.4687 46.8429C91.8416 46.8429 92.9072 47.2155 93.6655 47.9608C94.4239 48.706 94.8619 49.6343 94.9796 50.7457H92.43ZM90.4295 54.3151C89.7365 54.3151 89.1547 54.5178 88.684 54.9231C88.2133 55.3284 87.978 55.9168 87.978 56.6882C87.978 57.4597 88.1937 58.0676 88.6252 58.5122C89.0697 58.9567 89.6908 59.179 90.4883 59.179C91.1944 59.179 91.7501 58.9633 92.1554 58.5318C92.5738 58.1003 92.783 57.5185 92.783 56.7863C92.783 56.028 92.5803 55.4265 92.175 54.982C91.7828 54.5374 91.2009 54.3151 90.4295 54.3151ZM104.308 61.4736L100.621 56.8451V61.4736H97.8753V46.9605H100.621V55.2173L104.269 50.6084H107.838L103.053 56.0606L107.878 61.4736H104.308ZM123.984 52.0205C123.984 52.7527 123.808 53.4391 123.455 54.0798C123.115 54.7205 122.572 55.2369 121.827 55.6292C121.095 56.0214 120.167 56.2175 119.042 56.2175H116.748V61.4736H114.002V47.7843H119.042C120.101 47.7843 121.003 47.9673 121.749 48.3334C122.494 48.6995 123.05 49.2029 123.416 49.8435C123.795 50.4842 123.984 51.2099 123.984 52.0205ZM118.924 54.0013C119.683 54.0013 120.245 53.8314 120.611 53.4914C120.977 53.1384 121.16 52.6481 121.16 52.0205C121.16 50.6869 120.415 50.0201 118.924 50.0201H116.748V54.0013H118.924ZM125.228 56.041C125.228 54.9166 125.457 53.936 125.914 53.0992C126.372 52.2493 127.006 51.5956 127.817 51.138C128.627 50.6673 129.556 50.4319 130.602 50.4319C131.948 50.4319 133.06 50.7719 133.936 51.4518C134.825 52.1186 135.42 53.06 135.72 54.2759H132.759C132.602 53.8052 132.334 53.4391 131.955 53.1776C131.589 52.9031 131.131 52.7658 130.582 52.7658C129.798 52.7658 129.176 53.0534 128.719 53.6287C128.261 54.1909 128.032 54.995 128.032 56.041C128.032 57.0739 128.261 57.878 128.719 58.4533C129.176 59.0156 129.798 59.2967 130.582 59.2967C131.693 59.2967 132.419 58.7998 132.759 57.8061H135.72C135.42 58.9829 134.825 59.9177 133.936 60.6107C133.047 61.3037 131.935 61.6501 130.602 61.6501C129.556 61.6501 128.627 61.4213 127.817 60.9637C127.006 60.493 126.372 59.8393 125.914 59.0025C125.457 58.1526 125.228 57.1655 125.228 56.041ZM141.89 61.6501C141.001 61.6501 140.203 61.4932 139.497 61.1794C138.791 60.8526 138.229 60.4146 137.81 59.8654C137.405 59.3163 137.183 58.7083 137.144 58.0415H139.909C139.961 58.4599 140.164 58.8064 140.517 59.0809C140.883 59.3555 141.334 59.4928 141.87 59.4928C142.393 59.4928 142.798 59.3882 143.086 59.179C143.387 58.9698 143.537 58.7018 143.537 58.3749C143.537 58.0219 143.354 57.7604 142.988 57.5904C142.635 57.4074 142.066 57.2112 141.282 57.002C140.471 56.8059 139.804 56.6032 139.281 56.394C138.771 56.1849 138.327 55.8645 137.948 55.433C137.582 55.0016 137.398 54.4197 137.398 53.6876C137.398 53.0861 137.568 52.537 137.908 52.0401C138.261 51.5433 138.758 51.151 139.399 50.8634C140.053 50.5757 140.818 50.4319 141.694 50.4319C142.988 50.4319 144.021 50.7588 144.792 51.4125C145.564 52.0532 145.989 52.9227 146.067 54.021H143.439C143.4 53.5895 143.217 53.2495 142.89 53.0011C142.576 52.7396 142.151 52.6089 141.615 52.6089C141.118 52.6089 140.733 52.7004 140.458 52.8834C140.197 53.0665 140.066 53.3215 140.066 53.6483C140.066 54.0144 140.249 54.2955 140.615 54.4917C140.981 54.6747 141.55 54.8643 142.321 55.0604C143.106 55.2565 143.753 55.4592 144.263 55.6684C144.773 55.8776 145.211 56.2045 145.577 56.649C145.956 57.0805 146.152 57.6558 146.165 58.3749C146.165 59.0025 145.989 59.5647 145.636 60.0615C145.296 60.5584 144.799 60.9506 144.145 61.2383C143.504 61.5129 142.753 61.6501 141.89 61.6501Z" fill="white"/>
<defs>
<filter id="filter0_d_6_820" x="0.250217" y="0.271799" width="479.377" height="238.07" filterUnits="userSpaceOnUse" color-interpolation-filters="sRGB">
<feFlood flood-opacity="0" result="BackgroundImageFix"/>
<feColorMatrix in="SourceAlpha" type="matrix" values="0 0 0 0 0 0 0 0 0 0 0 0 0 0 0 0 0 0 127 0" result="hardAlpha"/>
<feOffset dy="14.7092"/>
<feGaussianBlur stdDeviation="14.0963"/>
<feColorMatrix type="matrix" values="0 0 0 0 0.243137 0 0 0 0 0.286275 0 0 0 0 0.329412 0 0 0 0.04 0"/>
<feBlend mode="normal" in2="BackgroundImageFix" result="effect1_dropShadow_6_820"/>
<feBlend mode="normal" in="SourceGraphic" in2="effect1_dropShadow_6_820" result="shape"/>
</filter>
<filter id="filter1_d_6_820" x="38.7769" y="131.742" width="337.324" height="51.5323" filterUnits="userSpaceOnUse" color-interpolation-filters="sRGB">
<feFlood flood-opacity="0" result="BackgroundImageFix"/>
<feColorMatrix in="SourceAlpha" type="matrix" values="0 0 0 0 0 0 0 0 0 0 0 0 0 0 0 0 0 0 127 0" result="hardAlpha"/>
<feOffset/>
<feGaussianBlur stdDeviation="9.80615"/>
<feColorMatrix type="matrix" values="0 0 0 0 0.0745098 0 0 0 0 0.705882 0 0 0 0 0.592157 0 0 0 0.56 0"/>
<feBlend mode="normal" in2="BackgroundImageFix" result="effect1_dropShadow_6_820"/>
<feBlend mode="normal" in="SourceGraphic" in2="effect1_dropShadow_6_820" result="shape"/>
</filter>
</defs>
</svg>
