<svg width="22" height="22" viewBox="0 0 22 22" fill="none" xmlns="http://www.w3.org/2000/svg">
<path d="M2.48937 5.55982C2.05911 5.39818 1.58285 5.41024 1.16132 5.59346C0.739802 5.77668 0.406082 6.11668 0.23076 6.54155C0.0554383 6.96642 0.0522658 7.44283 0.221914 7.86999C0.391562 8.29716 0.720724 8.64158 1.13977 8.8304C1.56607 9.01071 1.9298 9.31263 2.18552 9.69845C2.44124 10.0843 2.57762 10.5369 2.57762 10.9997C2.57762 11.4626 2.44124 11.9152 2.18552 12.301C1.9298 12.6869 1.56607 12.9888 1.13977 13.1691C0.720624 13.3579 0.391382 13.7024 0.221711 14.1296C0.0520393 14.5569 0.055251 15.0334 0.230666 15.4583C0.406081 15.8833 0.739936 16.2233 1.16159 16.4064C1.58324 16.5896 2.05961 16.6015 2.4899 16.4397C2.91927 16.2648 3.3907 16.2205 3.84512 16.3124C4.29955 16.4042 4.71677 16.6281 5.04452 16.956C5.37226 17.2839 5.59597 17.7013 5.6876 18.1557C5.77924 18.6102 5.73473 19.0816 5.55966 19.5109C5.39277 19.9423 5.40313 20.4222 5.58848 20.846C5.77382 21.2698 6.11914 21.6032 6.5492 21.7736C6.76456 21.8627 6.99537 21.9086 7.22846 21.9086C7.56897 21.911 7.90262 21.8128 8.18756 21.6263C8.47251 21.4399 8.69607 21.1735 8.83023 20.8605C9.01054 20.4342 9.31246 20.0705 9.69828 19.8148C10.0841 19.559 10.5367 19.4227 10.9996 19.4227C11.4624 19.4227 11.9151 19.559 12.3009 19.8148C12.6867 20.0705 12.9886 20.4342 13.1689 20.8605C13.3577 21.2797 13.7022 21.6089 14.1295 21.7786C14.5567 21.9482 15.0332 21.945 15.4582 21.7696C15.8831 21.5942 16.2231 21.2603 16.4063 20.8387C16.5894 20.417 16.6013 19.9407 16.4395 19.5104C16.2646 19.081 16.2204 18.6096 16.3122 18.1552C16.4041 17.7007 16.628 17.2835 16.9559 16.9558C17.2838 16.628 17.7011 16.4043 18.1556 16.3127C18.61 16.221 19.0815 16.2655 19.5107 16.4406C19.9395 16.6071 20.4164 16.5981 20.8386 16.4158C21.2608 16.2334 21.5943 15.8923 21.767 15.466L20.9646 15.1174L20.1684 14.8192C19.4206 14.5137 18.5991 14.4361 17.8073 14.5962C17.0154 14.7563 16.2886 15.147 15.7182 15.719C15.1483 16.2936 14.7567 17.0207 14.5906 17.8128C14.4246 18.605 14.4912 19.4282 14.7825 20.1833C14.4704 19.438 13.9446 18.8019 13.2715 18.355C12.5984 17.9082 11.8081 17.6706 11.0001 17.6723C10.1904 17.6748 9.39883 17.9119 8.72109 18.355C8.04335 18.798 7.50854 19.428 7.18138 20.1686C7.4867 19.4208 7.56419 18.5993 7.4041 17.8076C7.24402 17.0158 6.8535 16.289 6.28162 15.7185C5.70701 15.1486 4.97984 14.757 4.18775 14.591C3.39567 14.425 2.57247 14.4916 1.81737 14.7828C2.56256 14.4705 3.19863 13.9447 3.6454 13.2715C4.09216 12.5983 4.32962 11.8079 4.32783 11C4.32532 10.1903 4.0882 9.39864 3.64515 8.7209C3.2021 8.04316 2.57213 7.50835 1.83146 7.1812C2.5793 7.4867 3.40077 7.56429 4.19259 7.40419C4.9844 7.2441 5.71121 6.85348 6.28162 6.28144C6.85159 5.70687 7.2432 4.9797 7.40923 4.1876C7.57525 3.39549 7.50862 2.57227 7.21735 1.81719C7.52956 2.56238 8.05542 3.19845 8.72861 3.64521C9.4018 4.09198 10.1922 4.32944 11.0001 4.32765C11.8098 4.32514 12.6015 4.08801 13.2792 3.64497C13.9569 3.20192 14.4918 2.57194 14.8189 1.83127C14.5136 2.57915 14.4361 3.40057 14.5962 4.19235C14.7563 4.98412 15.1468 5.71092 15.7187 6.28144C16.2934 6.85111 17.0206 7.24252 17.8126 7.40853C18.6046 7.57455 19.4278 7.50809 20.1829 7.21716C19.4413 7.52872 18.8078 8.05166 18.3614 8.72079C17.915 9.38993 17.6754 10.1757 17.6725 10.98C17.6696 11.7844 17.9035 12.5719 18.345 13.2442C18.7866 13.9165 19.4163 14.4441 20.1556 14.761C20.158 14.7682 20.158 14.776 20.1556 14.7832L20.9644 15.1169L21.7684 15.4617L21.7731 15.4506C21.9518 15.0268 21.9561 14.5497 21.7853 14.1228C21.6144 13.6959 21.2822 13.3535 20.8605 13.17C20.4342 12.9896 20.0705 12.6877 19.8148 12.3019C19.559 11.9161 19.4227 11.4635 19.4227 11.0006C19.4227 10.5377 19.559 10.0851 19.8148 9.69932C20.0705 9.31351 20.4342 9.01159 20.8605 8.83127C21.2797 8.64246 21.6089 8.29797 21.7786 7.87072C21.9482 7.44346 21.945 6.96696 21.7696 6.54203C21.5942 6.1171 21.2604 5.77708 20.8387 5.59393C20.417 5.41078 19.9407 5.39886 19.5104 5.5607C19.081 5.73556 18.6096 5.77984 18.1552 5.68799C17.7007 5.59613 17.2835 5.37223 16.9558 5.04432C16.628 4.71641 16.4043 4.29909 16.3127 3.84462C16.2211 3.39015 16.2656 2.91874 16.4406 2.48945C16.6024 2.05918 16.5904 1.58286 16.4073 1.16126C16.2241 0.739657 15.8841 0.405855 15.4592 0.23048C15.0343 0.0551053 14.5578 0.0519158 14.1306 0.221586C13.7034 0.391257 13.3589 0.720476 13.1701 1.13959C12.9898 1.56589 12.6879 1.92962 12.3021 2.18534C11.9163 2.44106 11.4637 2.57744 11.0008 2.57744C10.5379 2.57744 10.0853 2.44106 9.69951 2.18534C9.31369 1.92962 9.01177 1.56589 8.83146 1.13959C8.64264 0.720441 8.29816 0.391199 7.8709 0.221528C7.44365 0.0518562 6.96714 0.0550679 6.54221 0.230483C6.11728 0.405898 5.77727 0.739753 5.59412 1.16141C5.41097 1.58306 5.39905 2.05943 5.56088 2.48971C5.73575 2.91909 5.78003 3.39051 5.68817 3.84494C5.59632 4.29937 5.37241 4.71659 5.04451 5.04433C4.7166 5.37208 4.29927 5.59578 3.8448 5.68742C3.39033 5.77905 2.91892 5.73455 2.48963 5.55947L2.48937 5.55982Z" fill="white"/>
</svg>
