<svg width="481" height="239" viewBox="0 0 481 239" fill="none" xmlns="http://www.w3.org/2000/svg">
<g filter="url(#filter0_d_6_776)">
<rect x="29.0082" y="13.7552" width="422.991" height="181.685" rx="17.1608" fill="#2F363D"/>
</g>
<mask id="mask0_6_776" style="mask-type:alpha" maskUnits="userSpaceOnUse" x="29" y="13" width="423" height="183">
<rect x="29.0082" y="13.7552" width="422.991" height="181.685" rx="17.1608" fill="#2F363D"/>
</mask>
<g mask="url(#mask0_6_776)">
<path d="M165.04 149.086C113.518 142.471 51.2208 175.629 26.5127 193.035L25.265 212.807H468.22V121.236C393.489 103.831 362.502 118.625 308.428 154.742C254.354 190.859 229.443 157.353 165.04 149.086Z" fill="url(#paint0_linear_6_776)"/>
<path fill-rule="evenodd" clip-rule="evenodd" d="M381.159 120.57C357.751 126.577 336.792 139.254 309.762 157.552C296.017 166.857 284.002 171.758 272.653 173.659C261.304 175.559 250.779 174.431 240.07 171.906C232.567 170.136 224.859 167.647 216.716 165.017C213.33 163.923 209.869 162.806 206.317 161.706C194.144 157.935 180.654 154.283 164.739 152.213C139.537 148.934 111.511 155.51 86.5735 165.214C61.6682 174.906 40.0947 187.618 27.8973 196.327L25.1282 191.881C37.6389 182.949 59.5678 170.037 84.8685 160.192C110.137 150.359 139.021 143.484 165.341 146.908C181.628 149.027 195.403 152.762 207.704 156.572C211.396 157.716 214.934 158.859 218.358 159.964C226.413 162.566 233.836 164.963 241.144 166.687C251.473 169.123 261.339 170.145 271.882 168.379C282.425 166.614 293.802 162.033 307.094 153.035C334.138 134.728 355.709 121.606 379.996 115.374C404.337 109.128 431.176 109.854 468.758 118.726L467.683 123.944C430.533 115.174 404.512 114.578 381.159 120.57Z" fill="#13B497"/>
</g>
<g filter="url(#filter1_d_6_776)">
<path d="M227.402 95.7009C227.402 90.2851 231.793 85.8948 237.208 85.8948H308.683C314.099 85.8948 318.489 90.2851 318.489 95.7009V123.3H237.208C231.793 123.3 227.402 118.91 227.402 113.494V95.7009Z" fill="#2B7769"/>
</g>
<path d="M240.767 106.339V105.074L245.709 97.9837H247.739V104.882H249.107V106.339H247.739V108.574H246.092V106.339H240.767ZM246.165 99.69L242.694 104.882H246.165V99.69ZM257.41 99.2928H252.482V102.22C252.688 101.945 252.992 101.715 253.394 101.529C253.806 101.342 254.243 101.249 254.703 101.249C255.527 101.249 256.194 101.426 256.704 101.779C257.224 102.132 257.591 102.578 257.807 103.117C258.033 103.657 258.145 104.225 258.145 104.823C258.145 105.549 258.003 106.196 257.719 106.765C257.444 107.324 257.027 107.765 256.469 108.089C255.919 108.413 255.243 108.574 254.439 108.574C253.37 108.574 252.512 108.31 251.865 107.78C251.217 107.251 250.83 106.549 250.703 105.677H252.335C252.443 106.138 252.683 106.505 253.056 106.78C253.429 107.045 253.894 107.177 254.453 107.177C255.15 107.177 255.669 106.966 256.013 106.544C256.366 106.123 256.542 105.564 256.542 104.868C256.542 104.162 256.366 103.622 256.013 103.25C255.66 102.867 255.14 102.676 254.453 102.676C253.973 102.676 253.566 102.799 253.233 103.044C252.909 103.279 252.674 103.603 252.526 104.014H250.938V97.8219H257.41V99.2928ZM259.67 99.3811V97.8513H262.73V108.574H261.038V99.3811H259.67ZM268.461 104.529L272.197 108.574H269.932L266.931 105.088V108.574H265.254V97.6895H266.931V104.014L269.873 100.47H272.197L268.461 104.529ZM278.897 101.661C279.181 101.288 279.568 100.975 280.059 100.72C280.549 100.465 281.103 100.337 281.721 100.337C282.427 100.337 283.069 100.514 283.648 100.867C284.236 101.21 284.697 101.695 285.03 102.323C285.364 102.951 285.53 103.671 285.53 104.485C285.53 105.299 285.364 106.03 285.03 106.677C284.697 107.314 284.236 107.814 283.648 108.177C283.069 108.53 282.427 108.707 281.721 108.707C281.103 108.707 280.554 108.584 280.073 108.339C279.593 108.084 279.201 107.77 278.897 107.398V112.428H277.22V100.47H278.897V101.661ZM283.824 104.485C283.824 103.926 283.706 103.446 283.471 103.044C283.246 102.632 282.942 102.323 282.559 102.117C282.186 101.901 281.784 101.793 281.353 101.793C280.931 101.793 280.529 101.901 280.147 102.117C279.774 102.333 279.47 102.647 279.235 103.058C279.009 103.47 278.897 103.956 278.897 104.515C278.897 105.074 279.009 105.564 279.235 105.986C279.47 106.397 279.774 106.711 280.147 106.927C280.529 107.143 280.931 107.251 281.353 107.251C281.784 107.251 282.186 107.143 282.559 106.927C282.942 106.701 283.246 106.378 283.471 105.956C283.706 105.534 283.824 105.044 283.824 104.485ZM286.63 104.515C286.63 103.681 286.796 102.951 287.13 102.323C287.473 101.686 287.944 101.195 288.542 100.852C289.14 100.509 289.826 100.337 290.601 100.337C291.582 100.337 292.391 100.573 293.028 101.043C293.675 101.504 294.112 102.166 294.337 103.029H292.528C292.381 102.627 292.146 102.313 291.822 102.088C291.498 101.862 291.091 101.749 290.601 101.749C289.915 101.749 289.366 101.994 288.954 102.485C288.552 102.965 288.351 103.642 288.351 104.515C288.351 105.387 288.552 106.069 288.954 106.559C289.366 107.049 289.915 107.295 290.601 107.295C291.572 107.295 292.214 106.868 292.528 106.015H294.337C294.102 106.839 293.661 107.496 293.013 107.986C292.366 108.466 291.562 108.707 290.601 108.707C289.826 108.707 289.14 108.535 288.542 108.192C287.944 107.839 287.473 107.349 287.13 106.721C286.796 106.084 286.63 105.348 286.63 104.515ZM298.95 108.707C298.313 108.707 297.739 108.594 297.229 108.368C296.729 108.133 296.332 107.819 296.038 107.427C295.744 107.025 295.587 106.579 295.567 106.088H297.303C297.332 106.432 297.494 106.721 297.788 106.956C298.092 107.182 298.47 107.295 298.921 107.295C299.392 107.295 299.754 107.206 300.009 107.03C300.274 106.844 300.406 106.608 300.406 106.324C300.406 106.02 300.259 105.794 299.965 105.647C299.681 105.5 299.225 105.338 298.597 105.162C297.989 104.995 297.494 104.833 297.112 104.676C296.729 104.519 296.396 104.279 296.111 103.956C295.837 103.632 295.7 103.205 295.7 102.676C295.7 102.244 295.827 101.852 296.082 101.499C296.337 101.136 296.7 100.852 297.17 100.646C297.651 100.44 298.2 100.337 298.818 100.337C299.74 100.337 300.48 100.573 301.039 101.043C301.608 101.504 301.912 102.137 301.951 102.941H300.274C300.245 102.578 300.098 102.289 299.833 102.073C299.568 101.857 299.21 101.749 298.759 101.749C298.318 101.749 297.979 101.833 297.744 101.999C297.509 102.166 297.391 102.387 297.391 102.661C297.391 102.877 297.47 103.058 297.626 103.205C297.783 103.353 297.975 103.47 298.2 103.558C298.426 103.637 298.759 103.74 299.2 103.867C299.789 104.024 300.269 104.186 300.642 104.353C301.024 104.51 301.353 104.745 301.627 105.059C301.902 105.373 302.044 105.789 302.054 106.309C302.054 106.77 301.926 107.182 301.671 107.545C301.416 107.908 301.054 108.192 300.583 108.398C300.122 108.604 299.578 108.707 298.95 108.707Z" fill="white"/>
<g filter="url(#filter2_d_6_776)">
<path d="M327.223 146.679C327.223 152.212 323.033 156.698 317.865 156.698C312.697 156.698 308.507 152.212 308.507 146.679C308.507 141.145 312.697 136.66 317.865 136.66C323.033 136.66 327.223 141.145 327.223 146.679Z" fill="#13B497"/>
<path d="M325.997 146.679C325.997 151.616 322.279 155.473 317.865 155.473C313.451 155.473 309.733 151.616 309.733 146.679C309.733 141.742 313.451 137.885 317.865 137.885C322.279 137.885 325.997 141.742 325.997 146.679Z" stroke="#2F363D" stroke-width="2.45154"/>
</g>
<path d="M322.495 50.229V51.3175H319.7V60.4813H318.361V51.3175H315.552V50.229H322.495ZM328.143 52.2736C328.751 52.2736 329.3 52.406 329.791 52.6707C330.281 52.9257 330.663 53.313 330.938 53.8328C331.222 54.3525 331.364 54.985 331.364 55.7302V60.4813H330.041V55.9215C330.041 55.1174 329.84 54.5045 329.438 54.0828C329.035 53.6513 328.486 53.4356 327.79 53.4356C327.084 53.4356 326.52 53.6562 326.099 54.0975C325.687 54.5388 325.481 55.1811 325.481 56.0244V60.4813H324.142V49.5965H325.481V53.568C325.746 53.1561 326.108 52.8374 326.569 52.6119C327.04 52.3863 327.565 52.2736 328.143 52.2736ZM334.242 51.1116C333.987 51.1116 333.772 51.0233 333.595 50.8468C333.419 50.6703 333.33 50.4545 333.33 50.1996C333.33 49.9446 333.419 49.7289 333.595 49.5524C333.772 49.3759 333.987 49.2876 334.242 49.2876C334.487 49.2876 334.693 49.3759 334.86 49.5524C335.037 49.7289 335.125 49.9446 335.125 50.1996C335.125 50.4545 335.037 50.6703 334.86 50.8468C334.693 51.0233 334.487 51.1116 334.242 51.1116ZM334.889 52.4207V60.4813H333.551V52.4207H334.889ZM340.024 60.6137C339.407 60.6137 338.853 60.5107 338.362 60.3048C337.872 60.0891 337.485 59.7949 337.2 59.4223C336.916 59.0398 336.759 58.6034 336.73 58.1131H338.112C338.151 58.5152 338.338 58.8437 338.671 59.0987C339.014 59.3536 339.461 59.4811 340.01 59.4811C340.52 59.4811 340.922 59.3683 341.216 59.1428C341.51 58.9172 341.657 58.6329 341.657 58.2896C341.657 57.9366 341.5 57.6768 341.186 57.5101C340.873 57.3336 340.387 57.1619 339.73 56.9952C339.132 56.8383 338.642 56.6814 338.259 56.5245C337.887 56.3578 337.563 56.1176 337.288 55.8038C337.024 55.4802 336.891 55.0585 336.891 54.5388C336.891 54.1269 337.014 53.7494 337.259 53.4062C337.504 53.063 337.852 52.7933 338.303 52.5972C338.754 52.3913 339.269 52.2883 339.848 52.2883C340.74 52.2883 341.461 52.5138 342.01 52.9649C342.559 53.416 342.853 54.0338 342.893 54.8183H341.554C341.525 54.3966 341.353 54.0583 341.039 53.8033C340.735 53.5484 340.323 53.4209 339.804 53.4209C339.323 53.4209 338.941 53.5239 338.656 53.7298C338.372 53.9357 338.23 54.2054 338.23 54.5388C338.23 54.8036 338.313 55.0242 338.48 55.2007C338.656 55.3674 338.872 55.5047 339.127 55.6126C339.392 55.7106 339.755 55.8234 340.216 55.9509C340.794 56.1078 341.265 56.2647 341.628 56.4216C341.991 56.5687 342.299 56.7942 342.554 57.0982C342.819 57.4022 342.956 57.7993 342.966 58.2896C342.966 58.7309 342.844 59.1281 342.598 59.4811C342.353 59.8341 342.005 60.1136 341.554 60.3195C341.113 60.5156 340.603 60.6137 340.024 60.6137ZM361.663 50.229L358.691 60.4813H357.191L354.808 52.2295L352.337 60.4813L350.851 60.496L347.983 50.229H349.41L351.646 58.9221L354.117 50.229H355.617L357.971 58.8927L360.221 50.229H361.663ZM370.482 56.1421C370.482 56.3971 370.467 56.6667 370.438 56.9511H363.995C364.044 57.7454 364.314 58.3681 364.804 58.8192C365.304 59.2605 365.907 59.4811 366.613 59.4811C367.192 59.4811 367.673 59.3487 368.055 59.0839C368.447 58.8094 368.722 58.4465 368.879 57.9955H370.32C370.104 58.7702 369.673 59.4026 369.026 59.893C368.379 60.3735 367.574 60.6137 366.613 60.6137C365.849 60.6137 365.162 60.4421 364.554 60.0989C363.956 59.7557 363.485 59.2703 363.142 58.6427C362.799 58.0053 362.627 57.2698 362.627 56.4363C362.627 55.6028 362.794 54.8722 363.127 54.2446C363.461 53.617 363.927 53.1365 364.525 52.8031C365.133 52.4599 365.829 52.2883 366.613 52.2883C367.378 52.2883 368.055 52.455 368.643 52.7884C369.232 53.1218 369.683 53.5827 369.997 54.1711C370.32 54.7496 370.482 55.4066 370.482 56.1421ZM369.099 55.8626C369.099 55.3527 368.987 54.9163 368.761 54.5535C368.535 54.1809 368.227 53.9014 367.834 53.7151C367.452 53.519 367.025 53.4209 366.555 53.4209C365.878 53.4209 365.299 53.6366 364.819 54.0681C364.348 54.4996 364.079 55.0977 364.01 55.8626H369.099ZM379.603 56.1421C379.603 56.3971 379.589 56.6667 379.559 56.9511H373.117C373.166 57.7454 373.435 58.3681 373.926 58.8192C374.426 59.2605 375.029 59.4811 375.735 59.4811C376.313 59.4811 376.794 59.3487 377.176 59.0839C377.569 58.8094 377.843 58.4465 378 57.9955H379.442C379.226 58.7702 378.794 59.4026 378.147 59.893C377.5 60.3735 376.696 60.6137 375.735 60.6137C374.97 60.6137 374.284 60.4421 373.676 60.0989C373.077 59.7557 372.607 59.2703 372.264 58.6427C371.92 58.0053 371.749 57.2698 371.749 56.4363C371.749 55.6028 371.915 54.8722 372.249 54.2446C372.582 53.617 373.048 53.1365 373.646 52.8031C374.254 52.4599 374.95 52.2883 375.735 52.2883C376.5 52.2883 377.176 52.455 377.765 52.7884C378.353 53.1218 378.804 53.5827 379.118 54.1711C379.442 54.7496 379.603 55.4066 379.603 56.1421ZM378.221 55.8626C378.221 55.3527 378.108 54.9163 377.882 54.5535C377.657 54.1809 377.348 53.9014 376.956 53.7151C376.573 53.519 376.147 53.4209 375.676 53.4209C374.999 53.4209 374.421 53.6366 373.94 54.0681C373.47 54.4996 373.2 55.0977 373.131 55.8626H378.221ZM385.871 60.4813L382.709 56.9217V60.4813H381.37V49.5965H382.709V55.995L385.812 52.4207H387.681L383.886 56.4363L387.695 60.4813H385.871Z" fill="#B7B7B7"/>
<path d="M399.593 52.4968L407.08 60.5123L414.567 52.4968" fill="#B7B7B7"/>
<path d="M63.2496 88.6386C62.573 88.6386 61.9748 88.5209 61.4551 88.2856C60.9452 88.0502 60.5431 87.7217 60.2489 87.3001C59.9548 86.8784 59.7979 86.4077 59.7782 85.888H60.8667C60.9158 86.3881 61.1364 86.8294 61.5286 87.2118C61.9209 87.5844 62.4945 87.7708 63.2496 87.7708C63.9459 87.7708 64.495 87.5943 64.8971 87.2412C65.3089 86.8784 65.5148 86.4224 65.5148 85.8733C65.5148 85.432 65.4021 85.079 65.1765 84.8142C64.951 84.5396 64.6715 84.3386 64.3381 84.2111C64.0047 84.0738 63.5438 83.9268 62.9554 83.7699C62.269 83.5835 61.7248 83.4021 61.3227 83.2256C60.9207 83.0491 60.5774 82.7745 60.2931 82.4019C60.0087 82.0293 59.8665 81.5242 59.8665 80.8869C59.8665 80.3573 60.0038 79.8866 60.2784 79.4748C60.5529 79.0531 60.9403 78.7246 61.4404 78.4892C61.9405 78.2539 62.5142 78.1362 63.1614 78.1362C64.1126 78.1362 64.8774 78.3716 65.456 78.8423C66.0444 79.3032 66.3827 79.9013 66.4709 80.6368H65.353C65.2844 80.2151 65.054 79.8425 64.6617 79.5189C64.2695 79.1855 63.7399 79.0188 63.0731 79.0188C62.4553 79.0188 61.9405 79.1855 61.5286 79.5189C61.1168 79.8425 60.9109 80.2887 60.9109 80.8574C60.9109 81.2889 61.0236 81.637 61.2492 81.9018C61.4747 82.1666 61.7542 82.3676 62.0876 82.5049C62.4308 82.6422 62.8917 82.7892 63.4703 82.9461C64.1371 83.1325 64.6764 83.3188 65.0883 83.5051C65.5001 83.6816 65.8482 83.9562 66.1326 84.3288C66.417 84.7014 66.5592 85.2016 66.5592 85.8291C66.5592 86.3096 66.4317 86.7656 66.1768 87.1971C65.9218 87.6286 65.5443 87.9767 65.0441 88.2415C64.544 88.5062 63.9459 88.6386 63.2496 88.6386ZM68.0782 84.5053C68.0782 83.6816 68.24 82.9609 68.5636 82.3431C68.897 81.7155 69.353 81.235 69.9315 80.9016C70.5199 80.5583 71.1818 80.3867 71.9173 80.3867C72.6821 80.3867 73.3391 80.5632 73.8883 80.9163C74.4472 81.2693 74.8493 81.7204 75.0944 82.2695V80.5044H76.1241V88.5356H75.0944V86.7558C74.8395 87.305 74.4325 87.761 73.8736 88.1238C73.3244 88.4768 72.6674 88.6533 71.9025 88.6533C71.1769 88.6533 70.5199 88.4817 69.9315 88.1385C69.353 87.7953 68.897 87.3099 68.5636 86.6823C68.24 86.0547 68.0782 85.329 68.0782 84.5053ZM75.0944 84.52C75.0944 83.8728 74.9621 83.3041 74.6973 82.8138C74.4325 82.3235 74.0697 81.9459 73.6088 81.6811C73.1577 81.4164 72.6576 81.284 72.1085 81.284C71.5397 81.284 71.0298 81.4115 70.5787 81.6664C70.1276 81.9214 69.7697 82.294 69.5049 82.7843C69.25 83.2648 69.1225 83.8385 69.1225 84.5053C69.1225 85.1623 69.25 85.7409 69.5049 86.241C69.7697 86.7313 70.1276 87.1089 70.5787 87.3736C71.0298 87.6286 71.5397 87.7561 72.1085 87.7561C72.6576 87.7561 73.1577 87.6237 73.6088 87.3589C74.0697 87.0941 74.4325 86.7166 74.6973 86.2263C74.9621 85.736 75.0944 85.1672 75.0944 84.52ZM79.5043 77.6508V88.5356H78.4747V77.6508H79.5043ZM89.1023 84.1082C89.1023 84.4612 89.0925 84.7309 89.0729 84.9172H82.4096C82.4391 85.5252 82.5862 86.0449 82.8509 86.4764C83.1157 86.9078 83.4638 87.2363 83.8953 87.4619C84.3267 87.6776 84.7974 87.7855 85.3074 87.7855C85.9742 87.7855 86.5331 87.6237 86.9842 87.3001C87.4451 86.9765 87.7491 86.5401 87.8962 85.9909H88.9847C88.7885 86.7754 88.3669 87.4177 87.7197 87.9179C87.0823 88.4082 86.2782 88.6533 85.3074 88.6533C84.5523 88.6533 83.8757 88.4866 83.2775 88.1532C82.6793 87.81 82.2086 87.3295 81.8654 86.7117C81.532 86.0841 81.3653 85.3536 81.3653 84.52C81.3653 83.6865 81.532 82.9559 81.8654 82.3284C82.1988 81.7008 82.6646 81.2203 83.2628 80.8869C83.861 80.5534 84.5425 80.3867 85.3074 80.3867C86.0722 80.3867 86.7391 80.5534 87.3078 80.8869C87.8864 81.2203 88.3277 81.6713 88.6316 82.2401C88.9454 82.799 89.1023 83.4217 89.1023 84.1082ZM88.058 84.0788C88.0678 83.4806 87.9452 82.9707 87.6903 82.549C87.4451 82.1273 87.1068 81.8086 86.6753 81.5929C86.2438 81.3772 85.7732 81.2693 85.2632 81.2693C84.4984 81.2693 83.8462 81.5144 83.3069 82.0048C82.7676 82.4951 82.4685 83.1864 82.4096 84.0788H88.058ZM93.7515 88.6533C92.8297 88.6533 92.0746 88.4425 91.4863 88.0208C90.9077 87.5894 90.5841 87.0059 90.5155 86.2704H91.5745C91.6236 86.7215 91.8344 87.0892 92.207 87.3736C92.5895 87.6482 93.0994 87.7855 93.7368 87.7855C94.2957 87.7855 94.7321 87.6531 95.0459 87.3883C95.3695 87.1236 95.5313 86.7951 95.5313 86.4028C95.5313 86.1282 95.443 85.9027 95.2665 85.7262C95.09 85.5497 94.8645 85.4124 94.5899 85.3143C94.3251 85.2065 93.9623 85.0937 93.5014 84.976C92.9033 84.8191 92.4178 84.6622 92.0452 84.5053C91.6726 84.3484 91.3539 84.118 91.0891 83.814C90.8342 83.5002 90.7067 83.0834 90.7067 82.5637C90.7067 82.1715 90.8244 81.8086 91.0597 81.4752C91.295 81.1418 91.6285 80.877 92.0599 80.6809C92.4914 80.4848 92.9817 80.3867 93.5308 80.3867C94.3938 80.3867 95.09 80.6074 95.6196 81.0487C96.1491 81.4801 96.4335 82.0783 96.4727 82.8432H95.443C95.4136 82.3725 95.2273 81.9949 94.8841 81.7106C94.5507 81.4164 94.0898 81.2693 93.5014 81.2693C92.9817 81.2693 92.56 81.3919 92.2364 81.637C91.9128 81.8822 91.751 82.1862 91.751 82.549C91.751 82.8628 91.8442 83.1227 92.0305 83.3286C92.2266 83.5247 92.4669 83.6816 92.7513 83.7993C93.0356 83.9071 93.4181 84.0297 93.8986 84.167C94.4771 84.3239 94.938 84.4759 95.2812 84.623C95.6245 84.7701 95.9186 84.9858 96.1638 85.2702C96.409 85.5546 96.5364 85.9321 96.5462 86.4028C96.5462 86.8343 96.4286 87.2216 96.1932 87.5648C95.9579 87.8982 95.6294 88.163 95.2077 88.3591C94.786 88.5553 94.3006 88.6533 93.7515 88.6533Z" fill="white" fill-opacity="0.6"/>
<path d="M59.8763 58.6887V56.5313L66.2895 47.3528H69.4863V56.296H71.2122V58.6887H69.4863V61.4736H66.7406V58.6887H59.8763ZM66.9171 50.2946L62.8966 56.296H66.9171V50.2946ZM82.5703 49.5494H76.216V52.9031C76.4905 52.5631 76.8828 52.2885 77.3927 52.0793C77.9026 51.8571 78.4452 51.7459 79.0205 51.7459C80.0665 51.7459 80.9229 51.9747 81.5897 52.4324C82.2565 52.89 82.7403 53.4784 83.041 54.1975C83.3418 54.9035 83.4921 55.6619 83.4921 56.4725C83.4921 57.9761 83.0606 59.1855 82.1977 60.1008C81.3478 61.016 80.1319 61.4736 78.5498 61.4736C77.0593 61.4736 75.8695 61.101 74.9804 60.3557C74.0913 59.6105 73.5879 58.6364 73.4702 57.4335H76.1375C76.2552 57.9565 76.5167 58.3749 76.922 58.6887C77.3404 59.0025 77.8699 59.1594 78.5106 59.1594C79.282 59.1594 79.8638 58.9175 80.2561 58.4337C80.6483 57.95 80.8445 57.3093 80.8445 56.5117C80.8445 55.7011 80.6418 55.0866 80.2365 54.6682C79.8442 54.2367 79.2624 54.021 78.491 54.021C77.9418 54.021 77.4842 54.1582 77.1181 54.4328C76.752 54.7074 76.4905 55.0735 76.3336 55.5311H73.7056V47.137H82.5703V49.5494ZM85.2485 49.7063V47.1763H89.975V61.4736H87.1509V49.7063H85.2485ZM96.002 58.5906L93.7074 64.1017H91.9422L93.217 58.5906H96.002ZM107.277 49.5494H100.923V52.9031C101.197 52.5631 101.59 52.2885 102.1 52.0793C102.609 51.8571 103.152 51.7459 103.727 51.7459C104.773 51.7459 105.63 51.9747 106.297 52.4324C106.963 52.89 107.447 53.4784 107.748 54.1975C108.049 54.9035 108.199 55.6619 108.199 56.4725C108.199 57.9761 107.768 59.1855 106.905 60.1008C106.055 61.016 104.839 61.4736 103.257 61.4736C101.766 61.4736 100.576 61.101 99.6873 60.3557C98.7982 59.6105 98.2948 58.6364 98.1771 57.4335H100.844C100.962 57.9565 101.224 58.3749 101.629 58.6887C102.047 59.0025 102.577 59.1594 103.217 59.1594C103.989 59.1594 104.571 58.9175 104.963 58.4337C105.355 57.95 105.551 57.3093 105.551 56.5117C105.551 55.7011 105.349 55.0866 104.943 54.6682C104.551 54.2367 103.969 54.021 103.198 54.021C102.649 54.021 102.191 54.1582 101.825 54.4328C101.459 54.7074 101.197 55.0735 101.041 55.5311H98.4125V47.137H107.277V49.5494ZM110.289 54.1386C110.289 51.8767 110.694 50.105 111.505 48.8237C112.328 47.5424 113.688 46.9017 115.584 46.9017C117.48 46.9017 118.833 47.5424 119.644 48.8237C120.468 50.105 120.879 51.8767 120.879 54.1386C120.879 56.4137 120.468 58.1984 119.644 59.4928C118.833 60.7872 117.48 61.4344 115.584 61.4344C113.688 61.4344 112.328 60.7872 111.505 59.4928C110.694 58.1984 110.289 56.4137 110.289 54.1386ZM118.173 54.1386C118.173 53.1711 118.108 52.3605 117.977 51.7067C117.859 51.0399 117.611 50.4973 117.232 50.0789C116.865 49.6605 116.316 49.4513 115.584 49.4513C114.852 49.4513 114.296 49.6605 113.917 50.0789C113.551 50.4973 113.303 51.0399 113.172 51.7067C113.054 52.3605 112.995 53.1711 112.995 54.1386C112.995 55.1323 113.054 55.9691 113.172 56.649C113.289 57.3158 113.538 57.8584 113.917 58.2768C114.296 58.6822 114.852 58.8848 115.584 58.8848C116.316 58.8848 116.872 58.6822 117.251 58.2768C117.63 57.8584 117.879 57.3158 117.996 56.649C118.114 55.9691 118.173 55.1323 118.173 54.1386ZM126.145 57.4531C126.25 58.0284 126.485 58.473 126.851 58.7867C127.23 59.0875 127.734 59.2378 128.361 59.2378C129.172 59.2378 129.76 58.9044 130.126 58.2376C130.492 57.5577 130.675 56.4202 130.675 54.8251C130.375 55.2435 129.95 55.5703 129.401 55.8057C128.865 56.041 128.283 56.1587 127.655 56.1587C126.818 56.1587 126.06 55.9887 125.38 55.6488C124.713 55.2958 124.184 54.7793 123.792 54.0994C123.399 53.4064 123.203 52.5697 123.203 51.589C123.203 50.1377 123.635 48.9871 124.498 48.1373C125.361 47.2743 126.537 46.8429 128.028 46.8429C129.884 46.8429 131.192 47.4378 131.95 48.6276C132.722 49.8174 133.107 51.6087 133.107 54.0013C133.107 55.7011 132.957 57.0936 132.656 58.1788C132.369 59.264 131.865 60.0877 131.146 60.6499C130.44 61.2121 129.473 61.4932 128.244 61.4932C127.276 61.4932 126.452 61.3102 125.772 60.9441C125.092 60.5649 124.569 60.0746 124.203 59.4732C123.85 58.8587 123.648 58.1853 123.595 57.4531H126.145ZM128.224 53.9229C128.904 53.9229 129.44 53.7137 129.832 53.2953C130.224 52.8769 130.42 52.3147 130.42 51.6086C130.42 50.8372 130.211 50.2423 129.793 49.8239C129.388 49.3925 128.832 49.1767 128.126 49.1767C127.42 49.1767 126.858 49.399 126.439 49.8435C126.034 50.275 125.831 50.8503 125.831 51.5694C125.831 52.2624 126.027 52.8311 126.42 53.2757C126.825 53.7072 127.426 53.9229 128.224 53.9229Z" fill="white"/>
<defs>
<filter id="filter0_d_6_776" x="0.815571" y="0.271799" width="479.377" height="238.07" filterUnits="userSpaceOnUse" color-interpolation-filters="sRGB">
<feFlood flood-opacity="0" result="BackgroundImageFix"/>
<feColorMatrix in="SourceAlpha" type="matrix" values="0 0 0 0 0 0 0 0 0 0 0 0 0 0 0 0 0 0 127 0" result="hardAlpha"/>
<feOffset dy="14.7092"/>
<feGaussianBlur stdDeviation="14.0963"/>
<feColorMatrix type="matrix" values="0 0 0 0 0.243137 0 0 0 0 0.286275 0 0 0 0 0.329412 0 0 0 0.04 0"/>
<feBlend mode="normal" in2="BackgroundImageFix" result="effect1_dropShadow_6_776"/>
<feBlend mode="normal" in="SourceGraphic" in2="effect1_dropShadow_6_776" result="shape"/>
</filter>
<filter id="filter1_d_6_776" x="196.758" y="72.4113" width="152.375" height="98.694" filterUnits="userSpaceOnUse" color-interpolation-filters="sRGB">
<feFlood flood-opacity="0" result="BackgroundImageFix"/>
<feColorMatrix in="SourceAlpha" type="matrix" values="0 0 0 0 0 0 0 0 0 0 0 0 0 0 0 0 0 0 127 0" result="hardAlpha"/>
<feOffset dy="17.1608"/>
<feGaussianBlur stdDeviation="15.3221"/>
<feColorMatrix type="matrix" values="0 0 0 0 0 0 0 0 0 0 0 0 0 0 0 0 0 0 0.16 0"/>
<feBlend mode="normal" in2="BackgroundImageFix" result="effect1_dropShadow_6_776"/>
<feBlend mode="normal" in="SourceGraphic" in2="effect1_dropShadow_6_776" result="shape"/>
</filter>
<filter id="filter2_d_6_776" x="293.798" y="126.853" width="48.1349" height="49.4571" filterUnits="userSpaceOnUse" color-interpolation-filters="sRGB">
<feFlood flood-opacity="0" result="BackgroundImageFix"/>
<feColorMatrix in="SourceAlpha" type="matrix" values="0 0 0 0 0 0 0 0 0 0 0 0 0 0 0 0 0 0 127 0" result="hardAlpha"/>
<feOffset dy="4.90307"/>
<feGaussianBlur stdDeviation="7.35461"/>
<feColorMatrix type="matrix" values="0 0 0 0 0 0 0 0 0 0 0 0 0 0 0 0 0 0 0.38 0"/>
<feBlend mode="normal" in2="BackgroundImageFix" result="effect1_dropShadow_6_776"/>
<feBlend mode="normal" in="SourceGraphic" in2="effect1_dropShadow_6_776" result="shape"/>
</filter>
<linearGradient id="paint0_linear_6_776" x1="246.743" y1="113.949" x2="246.743" y2="207.095" gradientUnits="userSpaceOnUse">
<stop stop-color="#13B497" stop-opacity="0.35"/>
<stop offset="1" stop-color="#13B497" stop-opacity="0"/>
</linearGradient>
</defs>
</svg>
