<svg width="480" height="239" viewBox="0 0 480 239" fill="none" xmlns="http://www.w3.org/2000/svg">
<g filter="url(#filter0_d_6_833)">
<rect x="28.4435" y="14.3154" width="422.991" height="181.685" rx="17.1608" fill="#2F363D"/>
</g>
<mask id="mask0_6_833" style="mask-type:alpha" maskUnits="userSpaceOnUse" x="28" y="14" width="424" height="182">
<rect x="28.4435" y="14.3154" width="422.991" height="181.685" rx="17.1608" fill="#2F363D"/>
</mask>
<g mask="url(#mask0_6_833)">
<path d="M470.086 168.067C448.571 152.679 410.975 89.4243 352.778 127.6C272.463 180.283 167.344 186.215 120.536 169.988C75.9378 154.526 38.0816 155.28 13.5767 159.168" stroke="#D9B75F" stroke-width="2.45154"/>
<g filter="url(#filter1_d_6_833)">
<path d="M460.026 94.566C440.735 117.143 395.71 150.484 322.795 125.285C231.651 93.7863 162.162 114.35 119.252 163.165C78.3681 209.675 40.6541 214.054 15.5038 208.289" stroke="#13B497" stroke-width="2.45154"/>
</g>
<g filter="url(#filter2_d_6_833)">
<path d="M296.748 157.907C296.748 163.43 292.271 167.907 286.748 167.907C281.225 167.907 276.748 163.43 276.748 157.907C276.748 152.384 281.225 147.907 286.748 147.907C292.271 147.907 296.748 152.384 296.748 157.907Z" fill="#D9B75F"/>
<path d="M295.522 157.907C295.522 162.753 291.594 166.681 286.748 166.681C281.902 166.681 277.974 162.753 277.974 157.907C277.974 153.061 281.902 149.133 286.748 149.133C291.594 149.133 295.522 153.061 295.522 157.907Z" stroke="#2F363D" stroke-width="2.45154"/>
</g>
</g>
<path d="M341.335 50.8627V61.0415H339.997V53.4515L336.614 61.0415H335.672L332.274 53.4368V61.0415H330.936V50.8627H332.377L336.143 59.2764L339.908 50.8627H341.335ZM347.121 61.1739C346.366 61.1739 345.679 61.0023 345.061 60.6591C344.453 60.3158 343.973 59.8304 343.62 59.2029C343.277 58.5655 343.105 57.83 343.105 56.9965C343.105 56.1728 343.282 55.4471 343.635 54.8195C343.997 54.1821 344.488 53.6967 345.106 53.3633C345.723 53.0201 346.415 52.8485 347.18 52.8485C347.944 52.8485 348.636 53.0201 349.254 53.3633C349.871 53.6967 350.357 54.1772 350.71 54.8048C351.073 55.4324 351.254 56.1629 351.254 56.9965C351.254 57.83 351.068 58.5655 350.695 59.2029C350.332 59.8304 349.837 60.3158 349.209 60.6591C348.582 61.0023 347.886 61.1739 347.121 61.1739ZM347.121 59.9971C347.601 59.9971 348.052 59.8844 348.474 59.6588C348.896 59.4333 349.234 59.095 349.489 58.6439C349.754 58.1928 349.886 57.6437 349.886 56.9965C349.886 56.3493 349.759 55.8001 349.504 55.349C349.249 54.898 348.915 54.5645 348.503 54.3488C348.092 54.1233 347.645 54.0105 347.165 54.0105C346.675 54.0105 346.223 54.1233 345.812 54.3488C345.41 54.5645 345.086 54.898 344.841 55.349C344.596 55.8001 344.473 56.3493 344.473 56.9965C344.473 57.6535 344.591 58.2075 344.826 58.6586C345.071 59.1097 345.395 59.448 345.797 59.6735C346.199 59.8893 346.64 59.9971 347.121 59.9971ZM356.941 52.8338C357.922 52.8338 358.716 53.1328 359.324 53.731C359.932 54.3194 360.236 55.1725 360.236 56.2904V61.0415H358.912V56.4816C358.912 55.6775 358.711 55.0647 358.309 54.643C357.907 54.2115 357.358 53.9958 356.662 53.9958C355.956 53.9958 355.392 54.2164 354.97 54.6577C354.558 55.099 354.352 55.7413 354.352 56.5846V61.0415H353.014V52.9809H354.352V54.1282C354.617 53.7163 354.975 53.3976 355.426 53.1721C355.887 52.9465 356.392 52.8338 356.941 52.8338ZM364.055 54.084V58.8351C364.055 59.2274 364.139 59.5068 364.305 59.6735C364.472 59.8304 364.761 59.9089 365.173 59.9089H366.159V61.0415H364.953C364.207 61.0415 363.648 60.8699 363.276 60.5267C362.903 60.1835 362.717 59.6196 362.717 58.8351V54.084H361.673V52.9809H362.717V50.951H364.055V52.9809H366.159V54.084H364.055ZM371.782 52.8338C372.39 52.8338 372.939 52.9661 373.429 53.2309C373.919 53.4859 374.302 53.8732 374.576 54.3929C374.861 54.9127 375.003 55.5452 375.003 56.2904V61.0415H373.679V56.4816C373.679 55.6775 373.478 55.0647 373.076 54.643C372.674 54.2115 372.125 53.9958 371.429 53.9958C370.722 53.9958 370.159 54.2164 369.737 54.6577C369.325 55.099 369.119 55.7413 369.119 56.5846V61.0415H367.781V50.1567H369.119V54.1282C369.384 53.7163 369.747 53.3976 370.208 53.1721C370.678 52.9465 371.203 52.8338 371.782 52.8338ZM378.528 50.1567V61.0415H377.189V50.1567H378.528ZM387.752 52.9809L382.898 64.8365H381.515L383.104 60.9532L379.853 52.9809H381.339L383.869 59.5117L386.369 52.9809H387.752Z" fill="#B7B7B7"/>
<path d="M399.029 53.057L406.515 61.0725L414.002 53.057" fill="#B7B7B7"/>
<path d="M60.5962 78.814V89.0957H59.5665V78.814H60.5962ZM66.6934 80.9174C67.6544 80.9174 68.4388 81.2165 69.0468 81.8146C69.6548 82.403 69.9588 83.261 69.9588 84.3888V89.0957H68.9439V84.5064C68.9439 83.6337 68.7232 82.9669 68.282 82.506C67.8505 82.0451 67.2572 81.8146 66.5021 81.8146C65.7274 81.8146 65.1097 82.0598 64.6488 82.5501C64.1879 83.0404 63.9574 83.7612 63.9574 84.7124V89.0957H62.9278V81.0645H63.9574V82.4324C64.2124 81.9421 64.5801 81.5695 65.0606 81.3145C65.5411 81.0498 66.0854 80.9174 66.6934 80.9174ZM71.7653 85.0801C71.7653 84.2466 71.932 83.5209 72.2654 82.9031C72.5988 82.2755 73.0597 81.795 73.6481 81.4616C74.2364 81.1184 74.9081 80.9468 75.6632 80.9468C76.6536 80.9468 77.4676 81.1919 78.105 81.6823C78.7522 82.1726 79.1689 82.8394 79.3552 83.6827H78.252C78.1148 83.1041 77.8157 82.6531 77.3548 82.3295C76.9037 81.9961 76.3398 81.8293 75.6632 81.8293C75.1239 81.8293 74.6385 81.9519 74.207 82.1971C73.7755 82.4422 73.4323 82.81 73.1774 83.3003C72.9322 83.7808 72.8096 84.374 72.8096 85.0801C72.8096 85.7861 72.9322 86.3843 73.1774 86.8746C73.4323 87.3649 73.7755 87.7326 74.207 87.9778C74.6385 88.223 75.1239 88.3455 75.6632 88.3455C76.3398 88.3455 76.9037 88.1837 77.3548 87.8601C77.8157 87.5267 78.1148 87.0658 78.252 86.4775H79.3552C79.1689 87.3012 78.7522 87.9631 78.105 88.4632C77.4577 88.9633 76.6438 89.2134 75.6632 89.2134C74.9081 89.2134 74.2364 89.0467 73.6481 88.7133C73.0597 88.37 72.5988 87.8895 72.2654 87.2718C71.932 86.6442 71.7653 85.9136 71.7653 85.0801ZM84.7724 89.2134C84.0173 89.2134 83.3358 89.0467 82.7278 88.7133C82.1296 88.37 81.654 87.8895 81.301 87.2718C80.9578 86.6442 80.7862 85.9136 80.7862 85.0801C80.7862 84.2466 80.9627 83.5209 81.3157 82.9031C81.6687 82.2755 82.1492 81.795 82.7572 81.4616C83.3652 81.1184 84.0467 80.9468 84.8018 80.9468C85.5569 80.9468 86.2384 81.1184 86.8464 81.4616C87.4642 81.795 87.9447 82.2755 88.2879 82.9031C88.6409 83.5209 88.8174 84.2466 88.8174 85.0801C88.8174 85.9038 88.6409 86.6295 88.2879 87.2571C87.9348 87.8846 87.4494 88.37 86.8317 88.7133C86.2139 89.0467 85.5274 89.2134 84.7724 89.2134ZM84.7724 88.3161C85.3019 88.3161 85.7922 88.1984 86.2433 87.9631C86.6944 87.7179 87.0572 87.3551 87.3318 86.8746C87.6161 86.3843 87.7583 85.7861 87.7583 85.0801C87.7583 84.374 87.6211 83.7808 87.3465 83.3003C87.0719 82.81 86.7091 82.4471 86.258 82.2118C85.8069 81.9666 85.3166 81.8441 84.7871 81.8441C84.2575 81.8441 83.7672 81.9666 83.3162 82.2118C82.8651 82.4471 82.5022 82.81 82.2277 83.3003C81.9629 83.7808 81.8305 84.374 81.8305 85.0801C81.8305 85.7861 81.9629 86.3843 82.2277 86.8746C82.5022 87.3551 82.8602 87.7179 83.3014 87.9631C83.7525 88.1984 84.2428 88.3161 84.7724 88.3161ZM100.255 80.9174C101.197 80.9174 101.962 81.2165 102.55 81.8146C103.148 82.403 103.447 83.261 103.447 84.3888V89.0957H102.432V84.5064C102.432 83.6337 102.221 82.9669 101.8 82.506C101.378 82.0451 100.804 81.8146 100.079 81.8146C99.3237 81.8146 98.7207 82.0647 98.2696 82.5648C97.8185 83.0649 97.5929 83.7906 97.5929 84.7418V89.0957H96.578V84.5064C96.578 83.6337 96.3672 82.9669 95.9455 82.506C95.5238 82.0451 94.9453 81.8146 94.2098 81.8146C93.4547 81.8146 92.8517 82.0647 92.4006 82.5648C91.9495 83.0649 91.724 83.7906 91.724 84.7418V89.0957H90.6943V81.0645H91.724V82.4471C91.9789 81.947 92.3418 81.5695 92.8124 81.3145C93.2831 81.0498 93.8078 80.9174 94.3863 80.9174C95.0826 80.9174 95.6906 81.0841 96.2103 81.4175C96.7398 81.7509 97.1222 82.2412 97.3576 82.8884C97.5733 82.251 97.9411 81.7656 98.4608 81.4322C98.9903 81.089 99.5885 80.9174 100.255 80.9174ZM113 84.6682C113 85.0212 112.99 85.2909 112.971 85.4772H106.308C106.337 86.0852 106.484 86.6049 106.749 87.0364C107.014 87.4679 107.362 87.7964 107.793 88.0219C108.225 88.2377 108.695 88.3455 109.205 88.3455C109.872 88.3455 110.431 88.1837 110.882 87.8601C111.343 87.5365 111.647 87.1002 111.794 86.551H112.883C112.686 87.3355 112.265 87.9778 111.618 88.4779C110.98 88.9682 110.176 89.2134 109.205 89.2134C108.45 89.2134 107.774 89.0467 107.175 88.7133C106.577 88.37 106.107 87.8895 105.763 87.2718C105.43 86.6442 105.263 85.9136 105.263 85.0801C105.263 84.2466 105.43 83.516 105.763 82.8884C106.097 82.2608 106.563 81.7803 107.161 81.4469C107.759 81.1135 108.44 80.9468 109.205 80.9468C109.97 80.9468 110.637 81.1135 111.206 81.4469C111.784 81.7803 112.226 82.2314 112.53 82.8002C112.843 83.3591 113 83.9818 113 84.6682ZM111.956 84.6388C111.966 84.0406 111.843 83.5307 111.588 83.1091C111.343 82.6874 111.005 82.3687 110.573 82.153C110.142 81.9372 109.671 81.8293 109.161 81.8293C108.396 81.8293 107.744 82.0745 107.205 82.5648C106.666 83.0551 106.366 83.7465 106.308 84.6388H111.956Z" fill="white" fill-opacity="0.6"/>
<path d="M69.5099 58.0916C69.5099 58.7715 69.3334 59.4122 68.9804 60.0136C68.6405 60.602 68.1305 61.0923 67.4506 61.4845C66.7838 61.8637 65.9928 62.086 65.0776 62.1514V63.74H63.8224V62.1318C62.5149 62.0141 61.4624 61.6218 60.6648 60.955C59.8672 60.2751 59.4554 59.3599 59.4292 58.2093H62.3711C62.4495 59.1507 62.9333 59.7194 63.8224 59.9156V56.1696C62.881 55.9343 62.1226 55.6989 61.5473 55.4636C60.9721 55.2282 60.4752 54.8491 60.0568 54.3261C59.6384 53.8031 59.4292 53.0905 59.4292 52.1883C59.4292 51.0508 59.8345 50.1225 60.6452 49.4034C61.4689 48.6843 62.528 48.2724 63.8224 48.1678V46.5792H65.0776V48.1678C66.3327 48.2724 67.333 48.6516 68.0782 49.3053C68.8366 49.9591 69.2615 50.8612 69.353 52.0118H66.3916C66.3524 51.6326 66.2151 51.3058 65.9797 51.0312C65.7575 50.7435 65.4567 50.5409 65.0776 50.4232V54.1299C66.0582 54.3784 66.8296 54.6202 67.3918 54.8556C67.9671 55.0779 68.464 55.4505 68.8823 55.9735C69.3007 56.4834 69.5099 57.1895 69.5099 58.0916ZM62.2926 52.051C62.2926 52.4825 62.4234 52.8355 62.6849 53.1101C62.9464 53.3716 63.3255 53.5873 63.8224 53.7573V50.3644C63.3517 50.4298 62.979 50.6063 62.7045 50.8939C62.4299 51.1816 62.2926 51.5673 62.2926 52.051ZM65.0776 59.9548C65.5744 59.8633 65.9601 59.6606 66.2347 59.3468C66.5223 59.033 66.6662 58.6538 66.6662 58.2093C66.6662 57.7778 66.5289 57.4313 66.2543 57.1698C65.9797 56.9083 65.5875 56.6926 65.0776 56.5226V59.9548ZM72.1438 59.2487V57.0914L78.557 47.9128H81.7538V56.856H83.4797V59.2487H81.7538V62.0337H79.0081V59.2487H72.1438ZM79.1846 50.8547L75.1641 56.856H79.1846V50.8547ZM94.8378 50.1094H88.4835V53.4631C88.758 53.1232 89.1503 52.8486 89.6602 52.6394C90.1701 52.4171 90.7127 52.306 91.288 52.306C92.334 52.306 93.1904 52.5348 93.8572 52.9924C94.524 53.45 95.0078 54.0384 95.3085 54.7575C95.6093 55.4636 95.7596 56.2219 95.7596 57.0326C95.7596 58.5362 95.3281 59.7456 94.4652 60.6608C93.6153 61.5761 92.3994 62.0337 90.8173 62.0337C89.3268 62.0337 88.137 61.6611 87.2479 60.9158C86.3588 60.1705 85.8554 59.1964 85.7377 57.9936H88.405C88.5227 58.5166 88.7842 58.9349 89.1895 59.2487C89.6079 59.5625 90.1374 59.7194 90.7781 59.7194C91.5495 59.7194 92.1313 59.4776 92.5236 58.9938C92.9158 58.51 93.112 57.8693 93.112 57.0718C93.112 56.2611 92.9093 55.6466 92.504 55.2282C92.1117 54.7968 91.5299 54.581 90.7585 54.581C90.2093 54.581 89.7517 54.7183 89.3856 54.9929C89.0195 55.2675 88.758 55.6335 88.6011 56.0912H85.9731V47.6971H94.8378V50.1094ZM105.263 51.3058C105.132 50.7566 104.903 50.3448 104.576 50.0702C104.263 49.7956 103.805 49.6583 103.204 49.6583C102.301 49.6583 101.635 50.0244 101.203 50.7566C100.785 51.4757 100.569 52.6525 100.556 54.2868C100.87 53.7638 101.327 53.3585 101.929 53.0709C102.53 52.7702 103.184 52.6198 103.89 52.6198C104.74 52.6198 105.492 52.8028 106.145 53.1689C106.799 53.535 107.309 54.0711 107.675 54.7771C108.041 55.4701 108.224 56.3069 108.224 57.2875C108.224 58.2158 108.035 59.0461 107.656 59.7783C107.289 60.4974 106.747 61.0596 106.028 61.4649C105.309 61.8703 104.452 62.0729 103.459 62.0729C102.099 62.0729 101.027 61.7722 100.242 61.1708C99.4707 60.5693 98.9281 59.7325 98.6143 58.6604C98.3136 57.5752 98.1632 56.2415 98.1632 54.6595C98.1632 52.2668 98.5751 50.4624 99.3988 49.2465C100.222 48.0174 101.523 47.4029 103.302 47.4029C104.674 47.4029 105.74 47.7756 106.498 48.5208C107.257 49.2661 107.695 50.1944 107.812 51.3058H105.263ZM103.262 54.8752C102.569 54.8752 101.988 55.0779 101.517 55.4832C101.046 55.8885 100.811 56.4769 100.811 57.2483C100.811 58.0197 101.027 58.6277 101.458 59.0722C101.903 59.5168 102.524 59.7391 103.321 59.7391C104.027 59.7391 104.583 59.5233 104.988 59.0918C105.407 58.6604 105.616 58.0785 105.616 57.3464C105.616 56.588 105.413 55.9866 105.008 55.542C104.616 55.0975 104.034 54.8752 103.262 54.8752ZM113.709 59.1507L111.414 64.6617H109.649L110.924 59.1507H113.709ZM122.787 51.3058C122.657 50.7566 122.428 50.3448 122.101 50.0702C121.787 49.7956 121.33 49.6583 120.728 49.6583C119.826 49.6583 119.159 50.0244 118.728 50.7566C118.309 51.4757 118.094 52.6525 118.081 54.2868C118.394 53.7638 118.852 53.3585 119.453 53.0709C120.055 52.7702 120.709 52.6198 121.415 52.6198C122.265 52.6198 123.016 52.8028 123.67 53.1689C124.324 53.535 124.834 54.0711 125.2 54.7771C125.566 55.4701 125.749 56.3069 125.749 57.2875C125.749 58.2158 125.559 59.0461 125.18 59.7783C124.814 60.4974 124.271 61.0596 123.552 61.4649C122.833 61.8703 121.977 62.0729 120.983 62.0729C119.623 62.0729 118.551 61.7722 117.767 61.1708C116.995 60.5693 116.453 59.7325 116.139 58.6604C115.838 57.5752 115.688 56.2415 115.688 54.6595C115.688 52.2668 116.1 50.4624 116.923 49.2465C117.747 48.0174 119.048 47.4029 120.826 47.4029C122.199 47.4029 123.265 47.7756 124.023 48.5208C124.781 49.2661 125.219 50.1944 125.337 51.3058H122.787ZM120.787 54.8752C120.094 54.8752 119.512 55.0779 119.042 55.4832C118.571 55.8885 118.336 56.4769 118.336 57.2483C118.336 58.0197 118.551 58.6277 118.983 59.0722C119.427 59.5168 120.048 59.7391 120.846 59.7391C121.552 59.7391 122.108 59.5233 122.513 59.0918C122.931 58.6604 123.141 58.0785 123.141 57.3464C123.141 56.588 122.938 55.9866 122.533 55.542C122.14 55.0975 121.558 54.8752 120.787 54.8752ZM128.782 58.9349C130.037 57.889 131.037 57.0195 131.783 56.3265C132.528 55.6205 133.149 54.8883 133.646 54.1299C134.143 53.3716 134.391 52.6263 134.391 51.8941C134.391 51.2273 134.234 50.7043 133.92 50.3252C133.607 49.946 133.123 49.7564 132.469 49.7564C131.815 49.7564 131.312 49.9787 130.959 50.4232C130.606 50.8547 130.423 51.4496 130.41 52.2079H127.743C127.795 50.6389 128.259 49.4491 129.135 48.6385C130.024 47.8279 131.149 47.4225 132.508 47.4225C133.999 47.4225 135.143 47.8213 135.94 48.6189C136.738 49.4034 137.137 50.4428 137.137 51.7372C137.137 52.7571 136.862 53.7312 136.313 54.6595C135.764 55.5878 135.136 56.3984 134.43 57.0914C133.724 57.7713 132.802 58.595 131.665 59.5625H137.451V61.8376H127.762V59.7979L128.782 58.9349ZM139.22 51.5019C139.285 50.1944 139.743 49.1876 140.593 48.4816C141.456 47.7625 142.587 47.4029 143.986 47.4029C144.94 47.4029 145.757 47.5729 146.437 47.9128C147.117 48.2397 147.627 48.6908 147.967 49.2661C148.32 49.8283 148.497 50.469 148.497 51.1881C148.497 52.0118 148.281 52.7113 147.849 53.2866C147.431 53.8488 146.928 54.228 146.339 54.4241V54.5026C147.098 54.7379 147.686 55.1563 148.104 55.7578C148.536 56.3592 148.752 57.1306 148.752 58.072C148.752 58.8565 148.569 59.556 148.202 60.1705C147.849 60.785 147.32 61.2688 146.614 61.6218C145.921 61.9618 145.084 62.1318 144.103 62.1318C142.626 62.1318 141.423 61.7591 140.495 61.0139C139.566 60.2686 139.076 59.1703 139.024 57.719H141.691C141.717 58.3597 141.933 58.8761 142.338 59.2684C142.757 59.6475 143.325 59.8371 144.045 59.8371C144.711 59.8371 145.221 59.6541 145.574 59.288C145.94 58.9088 146.124 58.425 146.124 57.8367C146.124 57.0522 145.875 56.49 145.378 56.15C144.881 55.8101 144.11 55.6401 143.064 55.6401H142.495V53.3847H143.064C144.921 53.3847 145.849 52.7636 145.849 51.5215C145.849 50.9593 145.679 50.5213 145.339 50.2075C145.012 49.8937 144.535 49.7368 143.907 49.7368C143.293 49.7368 142.816 49.9068 142.476 50.2467C142.149 50.5736 141.959 50.992 141.907 51.5019H139.22Z" fill="white"/>
<defs>
<filter id="filter0_d_6_833" x="0.250828" y="0.83198" width="479.377" height="238.07" filterUnits="userSpaceOnUse" color-interpolation-filters="sRGB">
<feFlood flood-opacity="0" result="BackgroundImageFix"/>
<feColorMatrix in="SourceAlpha" type="matrix" values="0 0 0 0 0 0 0 0 0 0 0 0 0 0 0 0 0 0 127 0" result="hardAlpha"/>
<feOffset dy="14.7092"/>
<feGaussianBlur stdDeviation="14.0963"/>
<feColorMatrix type="matrix" values="0 0 0 0 0.243137 0 0 0 0 0.286275 0 0 0 0 0.329412 0 0 0 0.04 0"/>
<feBlend mode="normal" in2="BackgroundImageFix" result="effect1_dropShadow_6_833"/>
<feBlend mode="normal" in="SourceGraphic" in2="effect1_dropShadow_6_833" result="shape"/>
</filter>
<filter id="filter1_d_6_833" x="-3.17061" y="75.3881" width="482.508" height="154.509" filterUnits="userSpaceOnUse" color-interpolation-filters="sRGB">
<feFlood flood-opacity="0" result="BackgroundImageFix"/>
<feColorMatrix in="SourceAlpha" type="matrix" values="0 0 0 0 0 0 0 0 0 0 0 0 0 0 0 0 0 0 127 0" result="hardAlpha"/>
<feOffset/>
<feGaussianBlur stdDeviation="9.19326"/>
<feColorMatrix type="matrix" values="0 0 0 0 0.0745098 0 0 0 0 0.705882 0 0 0 0 0.592157 0 0 0 1 0"/>
<feBlend mode="normal" in2="BackgroundImageFix" result="effect1_dropShadow_6_833"/>
<feBlend mode="normal" in="SourceGraphic" in2="effect1_dropShadow_6_833" result="shape"/>
</filter>
<filter id="filter2_d_6_833" x="262.039" y="138.101" width="49.4184" height="49.4184" filterUnits="userSpaceOnUse" color-interpolation-filters="sRGB">
<feFlood flood-opacity="0" result="BackgroundImageFix"/>
<feColorMatrix in="SourceAlpha" type="matrix" values="0 0 0 0 0 0 0 0 0 0 0 0 0 0 0 0 0 0 127 0" result="hardAlpha"/>
<feOffset dy="4.90307"/>
<feGaussianBlur stdDeviation="7.35461"/>
<feColorMatrix type="matrix" values="0 0 0 0 0 0 0 0 0 0 0 0 0 0 0 0 0 0 0.38 0"/>
<feBlend mode="normal" in2="BackgroundImageFix" result="effect1_dropShadow_6_833"/>
<feBlend mode="normal" in="SourceGraphic" in2="effect1_dropShadow_6_833" result="shape"/>
</filter>
</defs>
</svg>
